# Blender 5.2.2 LTS
# www.blender.org
mtllib tree.mtl
o Circle
v -0.216562 2.392420 -3.316932
v -1.835522 2.519380 -2.915232
v -3.036007 2.631302 -1.755567
v -3.496347 2.698198 -0.148667
v -3.093195 2.702143 1.474899
v -1.934575 2.642079 2.680099
v -0.330938 2.534101 3.143999
v 1.288022 2.407142 2.742299
v 2.488507 2.295219 1.582633
v 2.948848 2.228323 -0.024266
v 2.545695 2.224379 -1.647832
v 1.387075 2.284442 -2.853031
v -0.092712 4.352055 -2.331816
v -1.197949 4.438728 -2.057582
v -2.017499 4.515135 -1.265899
v -2.331765 4.560804 -0.168896
v -2.056540 4.563497 0.939485
v -1.265570 4.522492 1.762254
v -0.170795 4.448778 2.078951
v 0.934441 4.362104 1.804717
v 1.753992 4.285697 1.013033
v 2.068258 4.240028 -0.083969
v 1.793033 4.237336 -1.192350
v 1.002063 4.278339 -2.015119
v -0.246171 3.485623 2.346219
v 0.982994 3.389231 2.041236
v -2.649446 3.610210 -0.153674
v -2.343361 3.613205 1.078987
v 1.937858 3.250472 -1.291886
v 1.058197 3.296074 -2.206910
v -0.159333 3.378054 -2.559118
v -1.388497 3.474446 -2.254135
v 1.894439 3.304256 1.160783
v -1.463701 3.567603 1.994012
v -2.299942 3.559421 -1.373682
v 2.243943 3.253467 -0.059225
v -0.134922 3.837185 -2.939704
v -1.618594 3.917993 -2.564672
v -2.715591 3.990397 -1.497050
v -3.131974 4.034996 -0.022907
v -2.756174 4.039840 1.462762
v -1.688885 4.003630 2.561874
v -0.216087 3.936070 2.979920
v 1.267585 3.855262 2.604889
v 2.364583 3.782858 1.537266
v 2.780966 3.738259 0.063123
v 2.405165 3.733415 -1.422546
v 1.337876 3.769624 -2.521657
v -0.058196 5.630095 -2.028964
v -1.071074 5.685261 -1.772936
v -1.819975 5.734690 -1.044089
v -2.104233 5.765137 -0.037717
v -1.847680 5.768443 0.976524
v -1.119060 5.743723 1.726868
v -0.113606 5.697602 2.012262
v 0.899271 5.642435 1.756234
v 1.648172 5.593006 1.027387
v 1.932430 5.562559 0.021015
v 1.675877 5.559252 -0.993226
v 0.947258 5.583972 -1.743570
v -0.161514 4.812776 2.253059
v 0.964935 4.751424 1.968324
v -2.375346 4.887884 -0.026780
v -2.090026 4.891561 1.101186
v 1.828621 4.658915 -1.089428
v 1.018302 4.686406 -1.923907
v -0.099891 4.737700 -2.241301
v -1.226341 4.799051 -1.956566
v 1.797809 4.696453 1.157752
v -1.279708 4.864069 1.935665
v -2.059215 4.854023 -1.145994
v 2.113940 4.662592 0.038537
v -0.063644 5.125246 -2.653028
v -1.378200 5.120450 -2.305761
v -2.343019 5.120052 -1.347744
v -2.699580 5.124162 -0.035676
v -2.352342 5.131676 1.278875
v -1.394347 5.140582 2.243676
v -0.082289 5.148492 2.600209
v 1.232267 5.153289 2.252943
v 2.197087 5.153686 1.294925
v 2.553648 5.149577 -0.017143
v 2.206409 5.142063 -1.331694
v 1.248414 5.133157 -2.296495
v -0.074216 6.707916 -1.826571
v -0.971641 6.704642 -1.589498
v -1.630307 6.704371 -0.935476
v -1.873725 6.707177 -0.039749
v -1.636672 6.712306 0.857672
v -0.982665 6.718385 1.516324
v -0.086945 6.723787 1.759724
v 0.810480 6.727060 1.522651
v 1.469145 6.727331 0.868629
v 1.712564 6.724525 -0.027098
v 1.475510 6.719396 -0.924519
v 0.821503 6.713316 -1.583172
v -0.083852 5.935185 1.964293
v 0.914200 5.938827 1.700638
v -2.070980 5.916713 -0.036952
v -1.807346 5.922417 0.961095
v 1.653798 5.930304 -1.020928
v 0.926459 5.923542 -1.753435
v -0.069696 5.917535 -2.024126
v -1.067747 5.913894 -1.760470
v 1.646720 5.939127 0.973281
v -1.080006 5.929178 1.693602
v -1.800268 5.913593 -1.033114
v 1.917432 5.936008 -0.022881
v -0.085749 6.399420 -2.327694
v -1.303844 6.541135 -2.034356
v -2.211051 6.664681 -1.167410
v -2.564285 6.736956 0.040849
v -2.268897 6.738592 1.266666
v -1.404037 6.669150 2.181587
v -0.201442 6.547239 2.540457
v 1.016653 6.405524 2.247120
v 1.923860 6.281977 1.380173
v 2.277094 6.209703 0.171915
v 1.981706 6.208068 -1.053902
v 1.116846 6.277509 -1.968822
v 0.055452 7.877924 -1.595710
v -0.776121 7.974670 -1.395453
v -1.395455 8.059013 -0.803604
v -1.636602 8.108355 0.021253
v -1.434946 8.109470 0.858098
v -0.844521 8.062063 1.482698
v -0.023530 7.978838 1.727693
v 0.808043 7.882091 1.527436
v 1.427377 7.797748 0.935587
v 1.668524 7.748407 0.110730
v 1.466868 7.747291 -0.726115
v 0.876443 7.794697 -1.350715
v -0.107736 7.256970 1.934211
v 0.817079 7.149375 1.711501
v -1.901679 7.401009 0.036432
v -1.677412 7.402250 0.967110
v 1.549777 6.999461 -0.794737
v 0.893148 7.052182 -1.489372
v -0.019899 7.144741 -1.761838
v -0.944714 7.252336 -1.539127
v 1.505858 7.055574 1.053288
v -1.020783 7.349528 1.661746
v -1.633493 7.346136 -0.880914
v 1.774045 7.000702 0.135942
v -0.006000 7.485220 -2.218457
v -1.178020 7.621575 -1.936215
v -2.050912 7.740448 -1.102060
v -2.390785 7.809989 0.060496
v -2.106571 7.811563 1.239947
v -1.274423 7.744748 2.120261
v -0.117316 7.627449 2.465557
v 1.054704 7.491094 2.183316
v 1.927596 7.372220 1.349161
v 2.267470 7.302680 0.186605
v 1.983254 7.301106 -0.992846
v 1.151108 7.367920 -1.873159
v 0.129860 8.907801 -1.514160
v -0.670258 9.000888 -1.321478
v -1.266166 9.082041 -0.752015
v -1.498192 9.129516 0.041642
v -1.304163 9.130589 0.846833
v -0.736071 9.084975 1.447808
v 0.053866 9.004898 1.683536
v 0.853985 8.911810 1.490854
v 1.449893 8.830657 0.921391
v 1.681919 8.783182 0.127734
v 1.487890 8.782108 -0.677457
v 0.919798 8.827722 -1.278432
v -0.027155 8.310333 1.882243
v 0.862679 8.206809 1.667956
v -1.753242 8.448925 0.056246
v -1.537458 8.450119 0.951722
v 1.567663 8.062565 -0.743483
v 0.935871 8.113292 -1.411844
v 0.057360 8.202350 -1.674004
v -0.832474 8.305875 -1.459717
v 1.525406 8.116556 1.034640
v -0.905666 8.399391 1.620083
v -1.495200 8.396128 -0.826402
v 1.783448 8.063760 0.151992
v 0.120695 8.646474 -1.810621
v 1.058971 8.533964 -1.510046
v 1.722391 8.454991 -0.777241
v 1.933193 8.430716 0.191438
v 1.634892 8.467642 1.136435
v 0.907418 8.555875 1.804538
v -0.054303 8.671774 2.016730
v -0.992579 8.784285 1.716154
v -1.655999 8.863257 0.983350
v -1.866801 8.887533 0.014671
v -1.568500 8.850607 -0.930326
v -0.841026 8.762374 -1.598429
v 0.490695 12.463141 0.098826
v 0.000000 -0.851310 -0.851310
v -0.000000 5.208564 -0.306996
v 0.665581 -0.851310 -0.530783
v 0.240019 5.208564 -0.191409
v 0.829966 -0.851310 0.189434
v 0.299299 5.208564 0.068313
v 0.369370 -0.851310 0.767004
v 0.133201 5.208564 0.276594
v -0.369370 -0.851310 0.767004
v -0.133201 5.208564 0.276594
v -0.829966 -0.851310 0.189434
v -0.299299 5.208564 0.068313
v -0.665581 -0.851310 -0.530783
v -0.240019 5.208564 -0.191409
vn 0.0180 0.4787 0.8778
vn 0.4626 0.4439 0.7674
vn 0.4863 0.2293 0.8432
vn 0.0009 0.2673 0.9636
vn -0.8514 0.5238 -0.0266
vn -0.7407 0.5249 0.4194
vn -0.8274 0.3177 0.4631
vn -0.9483 0.3165 -0.0237
vn 0.8080 0.3937 -0.4383
vn 0.4898 0.4102 -0.7693
vn 0.5161 0.1925 -0.8347
vn 0.8635 0.1745 -0.4733
vn 0.0494 0.4398 -0.8967
vn -0.3953 0.4747 -0.7864
vn -0.4503 0.2629 -0.8533
vn 0.0352 0.2248 -0.9738
vn 0.7923 0.4131 0.4489
vn 0.8463 0.1957 0.4954
vn -0.4225 0.5084 0.7504
vn -0.4800 0.2997 0.8245
vn -0.7250 0.5054 -0.4679
vn -0.8102 0.2965 -0.5056
vn 0.9188 0.3948 0.0076
vn 0.9844 0.1756 0.0136
vn 0.8240 0.5666 0.0022
vn 0.7266 0.5657 -0.3899
vn -0.6214 0.6640 -0.4160
vn -0.7326 0.6801 -0.0279
vn -0.3554 0.6666 0.6553
vn 0.0319 0.6405 0.7673
vn 0.7128 0.5828 0.3902
vn -0.3315 0.6369 -0.6960
vn 0.4468 0.5802 -0.6810
vn 0.0595 0.6063 -0.7930
vn -0.6352 0.6811 0.3642
vn 0.4229 0.6098 0.6703
vn 0.0110 0.4748 0.8800
vn 0.4558 0.4506 0.7676
vn 0.4848 0.2362 0.8421
vn -0.0009 0.2626 0.9649
vn -0.8632 0.5045 -0.0203
vn -0.7505 0.5059 0.4252
vn -0.8323 0.2966 0.4683
vn -0.9553 0.2950 -0.0180
vn 0.7969 0.4140 -0.4399
vn 0.4769 0.4249 -0.7694
vn 0.5078 0.2082 -0.8359
vn 0.8572 0.1963 -0.4762
vn 0.0354 0.4451 -0.8948
vn -0.4095 0.4694 -0.7823
vn -0.4599 0.2567 -0.8500
vn 0.0257 0.2303 -0.9728
vn 0.7847 0.4289 0.4475
vn 0.8439 0.2125 0.4927
vn -0.4305 0.4950 0.7547
vn -0.4830 0.2847 0.8281
vn -0.7384 0.4911 -0.4622
vn -0.8190 0.2804 -0.5006
vn 0.9096 0.4155 0.0055
vn 0.9802 0.1979 0.0101
vn 0.8109 0.5852 0.0013
vn 0.7118 0.5839 -0.3903
vn -0.6382 0.6517 -0.4100
vn -0.7479 0.6634 -0.0213
vn -0.3675 0.6552 0.6601
vn 0.0208 0.6373 0.7703
vn 0.7011 0.5970 0.3900
vn -0.3490 0.6326 -0.6914
vn 0.4304 0.5935 -0.6801
vn 0.0422 0.6113 -0.7903
vn -0.6489 0.6647 0.3703
vn 0.4119 0.6160 0.6714
vn -0.0054 0.4645 0.8855
vn 0.4388 0.4662 0.7682
vn 0.4804 0.2528 0.8398
vn -0.0046 0.2511 0.9680
vn -0.8898 0.4563 -0.0052
vn -0.7725 0.4588 0.4390
vn -0.8421 0.2449 0.4805
vn -0.9702 0.2421 -0.0045
vn 0.7680 0.4624 -0.4431
vn 0.4443 0.4593 -0.7692
vn 0.4863 0.2454 -0.8386
vn 0.8398 0.2487 -0.4827
vn 0.0009 0.4567 -0.8896
vn -0.4433 0.4551 -0.7723
vn -0.4827 0.2407 -0.8420
vn 0.0022 0.2425 -0.9701
vn 0.7649 0.4663 0.4445
vn 0.8363 0.2530 0.4864
vn -0.4487 0.4619 0.7651
vn -0.4887 0.2482 0.8364
vn -0.7693 0.4549 -0.4486
vn -0.8387 0.2406 -0.4886
vn 0.8854 0.4649 0.0011
vn 0.9679 0.2515 0.0023
vn 0.7774 0.6289 -0.0000
vn 0.6743 0.6267 -0.3906
vn -0.6775 0.6202 -0.3954
vn -0.7835 0.6214 -0.0055
vn -0.3956 0.6263 0.6717
vn -0.0058 0.6286 0.7777
vn 0.6715 0.6302 0.3898
vn -0.3908 0.6203 -0.6801
vn 0.3896 0.6241 -0.6773
vn -0.0002 0.6217 -0.7832
vn -0.6803 0.6236 0.3851
vn 0.3848 0.6301 0.6745
vn 0.0291 0.4846 0.8742
vn 0.4730 0.4330 0.7673
vn 0.4885 0.2183 0.8448
vn 0.0039 0.2746 0.9615
vn -0.8319 0.5538 -0.0366
vn -0.7242 0.5544 0.4101
vn -0.8186 0.3508 0.4548
vn -0.9361 0.3501 -0.0329
vn 0.8246 0.3610 -0.4355
vn 0.5095 0.3863 -0.7689
vn 0.5283 0.1673 -0.8324
vn 0.8724 0.1397 -0.4684
vn 0.0713 0.4308 -0.8996
vn -0.3726 0.4824 -0.7928
vn -0.4347 0.2722 -0.8585
vn 0.0499 0.2158 -0.9752
vn 0.8035 0.3880 0.4514
vn 0.8494 0.1691 0.4999
vn -0.4091 0.5290 0.7435
vn -0.4746 0.3231 0.8188
vn -0.7032 0.5274 -0.4769
vn -0.7956 0.3214 -0.5136
vn 0.9323 0.3616 0.0112
vn 0.9899 0.1404 0.0193
vn 0.8437 0.5368 0.0038
vn 0.7491 0.5362 -0.3890
vn -0.5943 0.6825 -0.4254
vn -0.7075 0.7057 -0.0382
vn -0.3357 0.6840 0.6477
vn 0.0496 0.6449 0.7627
vn 0.7306 0.5599 0.3909
vn -0.3036 0.6429 -0.7032
vn 0.4720 0.5585 -0.6822
vn 0.0867 0.5975 -0.7971
vn -0.6128 0.7062 0.3545
vn 0.4399 0.5995 0.6687
vn 0.0943 0.4381 -0.8940
vn 0.1194 0.9928 -0.0011
vn 0.5323 0.3856 -0.7536
vn 0.8421 0.3487 -0.4115
vn 0.9405 0.3374 0.0408
vn 0.8012 0.3546 0.4820
vn 0.4616 0.3958 0.7939
vn 0.0125 0.4499 0.8930
vn -0.4255 0.5024 0.7526
vn -0.7353 0.5393 0.4105
vn -0.8337 0.5507 -0.0418
vn -0.6944 0.5334 -0.4830
vn -0.1194 -0.9928 0.0011
vn -0.3548 0.4922 -0.7949
vn 0.4325 0.0807 -0.8980
vn 0.9718 0.0807 -0.2218
vn 0.7793 0.0807 0.6215
vn -0.0000 0.0807 0.9967
vn -0.7793 0.0807 0.6215
vn -0.0000 1.0000 -0.0000
vn -0.9718 0.0807 -0.2218
vn -0.4325 0.0807 -0.8980
vn -0.0000 -1.0000 -0.0000
vt 0.530482 0.520867
vt 0.530482 0.573044
vt 0.488065 0.570744
vt 0.488065 0.523827
vt 0.396403 0.304672
vt 0.396403 0.358543
vt 0.354203 0.355742
vt 0.354203 0.307303
vt 0.260668 0.358990
vt 0.251262 0.405514
vt 0.210056 0.398134
vt 0.218514 0.356300
vt 0.066202 0.551057
vt 0.066202 0.498768
vt 0.108606 0.501808
vt 0.108606 0.548824
vt 0.523234 0.611759
vt 0.481548 0.605556
vt 0.387241 0.405677
vt 0.345965 0.398124
vt 0.073663 0.590093
vt 0.115314 0.583925
vt 0.073663 0.447239
vt 0.115314 0.455474
vt 0.251262 0.258312
vt 0.260668 0.305110
vt 0.218514 0.307853
vt 0.210056 0.265773
vt 0.523234 0.469208
vt 0.481548 0.477376
vt 0.387241 0.258499
vt 0.345965 0.265785
vt 0.310415 0.296651
vt 0.310415 0.367617
vt 0.433931 0.235012
vt 0.445998 0.295827
vt 0.569202 0.449446
vt 0.578749 0.517487
vt 0.298027 0.235012
vt 0.017775 0.495116
vt 0.027602 0.427246
vt 0.027602 0.615403
vt 0.017775 0.563987
vt 0.445998 0.366782
vt 0.433931 0.428863
vt 0.578749 0.586212
vt 0.569202 0.637204
vt 0.298026 0.428895
vt 0.658604 0.556065
vt 0.658604 0.508241
vt 0.697453 0.510304
vt 0.697453 0.553307
vt 0.543272 0.081639
vt 0.543272 0.130991
vt 0.504720 0.128426
vt 0.504720 0.084050
vt 0.391938 0.578046
vt 0.383861 0.620560
vt 0.345966 0.613821
vt 0.353228 0.575593
vt 0.255169 0.523642
vt 0.255169 0.571666
vt 0.216334 0.568835
vt 0.216334 0.525654
vt 0.665361 0.472694
vt 0.703529 0.478341
vt 0.534344 0.174084
vt 0.496692 0.167175
vt 0.248187 0.487520
vt 0.210056 0.493173
vt 0.248187 0.618723
vt 0.210056 0.611148
vt 0.383861 0.485717
vt 0.391938 0.528690
vt 0.353228 0.531214
vt 0.345966 0.492573
vt 0.665361 0.603353
vt 0.703529 0.595827
vt 0.534344 0.039251
vt 0.496692 0.045936
vt 0.437168 0.521014
vt 0.437168 0.586022
vt 0.577272 0.017775
vt 0.589031 0.073605
vt 0.623199 0.621541
vt 0.614299 0.559257
vt 0.426529 0.464414
vt 0.299639 0.575277
vt 0.290443 0.637256
vt 0.290443 0.464446
vt 0.299639 0.512024
vt 0.589031 0.138608
vt 0.577272 0.195367
vt 0.614299 0.496266
vt 0.623199 0.449446
vt 0.426529 0.642018
vt 0.249547 0.767521
vt 0.249547 0.725028
vt 0.283999 0.726771
vt 0.283999 0.764980
vt 0.058987 0.751750
vt 0.058987 0.707959
vt 0.092889 0.710209
vt 0.092889 0.749586
vt 0.653604 0.713729
vt 0.659594 0.676245
vt 0.693459 0.682206
vt 0.688073 0.715911
vt 0.521812 0.725828
vt 0.521812 0.768688
vt 0.487382 0.766105
vt 0.487382 0.727567
vt 0.255790 0.693303
vt 0.289612 0.698244
vt 0.068044 0.669900
vt 0.101032 0.675988
vt 0.515324 0.693004
vt 0.481548 0.698052
vt 0.515324 0.810098
vt 0.481548 0.803341
vt 0.659594 0.795863
vt 0.653604 0.757512
vt 0.688073 0.755279
vt 0.693459 0.789764
vt 0.255790 0.809396
vt 0.289612 0.802632
vt 0.068044 0.789541
vt 0.101032 0.783566
vt 0.614299 0.764130
vt 0.614299 0.706462
vt 0.029704 0.808534
vt 0.017775 0.758760
vt 0.218278 0.825716
vt 0.210056 0.770562
vt 0.622189 0.814643
vt 0.561479 0.772440
vt 0.552934 0.826983
vt 0.552934 0.672755
vt 0.561479 0.715988
vt 0.017775 0.701081
vt 0.029704 0.650953
vt 0.210056 0.714594
vt 0.218278 0.672807
vt 0.622189 0.657091
vt 0.884578 0.794721
vt 0.884578 0.834017
vt 0.852600 0.832224
vt 0.852600 0.796890
vt 0.840290 0.070223
vt 0.840290 0.110822
vt 0.808381 0.108720
vt 0.808381 0.072214
vt 0.384580 0.770922
vt 0.376798 0.806121
vt 0.345965 0.800518
vt 0.352963 0.768867
vt 0.775429 0.833994
vt 0.775429 0.794750
vt 0.807402 0.796967
vt 0.807402 0.832255
vt 0.879270 0.863099
vt 0.847827 0.858374
vt 0.834088 0.146462
vt 0.802804 0.140767
vt 0.780851 0.862946
vt 0.812277 0.858288
vt 0.780851 0.755728
vt 0.812277 0.761880
vt 0.376798 0.695168
vt 0.384580 0.730310
vt 0.352963 0.732350
vt 0.345965 0.700751
vt 0.879270 0.755741
vt 0.847827 0.761840
vt 0.834088 0.035543
vt 0.802804 0.041031
vt 0.422479 0.723855
vt 0.422479 0.777346
vt 0.869038 0.017775
vt 0.877207 0.063452
vt 0.913849 0.740956
vt 0.920840 0.792297
vt 0.412229 0.677569
vt 0.739080 0.792352
vt 0.746221 0.740956
vt 0.746221 0.882175
vt 0.739080 0.844042
vt 0.877207 0.116926
vt 0.869038 0.163869
vt 0.920840 0.844055
vt 0.913849 0.882359
vt 0.412229 0.823707
vt 0.947334 0.251151
vt 0.947334 0.288960
vt 0.916566 0.287235
vt 0.916566 0.253238
vt 0.928205 0.499910
vt 0.928205 0.538973
vt 0.897503 0.536951
vt 0.897503 0.501826
vt 0.839958 0.289242
vt 0.832470 0.323110
vt 0.802804 0.317718
vt 0.809537 0.287265
vt 0.052750 0.933604
vt 0.052750 0.895844
vt 0.083513 0.897977
vt 0.083513 0.931930
vt 0.942227 0.316943
vt 0.911974 0.312396
vt 0.922238 0.573266
vt 0.892137 0.567786
vt 0.057967 0.961460
vt 0.088204 0.956978
vt 0.057967 0.858298
vt 0.088204 0.864217
vt 0.832470 0.216353
vt 0.839958 0.250166
vt 0.809537 0.252129
vt 0.802804 0.221725
vt 0.942227 0.213645
vt 0.911974 0.219514
vt 0.922238 0.466542
vt 0.892137 0.471823
vt 0.876423 0.243955
vt 0.876423 0.295422
vt 0.955865 0.449446
vt 0.963725 0.493395
vt 0.975498 0.199420
vt 0.982225 0.248819
vt 0.866561 0.199420
vt 0.017775 0.893537
vt 0.024646 0.844085
vt 0.024647 0.979962
vt 0.017775 0.943271
vt 0.963725 0.544847
vt 0.955865 0.590014
vt 0.982225 0.298619
vt 0.975498 0.335475
vt 0.866561 0.340031
vt 0.560751 0.395802
vt 0.481548 0.235012
vt 0.587501 0.382651
vt 0.017775 0.355497
vt 0.126803 0.210344
vt 0.050323 0.374879
vt 0.090230 0.388128
vt 0.126803 0.391695
vt 0.354540 0.164853
vt 0.461141 0.017775
vt 0.381998 0.179745
vt 0.421017 0.191943
vt 0.461141 0.198180
vt 0.210056 0.163030
vt 0.318989 0.017775
vt 0.243226 0.180827
vt 0.283098 0.194162
vt 0.318989 0.199462
vt 0.117138 0.017775
vt 0.153508 0.038782
vt 0.174506 0.075196
vt 0.174506 0.117260
vt 0.153508 0.153705
vt 0.117138 0.174763
vt 0.075143 0.174793
vt 0.038773 0.153787
vt 0.017775 0.117373
vt 0.017775 0.075308
vt 0.038773 0.038864
vt 0.075143 0.017805
vt 0.481548 0.413896
vt 0.521970 0.407238
vt 0.716348 0.265178
vt 0.748896 0.017775
vt 0.755961 0.020486
vt 0.735939 0.272694
vt 0.767254 0.020902
vt 0.767254 0.273849
vt 0.739080 0.696534
vt 0.771450 0.449446
vt 0.778414 0.452203
vt 0.758392 0.704179
vt 0.789707 0.452645
vt 0.789707 0.705405
vt 0.624582 0.260823
vt 0.624582 0.019573
vt 0.635053 0.020666
vt 0.653619 0.263855
vt 0.156436 0.653468
vt 0.161340 0.663650
vt 0.156436 0.673832
vt 0.145418 0.676347
vt 0.136583 0.669301
vt 0.136583 0.657999
vt 0.145418 0.650953
vt 0.644854 0.017775
vt 0.680797 0.255839
vt 0.825257 0.701833
vt 0.836614 0.449446
vt 0.847911 0.449446
vt 0.856586 0.701833
vt 0.667127 0.413896
vt 0.636626 0.406898
vt 0.623051 0.378654
vt 0.636626 0.350433
vt 0.667127 0.343484
vt 0.691587 0.363042
vt 0.691587 0.394378
s 1
usemtl Material.001
f 25/1/1 26/2/2 20/3/3 19/4/4
f 27/5/5 28/6/6 17/7/7 16/8/8
f 29/9/9 30/10/10 24/11/11 23/12/12
f 31/13/13 32/14/14 14/15/15 13/16/16
f 26/2/2 33/17/17 21/18/18 20/3/3
f 28/6/6 34/19/19 18/20/20 17/7/7
f 30/21/10 31/13/13 13/16/16 24/22/11
f 32/14/14 35/23/21 15/24/22 14/15/15
f 33/25/17 36/26/23 22/27/24 21/28/18
f 34/29/19 25/1/1 19/4/4 18/30/20
f 35/31/21 27/5/5 16/8/8 15/32/22
f 36/26/23 29/9/9 23/12/12 22/27/24
f 10/33/25 11/34/26 29/9/9 36/26/23
f 3/35/27 4/36/28 27/5/5 35/31/21
f 6/37/29 7/38/30 25/1/1 34/29/19
f 9/39/31 10/33/25 36/26/23 33/25/17
f 2/40/32 3/41/27 35/23/21 32/14/14
f 12/42/33 1/43/34 31/13/13 30/21/10
f 5/44/35 6/45/29 34/19/19 28/6/6
f 8/46/36 9/47/31 33/17/17 26/2/2
f 1/43/34 2/40/32 32/14/14 31/13/13
f 11/34/26 12/48/33 30/10/10 29/9/9
f 4/36/28 5/44/35 28/6/6 27/5/5
f 7/38/30 8/46/36 26/2/2 25/1/1
f 61/49/37 62/50/38 56/51/39 55/52/40
f 63/53/41 64/54/42 53/55/43 52/56/44
f 65/57/45 66/58/46 60/59/47 59/60/48
f 67/61/49 68/62/50 50/63/51 49/64/52
f 62/50/38 69/65/53 57/66/54 56/51/39
f 64/54/42 70/67/55 54/68/56 53/55/43
f 66/69/46 67/61/49 49/64/52 60/70/47
f 68/62/50 71/71/57 51/72/58 50/63/51
f 69/73/53 72/74/59 58/75/60 57/76/54
f 70/77/55 61/49/37 55/52/40 54/78/56
f 71/79/57 63/53/41 52/56/44 51/80/58
f 72/74/59 65/57/45 59/60/48 58/75/60
f 46/81/61 47/82/62 65/57/45 72/74/59
f 39/83/63 40/84/64 63/53/41 71/79/57
f 42/85/65 43/86/66 61/49/37 70/77/55
f 45/87/67 46/81/61 72/74/59 69/73/53
f 38/88/68 39/89/63 71/71/57 68/62/50
f 48/90/69 37/91/70 67/61/49 66/69/46
f 41/92/71 42/93/65 70/67/55 64/54/42
f 44/94/72 45/95/67 69/65/53 62/50/38
f 37/91/70 38/88/68 68/62/50 67/61/49
f 47/82/62 48/96/69 66/58/46 65/57/45
f 40/84/64 41/92/71 64/54/42 63/53/41
f 43/86/66 44/94/72 62/50/38 61/49/37
f 97/97/73 98/98/74 92/99/75 91/100/76
f 99/101/77 100/102/78 89/103/79 88/104/80
f 101/105/81 102/106/82 96/107/83 95/108/84
f 103/109/85 104/110/86 86/111/87 85/112/88
f 98/98/74 105/113/89 93/114/90 92/99/75
f 100/102/78 106/115/91 90/116/92 89/103/79
f 102/117/82 103/109/85 85/112/88 96/118/83
f 104/110/86 107/119/93 87/120/94 86/111/87
f 105/121/89 108/122/95 94/123/96 93/124/90
f 106/125/91 97/97/73 91/100/76 90/126/92
f 107/127/93 99/101/77 88/104/80 87/128/94
f 108/122/95 101/105/81 95/108/84 94/123/96
f 82/129/97 83/130/98 101/105/81 108/122/95
f 75/131/99 76/132/100 99/101/77 107/127/93
f 78/133/101 79/134/102 97/97/73 106/125/91
f 81/135/103 82/129/97 108/122/95 105/121/89
f 74/136/104 75/137/99 107/119/93 104/110/86
f 84/138/105 73/139/106 103/109/85 102/117/82
f 77/140/107 78/141/101 106/115/91 100/102/78
f 80/142/108 81/143/103 105/113/89 98/98/74
f 73/139/106 74/136/104 104/110/86 103/109/85
f 83/130/98 84/144/105 102/106/82 101/105/81
f 76/132/100 77/140/107 100/102/78 99/101/77
f 79/134/102 80/142/108 98/98/74 97/97/73
f 133/145/109 134/146/110 128/147/111 127/148/112
f 135/149/113 136/150/114 125/151/115 124/152/116
f 137/153/117 138/154/118 132/155/119 131/156/120
f 139/157/121 140/158/122 122/159/123 121/160/124
f 134/146/110 141/161/125 129/162/126 128/147/111
f 136/150/114 142/163/127 126/164/128 125/151/115
f 138/165/118 139/157/121 121/160/124 132/166/119
f 140/158/122 143/167/129 123/168/130 122/159/123
f 141/169/125 144/170/131 130/171/132 129/172/126
f 142/173/127 133/145/109 127/148/112 126/174/128
f 143/175/129 135/149/113 124/152/116 123/176/130
f 144/170/131 137/153/117 131/156/120 130/171/132
f 118/177/133 119/178/134 137/153/117 144/170/131
f 111/179/135 112/180/136 135/149/113 143/175/129
f 114/181/137 115/182/138 133/145/109 142/173/127
f 117/183/139 118/177/133 144/170/131 141/169/125
f 110/184/140 111/185/135 143/167/129 140/158/122
f 120/186/141 109/187/142 139/157/121 138/165/118
f 113/188/143 114/189/137 142/163/127 136/150/114
f 116/190/144 117/191/139 141/161/125 134/146/110
f 109/187/142 110/184/140 140/158/122 139/157/121
f 119/178/134 120/192/141 138/154/118 137/153/117
f 112/180/136 113/188/143 136/150/114 135/149/113
f 115/182/138 116/190/144 134/146/110 133/145/109
f 169/193/109 170/194/110 164/195/111 163/196/112
f 171/197/113 172/198/114 161/199/115 160/200/116
f 173/201/117 174/202/118 168/203/119 167/204/120
f 175/205/121 176/206/122 158/207/123 157/208/124
f 170/194/110 177/209/125 165/210/126 164/195/111
f 172/198/114 178/211/127 162/212/128 161/199/115
f 174/213/118 175/205/121 157/208/124 168/214/119
f 176/206/122 179/215/129 159/216/130 158/207/123
f 177/217/125 180/218/131 166/219/132 165/220/126
f 178/221/127 169/193/109 163/196/112 162/222/128
f 179/223/129 171/197/113 160/200/116 159/224/130
f 180/218/131 173/201/117 167/204/120 166/219/132
f 154/225/133 155/226/134 173/201/117 180/218/131
f 147/227/135 148/228/136 171/197/113 179/223/129
f 150/229/137 151/230/138 169/193/109 178/221/127
f 153/231/139 154/225/133 180/218/131 177/217/125
f 146/232/140 147/233/135 179/215/129 176/206/122
f 156/234/141 145/235/142 175/205/121 174/213/118
f 149/236/143 150/237/137 178/211/127 172/198/114
f 152/238/144 153/239/139 177/209/125 170/194/110
f 145/235/142 146/232/140 176/206/122 175/205/121
f 155/226/134 156/240/141 174/202/118 173/201/117
f 148/228/136 149/236/143 172/198/114 171/197/113
f 151/230/138 152/238/144 170/194/110 169/193/109
f 181/241/145 193/242/146 182/243/147
f 182/244/147 193/245/146 183/246/148
f 183/246/148 193/245/146 184/247/149
f 184/247/149 193/245/146 185/248/150
f 185/249/150 193/250/146 186/251/151
f 186/251/151 193/250/146 187/252/152
f 187/252/152 193/250/146 188/253/153
f 188/254/153 193/255/146 189/256/154
f 189/256/154 193/255/146 190/257/155
f 190/257/155 193/255/146 191/258/156
f 181/259/157 182/260/157 183/261/157 184/262/157 185/263/157 186/264/157 187/265/157 188/266/157 189/267/157 190/268/157 191/269/157 192/270/157
f 191/271/156 193/242/146 192/272/158
f 192/272/158 193/242/146 181/241/145
f 194/273/159 195/274/159 197/275/159 196/276/159
f 196/276/160 197/275/160 199/277/160 198/278/160
f 198/279/161 199/280/161 201/281/161 200/282/161
f 200/282/162 201/281/162 203/283/162 202/284/162
f 202/285/163 203/286/163 205/287/163 204/288/163
f 197/289/164 195/290/164 207/291/164 205/292/164 203/293/164 201/294/164 199/295/164
f 204/288/165 205/287/165 207/296/165 206/297/165
f 206/298/166 207/299/166 195/300/166 194/301/166
f 194/302/167 196/303/167 198/304/167 200/305/167 202/306/167 204/307/167 206/308/167
