# Blender 5.2.2 LTS
# www.blender.org
mtllib wall.mtl
o Cube
v -7.696549 -0.689277 -14.432256
v -7.696549 1.310723 -14.432256
v -7.696549 -0.689277 -16.432255
v -7.696549 1.310723 -16.432255
v -5.696549 -0.689277 -14.432256
v -5.696549 1.310723 -14.432256
v -5.696549 -0.689277 -16.432255
v -5.696549 1.310723 -16.432255
v -7.696549 8.967260 -14.432256
v -7.696549 8.967260 -16.432255
v -5.696549 8.967260 -16.432255
v -5.696549 8.967260 -14.432256
v -7.696549 13.998949 -14.432256
v -7.696549 13.998949 -16.432255
v -5.696549 13.998949 -16.432255
v -5.696549 13.998949 -14.432256
v -7.696549 14.113739 -14.432256
v -7.696549 14.113739 -16.432255
v -5.696549 14.113739 -16.432255
v -5.696549 14.113739 -14.432256
v 18.492067 8.967260 -16.432255
v 18.492067 8.967260 -14.432256
v 18.492067 13.998949 -16.432255
v 18.492067 13.998949 -14.432256
v 18.475378 1.310723 -16.432255
v 18.475378 1.310723 -14.432256
v 18.475378 8.967260 -16.432255
v 18.475378 8.967260 -14.432256
v 18.445181 1.310723 -16.432255
v 18.445181 -0.689277 -16.432255
v 18.445181 -0.689277 -14.432256
v 18.445181 1.310723 -14.432256
v -5.696549 19.206820 -16.432255
v -5.696549 19.206820 -14.432256
v 18.492067 19.206820 -16.432255
v 18.492067 19.206820 -14.432256
v -7.696549 19.157978 -14.432256
v -7.696549 19.157978 -16.432255
v -5.696549 19.157978 -16.432255
v -5.696549 19.157978 -14.432256
vn -1.0000 -0.0000 -0.0000
vn -0.0000 -0.0000 -1.0000
vn -0.0000 1.0000 -0.0000
vn -0.0000 -0.0000 1.0000
vn -0.0000 -1.0000 -0.0000
vn 1.0000 -0.0000 -0.0000
vt 0.375000 0.000000
vt 0.625000 0.000000
vt 0.625000 0.250000
vt 0.375000 0.250000
vt 0.625000 0.500000
vt 0.375000 0.500000
vt 0.625000 0.750000
vt 0.375000 0.750000
vt 0.625000 1.000000
vt 0.375000 1.000000
vt 0.125000 0.500000
vt 0.125000 0.750000
vt 0.875000 0.500000
vt 0.875000 0.750000
s 0
usemtl Material
f 1/1/1 2/2/1 4/3/1 3/4/1
f 3/4/2 4/3/2 8/5/2 7/6/2
f 8/5/3 6/7/3 32/7/3 29/5/3
f 5/8/4 6/7/4 2/9/4 1/10/4
f 3/11/5 7/6/5 5/8/5 1/12/5
f 6/7/5 8/5/5 25/5/5 26/7/5
f 10/3/1 9/2/1 13/2/1 14/3/1
f 4/3/1 2/2/1 9/2/1 10/3/1
f 2/9/4 6/7/4 12/7/4 9/9/4
f 8/5/2 4/3/2 10/3/2 11/5/2
f 13/9/4 16/7/4 20/7/4 17/9/4
f 9/9/4 12/7/4 16/7/4 13/9/4
f 11/5/2 10/3/2 14/3/2 15/5/2
f 16/7/4 12/7/4 22/7/4 24/7/4
f 20/7/6 19/5/6 39/5/6 40/7/6
f 15/5/2 14/3/2 18/3/2 19/5/2
f 16/7/6 15/5/6 19/5/6 20/7/6
f 14/3/1 13/2/1 17/2/1 18/3/1
f 22/7/6 21/5/6 23/5/6 24/7/6
f 16/7/4 24/7/4 36/7/4 34/7/4
f 11/5/2 15/5/2 23/5/2 21/5/2
f 12/7/5 11/5/5 21/5/5 22/7/5
f 26/7/6 25/5/6 27/5/6 28/7/6
f 12/7/4 6/7/4 26/7/4 28/7/4
f 8/5/2 11/5/2 27/5/2 25/5/2
f 11/5/3 12/7/3 28/7/3 27/5/3
f 30/6/6 29/5/6 32/7/6 31/8/6
f 7/6/2 8/5/2 29/5/2 30/6/2
f 6/7/4 5/8/4 31/8/4 32/7/4
f 5/8/5 7/6/5 30/6/5 31/8/5
f 33/5/3 34/7/3 36/7/3 35/5/3
f 24/7/6 23/5/6 35/5/6 36/7/6
f 15/5/1 16/7/1 34/7/1 33/5/1
f 23/5/2 15/5/2 33/5/2 35/5/2
f 39/5/3 38/13/3 37/14/3 40/7/3
f 18/3/1 17/2/1 37/2/1 38/3/1
f 17/9/4 20/7/4 40/7/4 37/9/4
f 19/5/2 18/3/2 38/3/2 39/5/2
