# 3ds Max Wavefront OBJ Exporter v0.99 - (c)2007 guruware
# File Created: 13.05.2026 20:32:38

mtllib White Egg.mtl

#
# object Egg_000
#

v  0.0000 15.6566 -0.0000
v  0.0000 15.1227 -2.8139
v  -0.5851 15.1230 -2.7524
v  -1.1447 15.1236 -2.5707
v  -1.6542 15.1240 -2.2767
v  -2.0913 15.1237 -1.8831
v  -2.4370 15.1227 -1.4071
v  -2.6762 15.1215 -0.8697
v  -2.7985 15.1206 -0.2942
v  -2.7985 15.1206 0.2942
v  -2.6762 15.1215 0.8697
v  -2.4370 15.1227 1.4071
v  -2.0913 15.1237 1.8831
v  -1.6542 15.1240 2.2767
v  -1.1447 15.1236 2.5707
v  -0.5851 15.1230 2.7524
v  0.0000 15.1227 2.8139
v  0.5851 15.1230 2.7525
v  1.1447 15.1236 2.5707
v  1.6542 15.1240 2.2767
v  2.0913 15.1237 1.8831
v  2.4370 15.1227 1.4072
v  2.6762 15.1215 0.8697
v  2.7985 15.1206 0.2942
v  2.7985 15.1206 -0.2942
v  2.6762 15.1215 -0.8697
v  2.4370 15.1227 -1.4071
v  2.0913 15.1237 -1.8831
v  1.6542 15.1240 -2.2766
v  1.1447 15.1236 -2.5707
v  0.5852 15.1230 -2.7524
v  0.0000 13.5937 -5.4050
v  -1.1232 13.6007 -5.2850
v  -2.1971 13.6167 -4.9318
v  -3.1743 13.6290 -4.3662
v  -4.0116 13.6300 -3.6129
v  -4.6738 13.6202 -2.7007
v  -5.1369 13.6015 -1.6693
v  -5.3753 13.5874 -0.5647
v  -5.3753 13.5874 0.5647
v  -5.1369 13.6015 1.6693
v  -4.6738 13.6202 2.7007
v  -4.0116 13.6300 3.6129
v  -3.1743 13.6290 4.3662
v  -2.1971 13.6167 4.9318
v  -1.1232 13.6007 5.2850
v  -0.0000 13.5937 5.4050
v  1.1232 13.6007 5.2850
v  2.1971 13.6167 4.9319
v  3.1743 13.6290 4.3662
v  4.0116 13.6300 3.6129
v  4.6738 13.6202 2.7007
v  5.1369 13.6015 1.6693
v  5.3753 13.5874 0.5647
v  5.3753 13.5874 -0.5646
v  5.1369 13.6015 -1.6693
v  4.6739 13.6202 -2.7007
v  4.0116 13.6300 -3.6129
v  3.1744 13.6290 -4.3662
v  2.1972 13.6167 -4.9318
v  1.1232 13.6007 -5.2850
v  0.0000 11.2932 -7.5969
v  -1.5670 11.3184 -7.4282
v  -3.0674 11.3808 -6.9297
v  -4.4347 11.4470 -6.1249
v  -5.6192 11.4618 -5.0526
v  -6.5639 11.4081 -3.7715
v  -7.2195 11.3344 -2.3295
v  -7.5550 11.2852 -0.7876
v  -7.5550 11.2852 0.7876
v  -7.2195 11.3344 2.3295
v  -6.5639 11.4081 3.7715
v  -5.6192 11.4618 5.0526
v  -4.4347 11.4470 6.1249
v  -3.0674 11.3808 6.9297
v  -1.5670 11.3184 7.4282
v  -0.0000 11.2932 7.5969
v  1.5670 11.3184 7.4282
v  3.0674 11.3808 6.9297
v  4.4347 11.4470 6.1249
v  5.6192 11.4618 5.0526
v  6.5639 11.4081 3.7715
v  7.2195 11.3344 2.3295
v  7.5550 11.2852 0.7876
v  7.5550 11.2852 -0.7876
v  7.2195 11.3344 -2.3295
v  6.5639 11.4081 -3.7715
v  5.6193 11.4618 -5.0526
v  4.4347 11.4470 -6.1249
v  3.0675 11.3808 -6.9297
v  1.5671 11.3184 -7.4282
v  0.0000 8.8190 -9.2137
v  -1.9004 8.8536 -9.0131
v  -3.7217 8.9399 -8.4178
v  -5.3891 9.0247 -7.4470
v  -6.8332 9.0422 -6.1435
v  -7.9779 8.9798 -4.5781
v  -8.7635 8.8805 -2.8257
v  -9.1630 8.8139 -0.9551
v  -9.1630 8.8139 0.9551
v  -8.7635 8.8805 2.8257
v  -7.9779 8.9798 4.5781
v  -6.8332 9.0422 6.1435
v  -5.3891 9.0247 7.4470
v  -3.7217 8.9399 8.4178
v  -1.9004 8.8536 9.0131
v  -0.0000 8.8190 9.2137
v  1.9004 8.8536 9.0131
v  3.7217 8.9399 8.4178
v  5.3891 9.0247 7.4471
v  6.8332 9.0422 6.1435
v  7.9779 8.9798 4.5781
v  8.7635 8.8805 2.8257
v  9.1630 8.8139 0.9551
v  9.1630 8.8139 -0.9550
v  8.7636 8.8805 -2.8257
v  7.9779 8.9798 -4.5780
v  6.8332 9.0422 -6.1435
v  5.3892 9.0247 -7.4470
v  3.7218 8.9399 -8.4178
v  1.9005 8.8536 -9.0131
v  -0.0000 6.5915 -10.3207
v  -2.1394 6.6126 -10.0972
v  -4.1872 6.6647 -9.4340
v  -6.0578 6.7148 -8.3523
v  -7.6688 6.7259 -6.9006
v  -8.9431 6.6888 -5.1497
v  -9.8191 6.6304 -3.1803
v  -10.2640 6.5902 -1.0755
v  -10.2640 6.5902 1.0755
v  -9.8191 6.6304 3.1803
v  -8.9431 6.6888 5.1497
v  -7.6688 6.7259 6.9006
v  -6.0578 6.7148 8.3523
v  -4.1872 6.6647 9.4340
v  -2.1394 6.6126 10.0972
v  -0.0000 6.5915 10.3207
v  2.1394 6.6126 10.0972
v  4.1872 6.6647 9.4340
v  6.0578 6.7148 8.3524
v  7.6688 6.7259 6.9006
v  8.9431 6.6888 5.1497
v  9.8191 6.6304 3.1804
v  10.2640 6.5902 1.0755
v  10.2640 6.5902 -1.0754
v  9.8191 6.6304 -3.1803
v  8.9432 6.6888 -5.1496
v  7.6689 6.7259 -6.9005
v  6.0579 6.7148 -8.3523
v  4.1873 6.6647 -9.4340
v  2.1395 6.6126 -10.0972
v  0.0000 4.3959 -10.9981
v  -2.2869 4.3933 -10.7573
v  -4.4739 4.3872 -10.0460
v  -6.4650 4.3814 -8.8967
v  -8.1728 4.3801 -7.3593
v  -9.5234 4.3843 -5.4997
v  -10.4590 4.3911 -3.3990
v  -10.9379 4.3959 -1.1498
v  -10.9379 4.3959 1.1498
v  -10.4590 4.3911 3.3990
v  -9.5234 4.3843 5.4997
v  -8.1728 4.3801 7.3593
v  -6.4650 4.3814 8.8967
v  -4.4739 4.3872 10.0460
v  -2.2869 4.3933 10.7573
v  -0.0000 4.3959 10.9981
v  2.2869 4.3933 10.7573
v  4.4739 4.3872 10.0460
v  6.4650 4.3814 8.8967
v  8.1727 4.3801 7.3593
v  9.5233 4.3843 5.4997
v  10.4590 4.3911 3.3991
v  10.9379 4.3959 1.1498
v  10.9379 4.3959 -1.1497
v  10.4590 4.3911 -3.3990
v  9.5234 4.3843 -5.4996
v  8.1728 4.3801 -7.3593
v  6.4650 4.3814 -8.8967
v  4.4739 4.3872 -10.0459
v  2.2870 4.3933 -10.7572
v  0.0000 1.8084 -11.3877
v  -2.3676 1.7953 -11.1357
v  -4.6318 1.7640 -10.3945
v  -6.6922 1.7342 -9.2047
v  -8.4569 1.7275 -7.6168
v  -9.8528 1.7493 -5.6936
v  -10.8248 1.7837 -3.5190
v  -11.3254 1.8084 -1.1903
v  -11.3254 1.8084 1.1903
v  -10.8248 1.7837 3.5190
v  -9.8528 1.7493 5.6936
v  -8.4569 1.7275 7.6168
v  -6.6922 1.7342 9.2047
v  -4.6318 1.7640 10.3945
v  -2.3677 1.7953 11.1357
v  -0.0000 1.8084 11.3877
v  2.3676 1.7953 11.1357
v  4.6318 1.7640 10.3945
v  6.6922 1.7342 9.2047
v  8.4569 1.7275 7.6168
v  9.8528 1.7493 5.6936
v  10.8248 1.7837 3.5190
v  11.3254 1.8084 1.1904
v  11.3254 1.8084 -1.1903
v  10.8248 1.7837 -3.5190
v  9.8528 1.7493 -5.6935
v  8.4570 1.7275 -7.6167
v  6.6923 1.7342 -9.2047
v  4.6318 1.7640 -10.3945
v  2.3677 1.7953 -11.1357
v  0.0000 -1.0876 -11.4586
v  -2.3824 -1.0944 -11.2065
v  -4.6606 -1.1108 -10.4634
v  -6.7345 -1.1263 -9.2659
v  -8.5124 -1.1298 -7.6657
v  -9.9186 -1.1185 -5.7291
v  -10.8949 -1.1005 -3.5409
v  -11.3958 -1.0876 -1.1978
v  -11.3958 -1.0876 1.1977
v  -10.8949 -1.1005 3.5409
v  -9.9186 -1.1185 5.7291
v  -8.5124 -1.1298 7.6657
v  -6.7345 -1.1263 9.2659
v  -4.6606 -1.1108 10.4634
v  -2.3824 -1.0944 11.2065
v  -0.0000 -1.0876 11.4586
v  2.3824 -1.0944 11.2065
v  4.6606 -1.1108 10.4634
v  6.7345 -1.1263 9.2659
v  8.5123 -1.1298 7.6657
v  9.9186 -1.1185 5.7292
v  10.8949 -1.1005 3.5409
v  11.3958 -1.0876 1.1978
v  11.3958 -1.0876 -1.1977
v  10.8949 -1.1005 -3.5409
v  9.9186 -1.1185 -5.7291
v  8.5124 -1.1298 -7.6656
v  6.7345 -1.1263 -9.2659
v  4.6607 -1.1108 -10.4634
v  2.3824 -1.0944 -11.2065
v  0.0000 -3.8857 -11.0307
v  -2.2934 -3.8858 -10.7896
v  -4.4866 -3.8860 -10.0770
v  -6.4837 -3.8862 -8.9240
v  -8.1974 -3.8863 -7.3810
v  -9.5528 -3.8861 -5.5154
v  -10.4908 -3.8859 -3.4087
v  -10.9703 -3.8857 -1.1530
v  -10.9703 -3.8857 1.1530
v  -10.4908 -3.8859 3.4087
v  -9.5528 -3.8861 5.5154
v  -8.1974 -3.8863 7.3810
v  -6.4837 -3.8862 8.9240
v  -4.4866 -3.8860 10.0770
v  -2.2934 -3.8858 10.7896
v  -0.0000 -3.8857 11.0307
v  2.2934 -3.8858 10.7896
v  4.4866 -3.8860 10.0770
v  6.4837 -3.8862 8.9240
v  8.1974 -3.8863 7.3810
v  9.5528 -3.8861 5.5154
v  10.4908 -3.8859 3.4087
v  10.9703 -3.8857 1.1531
v  10.9703 -3.8857 -1.1530
v  10.4908 -3.8859 -3.4086
v  9.5528 -3.8861 -5.5153
v  8.1974 -3.8863 -7.3809
v  6.4837 -3.8862 -8.9239
v  4.4866 -3.8860 -10.0770
v  2.2935 -3.8858 -10.7896
v  0.0000 -6.3271 -10.0456
v  -2.0886 -6.3271 -9.8261
v  -4.0859 -6.3271 -9.1771
v  -5.9047 -6.3271 -8.1271
v  -7.4654 -6.3271 -6.7218
v  -8.6998 -6.3271 -5.0228
v  -9.5540 -6.3271 -3.1043
v  -9.9906 -6.3271 -1.0501
v  -9.9906 -6.3271 1.0501
v  -9.5540 -6.3271 3.1043
v  -8.6998 -6.3271 5.0228
v  -7.4654 -6.3271 6.7218
v  -5.9047 -6.3271 8.1271
v  -4.0859 -6.3271 9.1771
v  -2.0886 -6.3271 9.8261
v  -0.0000 -6.3271 10.0456
v  2.0886 -6.3271 9.8261
v  4.0859 -6.3271 9.1771
v  5.9047 -6.3271 8.1271
v  7.4653 -6.3271 6.7218
v  8.6998 -6.3271 5.0228
v  9.5540 -6.3271 3.1043
v  9.9906 -6.3271 1.0501
v  9.9906 -6.3271 -1.0500
v  9.5540 -6.3271 -3.1042
v  8.6998 -6.3271 -5.0228
v  7.4654 -6.3271 -6.7218
v  5.9047 -6.3271 -8.1271
v  4.0860 -6.3271 -9.1771
v  2.0886 -6.3271 -9.8261
v  0.0000 -8.4369 -8.6202
v  -1.7923 -8.4369 -8.4319
v  -3.5062 -8.4369 -7.8750
v  -5.0669 -8.4369 -6.9739
v  -6.4061 -8.4369 -5.7681
v  -7.4654 -8.4369 -4.3101
v  -8.1983 -8.4369 -2.6638
v  -8.5730 -8.4369 -0.9011
v  -8.5730 -8.4369 0.9011
v  -8.1983 -8.4369 2.6638
v  -7.4654 -8.4369 4.3101
v  -6.4061 -8.4369 5.7681
v  -5.0669 -8.4369 6.9739
v  -3.5062 -8.4369 7.8750
v  -1.7923 -8.4369 8.4319
v  -0.0000 -8.4369 8.6203
v  1.7922 -8.4369 8.4319
v  3.5062 -8.4369 7.8750
v  5.0668 -8.4369 6.9739
v  6.4061 -8.4369 5.7681
v  7.4653 -8.4369 4.3101
v  8.1983 -8.4369 2.6638
v  8.5730 -8.4369 0.9011
v  8.5730 -8.4369 -0.9010
v  8.1984 -8.4369 -2.6638
v  7.4654 -8.4369 -4.3101
v  6.4061 -8.4369 -5.7681
v  5.0669 -8.4369 -6.9739
v  3.5062 -8.4369 -7.8750
v  1.7923 -8.4369 -8.4319
v  0.0000 -10.1803 -6.8181
v  -1.4176 -10.1803 -6.6691
v  -2.7732 -10.1803 -6.2287
v  -4.0076 -10.1803 -5.5160
v  -5.0669 -10.1803 -4.5622
v  -5.9047 -10.1803 -3.4091
v  -6.4844 -10.1803 -2.1069
v  -6.7808 -10.1803 -0.7127
v  -6.7808 -10.1803 0.7127
v  -6.4844 -10.1803 2.1069
v  -5.9047 -10.1803 3.4091
v  -5.0669 -10.1803 4.5622
v  -4.0076 -10.1803 5.5160
v  -2.7732 -10.1803 6.2287
v  -1.4176 -10.1803 6.6691
v  -0.0000 -10.1803 6.8181
v  1.4176 -10.1803 6.6691
v  2.7732 -10.1803 6.2287
v  4.0076 -10.1803 5.5160
v  5.0668 -10.1803 4.5622
v  5.9047 -10.1803 3.4091
v  6.4844 -10.1803 2.1069
v  6.7808 -10.1803 0.7127
v  6.7808 -10.1803 -0.7127
v  6.4844 -10.1803 -2.1069
v  5.9047 -10.1803 -3.4090
v  5.0669 -10.1803 -4.5622
v  4.0076 -10.1803 -5.5160
v  2.7732 -10.1803 -6.2287
v  1.4176 -10.1803 -6.6691
v  0.0000 -11.4992 -4.7180
v  -0.9809 -11.4992 -4.6149
v  -1.9190 -11.4992 -4.3101
v  -2.7732 -11.4992 -3.8170
v  -3.5062 -11.4992 -3.1570
v  -4.0859 -11.4992 -2.3590
v  -4.4871 -11.4992 -1.4580
v  -4.6922 -11.4992 -0.4932
v  -4.6922 -11.4992 0.4932
v  -4.4871 -11.4992 1.4579
v  -4.0859 -11.4992 2.3590
v  -3.5062 -11.4992 3.1570
v  -2.7732 -11.4992 3.8170
v  -1.9190 -11.4992 4.3101
v  -0.9809 -11.4992 4.6149
v  -0.0000 -11.4992 4.7180
v  0.9809 -11.4992 4.6149
v  1.9190 -11.4992 4.3101
v  2.7732 -11.4992 3.8170
v  3.5062 -11.4992 3.1570
v  4.0859 -11.4992 2.3590
v  4.4871 -11.4992 1.4580
v  4.6922 -11.4992 0.4932
v  4.6922 -11.4992 -0.4932
v  4.4871 -11.4992 -1.4579
v  4.0859 -11.4992 -2.3590
v  3.5062 -11.4992 -3.1570
v  2.7732 -11.4992 -3.8169
v  1.9190 -11.4992 -4.3101
v  0.9810 -11.4992 -4.6149
v  0.0000 -12.3267 -2.4117
v  -0.5014 -12.3267 -2.3590
v  -0.9809 -12.3267 -2.2032
v  -1.4176 -12.3267 -1.9511
v  -1.7922 -12.3267 -1.6138
v  -2.0886 -12.3267 -1.2059
v  -2.2937 -12.3267 -0.7453
v  -2.3985 -12.3267 -0.2521
v  -2.3985 -12.3267 0.2521
v  -2.2937 -12.3267 0.7453
v  -2.0886 -12.3267 1.2059
v  -1.7922 -12.3267 1.6137
v  -1.4176 -12.3267 1.9511
v  -0.9809 -12.3267 2.2032
v  -0.5014 -12.3267 2.3590
v  -0.0000 -12.3267 2.4117
v  0.5014 -12.3267 2.3590
v  0.9809 -12.3267 2.2032
v  1.4176 -12.3267 1.9511
v  1.7922 -12.3267 1.6138
v  2.0886 -12.3267 1.2059
v  2.2937 -12.3267 0.7453
v  2.3985 -12.3267 0.2521
v  2.3985 -12.3267 -0.2521
v  2.2937 -12.3267 -0.7453
v  2.0886 -12.3267 -1.2058
v  1.7923 -12.3267 -1.6137
v  1.4176 -12.3267 -1.9511
v  0.9809 -12.3267 -2.2032
v  0.5014 -12.3267 -2.3590
v  0.0000 -12.6093 0.0000
# 422 vertices

vn -0.0000 1.0000 -0.0000
vn -0.0000 0.9320 -0.3625
vn -0.0745 0.9323 -0.3539
vn -0.1456 0.9330 -0.3290
vn -0.2104 0.9337 -0.2898
vn -0.2666 0.9338 -0.2387
vn -0.3121 0.9332 -0.1781
vn -0.3446 0.9323 -0.1102
vn -0.3615 0.9316 -0.0373
vn -0.3615 0.9316 0.0373
vn -0.3446 0.9323 0.1102
vn -0.3121 0.9332 0.1781
vn -0.2666 0.9338 0.2387
vn -0.2104 0.9337 0.2898
vn -0.1456 0.9330 0.3290
vn -0.0745 0.9323 0.3539
vn -0.0000 0.9320 0.3625
vn 0.0745 0.9323 0.3539
vn 0.1456 0.9330 0.3290
vn 0.2104 0.9337 0.2898
vn 0.2666 0.9338 0.2387
vn 0.3121 0.9332 0.1781
vn 0.3446 0.9323 0.1102
vn 0.3615 0.9316 0.0373
vn 0.3615 0.9316 -0.0373
vn 0.3446 0.9323 -0.1102
vn 0.3121 0.9332 -0.1781
vn 0.2666 0.9338 -0.2387
vn 0.2104 0.9337 -0.2898
vn 0.1456 0.9330 -0.3290
vn 0.0745 0.9323 -0.3539
vn -0.0000 0.7783 -0.6280
vn -0.1242 0.7799 -0.6135
vn -0.2451 0.7839 -0.5705
vn -0.3587 0.7877 -0.5008
vn -0.4591 0.7884 -0.4094
vn -0.5403 0.7855 -0.3018
vn -0.5969 0.7809 -0.1843
vn -0.6256 0.7777 -0.0620
vn -0.6256 0.7777 0.0620
vn -0.5969 0.7809 0.1843
vn -0.5403 0.7855 0.3018
vn -0.4591 0.7884 0.4094
vn -0.3587 0.7877 0.5008
vn -0.2451 0.7839 0.5705
vn -0.1242 0.7799 0.6135
vn 0.0000 0.7783 0.6280
vn 0.1242 0.7799 0.6135
vn 0.2451 0.7839 0.5705
vn 0.3587 0.7877 0.5008
vn 0.4591 0.7884 0.4094
vn 0.5403 0.7855 0.3018
vn 0.5969 0.7809 0.1843
vn 0.6256 0.7777 0.0620
vn 0.6256 0.7777 -0.0620
vn 0.5969 0.7809 -0.1843
vn 0.5403 0.7855 -0.3018
vn 0.4591 0.7884 -0.4094
vn 0.3587 0.7877 -0.5008
vn 0.2451 0.7839 -0.5705
vn 0.1242 0.7799 -0.6135
vn 0.0000 0.6174 -0.7866
vn -0.1500 0.6198 -0.7703
vn -0.2996 0.6257 -0.7202
vn -0.4462 0.6317 -0.6340
vn -0.5793 0.6330 -0.5135
vn -0.6829 0.6286 -0.3721
vn -0.7504 0.6219 -0.2238
vn -0.7831 0.6174 -0.0746
vn -0.7831 0.6174 0.0746
vn -0.7504 0.6219 0.2238
vn -0.6829 0.6286 0.3721
vn -0.5793 0.6330 0.5135
vn -0.4462 0.6317 0.6340
vn -0.2996 0.6257 0.7202
vn -0.1500 0.6198 0.7703
vn -0.0000 0.6174 0.7866
vn 0.1500 0.6198 0.7703
vn 0.2996 0.6257 0.7202
vn 0.4462 0.6317 0.6340
vn 0.5793 0.6330 0.5135
vn 0.6829 0.6286 0.3721
vn 0.7504 0.6219 0.2238
vn 0.7831 0.6174 0.0746
vn 0.7831 0.6174 -0.0746
vn 0.7504 0.6219 -0.2238
vn 0.6829 0.6286 -0.3721
vn 0.5793 0.6330 -0.5135
vn 0.4462 0.6317 -0.6340
vn 0.2996 0.6257 -0.7202
vn 0.1500 0.6198 -0.7703
vn 0.0000 0.4947 -0.8691
vn -0.1663 0.4952 -0.8527
vn -0.3349 0.4967 -0.8007
vn -0.5007 0.4980 -0.7080
vn -0.6476 0.4984 -0.5764
vn -0.7602 0.4977 -0.4176
vn -0.8316 0.4962 -0.2493
vn -0.8648 0.4953 -0.0826
vn -0.8648 0.4953 0.0826
vn -0.8316 0.4962 0.2493
vn -0.7602 0.4977 0.4176
vn -0.6476 0.4984 0.5764
vn -0.5007 0.4980 0.7080
vn -0.3349 0.4967 0.8007
vn -0.1663 0.4952 0.8527
vn -0.0000 0.4947 0.8691
vn 0.1663 0.4952 0.8527
vn 0.3349 0.4967 0.8007
vn 0.5007 0.4980 0.7080
vn 0.6476 0.4984 0.5764
vn 0.7602 0.4977 0.4176
vn 0.8316 0.4962 0.2493
vn 0.8648 0.4953 0.0826
vn 0.8648 0.4953 -0.0826
vn 0.8316 0.4962 -0.2493
vn 0.7602 0.4977 -0.4176
vn 0.6476 0.4984 -0.5764
vn 0.5007 0.4980 -0.7080
vn 0.3349 0.4967 -0.8007
vn 0.1663 0.4952 -0.8527
vn 0.0000 0.3689 -0.9295
vn -0.1867 0.3667 -0.9114
vn -0.3712 0.3620 -0.8551
vn -0.5450 0.3587 -0.7578
vn -0.6951 0.3583 -0.6233
vn -0.8116 0.3605 -0.4597
vn -0.8880 0.3654 -0.2791
vn -0.9246 0.3695 -0.0932
vn -0.9246 0.3695 0.0932
vn -0.8880 0.3654 0.2791
vn -0.8116 0.3605 0.4597
vn -0.6951 0.3583 0.6233
vn -0.5450 0.3587 0.7578
vn -0.3712 0.3620 0.8551
vn -0.1867 0.3667 0.9114
vn -0.0000 0.3689 0.9295
vn 0.1867 0.3667 0.9114
vn 0.3712 0.3620 0.8551
vn 0.5450 0.3587 0.7578
vn 0.6951 0.3583 0.6233
vn 0.8116 0.3605 0.4597
vn 0.8880 0.3654 0.2791
vn 0.9246 0.3695 0.0932
vn 0.9246 0.3695 -0.0932
vn 0.8880 0.3654 -0.2791
vn 0.8116 0.3605 -0.4597
vn 0.6951 0.3583 -0.6233
vn 0.5450 0.3587 -0.7578
vn 0.3712 0.3620 -0.8551
vn 0.1867 0.3667 -0.9114
vn 0.0000 0.2215 -0.9752
vn -0.2036 0.2190 -0.9543
vn -0.3980 0.2139 -0.8921
vn -0.5748 0.2109 -0.7906
vn -0.7264 0.2105 -0.6542
vn -0.8460 0.2124 -0.4891
vn -0.9281 0.2171 -0.3025
vn -0.9697 0.2216 -0.1024
vn -0.9697 0.2216 0.1024
vn -0.9281 0.2171 0.3025
vn -0.8460 0.2124 0.4891
vn -0.7264 0.2105 0.6542
vn -0.5748 0.2109 0.7906
vn -0.3980 0.2139 0.8921
vn -0.2036 0.2190 0.9543
vn -0.0000 0.2215 0.9752
vn 0.2036 0.2190 0.9543
vn 0.3980 0.2139 0.8921
vn 0.5748 0.2109 0.7906
vn 0.7264 0.2105 0.6542
vn 0.8460 0.2124 0.4891
vn 0.9281 0.2171 0.3025
vn 0.9697 0.2216 0.1024
vn 0.9697 0.2216 -0.1024
vn 0.9281 0.2171 -0.3025
vn 0.8460 0.2124 -0.4891
vn 0.7264 0.2105 -0.6542
vn 0.5748 0.2109 -0.7906
vn 0.3980 0.2139 -0.8921
vn 0.2036 0.2190 -0.9543
vn 0.0000 0.0867 -0.9962
vn -0.2096 0.0861 -0.9740
vn -0.4073 0.0850 -0.9093
vn -0.5862 0.0842 -0.8058
vn -0.7404 0.0841 -0.6669
vn -0.8622 0.0845 -0.4995
vn -0.9467 0.0857 -0.3107
vn -0.9906 0.0867 -0.1057
vn -0.9906 0.0867 0.1057
vn -0.9467 0.0857 0.3107
vn -0.8622 0.0845 0.4995
vn -0.7404 0.0841 0.6669
vn -0.5862 0.0842 0.8058
vn -0.4073 0.0850 0.9093
vn -0.2096 0.0861 0.9740
vn -0.0000 0.0867 0.9962
vn 0.2096 0.0861 0.9740
vn 0.4073 0.0850 0.9093
vn 0.5862 0.0842 0.8058
vn 0.7404 0.0841 0.6669
vn 0.8622 0.0845 0.4995
vn 0.9467 0.0857 0.3107
vn 0.9906 0.0867 0.1057
vn 0.9906 0.0867 -0.1057
vn 0.9467 0.0857 -0.3107
vn 0.8622 0.0845 -0.4995
vn 0.7404 0.0841 -0.6669
vn 0.5862 0.0842 -0.8058
vn 0.4073 0.0850 -0.9093
vn 0.2096 0.0861 -0.9740
vn -0.0000 -0.0631 -0.9980
vn -0.2081 -0.0627 -0.9761
vn -0.4061 -0.0624 -0.9117
vn -0.5864 -0.0630 -0.8076
vn -0.7418 -0.0632 -0.6677
vn -0.8644 -0.0626 -0.4989
vn -0.9490 -0.0625 -0.3090
vn -0.9925 -0.0631 -0.1047
vn -0.9925 -0.0631 0.1047
vn -0.9490 -0.0625 0.3090
vn -0.8644 -0.0626 0.4989
vn -0.7418 -0.0632 0.6677
vn -0.5864 -0.0630 0.8076
vn -0.4061 -0.0624 0.9117
vn -0.2081 -0.0627 0.9761
vn -0.0000 -0.0631 0.9980
vn 0.2081 -0.0627 0.9761
vn 0.4061 -0.0624 0.9117
vn 0.5864 -0.0630 0.8076
vn 0.7418 -0.0632 0.6677
vn 0.8644 -0.0626 0.4989
vn 0.9490 -0.0625 0.3090
vn 0.9925 -0.0631 0.1047
vn 0.9925 -0.0631 -0.1047
vn 0.9490 -0.0625 -0.3090
vn 0.8644 -0.0626 -0.4989
vn 0.7418 -0.0632 -0.6677
vn 0.5864 -0.0630 -0.8076
vn 0.4061 -0.0624 -0.9117
vn 0.2081 -0.0627 -0.9761
vn 0.0000 -0.2625 -0.9649
vn -0.2006 -0.2624 -0.9439
vn -0.3924 -0.2624 -0.8815
vn -0.5671 -0.2629 -0.7806
vn -0.7170 -0.2631 -0.6455
vn -0.8357 -0.2626 -0.4824
vn -0.9177 -0.2624 -0.2982
vn -0.9596 -0.2625 -0.1009
vn -0.9596 -0.2625 0.1009
vn -0.9177 -0.2624 0.2982
vn -0.8357 -0.2626 0.4824
vn -0.7170 -0.2631 0.6455
vn -0.5671 -0.2629 0.7806
vn -0.3924 -0.2624 0.8815
vn -0.2006 -0.2624 0.9439
vn -0.0000 -0.2625 0.9649
vn 0.2006 -0.2624 0.9439
vn 0.3924 -0.2624 0.8815
vn 0.5671 -0.2629 0.7806
vn 0.7170 -0.2631 0.6456
vn 0.8357 -0.2626 0.4824
vn 0.9177 -0.2624 0.2982
vn 0.9596 -0.2625 0.1009
vn 0.9596 -0.2625 -0.1009
vn 0.9177 -0.2624 -0.2982
vn 0.8357 -0.2626 -0.4824
vn 0.7170 -0.2631 -0.6455
vn 0.5671 -0.2629 -0.7806
vn 0.3924 -0.2624 -0.8815
vn 0.2006 -0.2624 -0.9439
vn 0.0000 -0.4667 -0.8844
vn -0.1839 -0.4667 -0.8651
vn -0.3597 -0.4667 -0.8079
vn -0.5198 -0.4668 -0.7155
vn -0.6572 -0.4668 -0.5918
vn -0.7659 -0.4667 -0.4422
vn -0.8411 -0.4667 -0.2733
vn -0.8796 -0.4667 -0.0924
vn -0.8796 -0.4667 0.0924
vn -0.8411 -0.4667 0.2733
vn -0.7659 -0.4667 0.4422
vn -0.6572 -0.4668 0.5918
vn -0.5198 -0.4668 0.7155
vn -0.3597 -0.4667 0.8079
vn -0.1839 -0.4667 0.8651
vn -0.0000 -0.4667 0.8844
vn 0.1839 -0.4667 0.8651
vn 0.3597 -0.4667 0.8079
vn 0.5198 -0.4668 0.7155
vn 0.6572 -0.4668 0.5918
vn 0.7659 -0.4667 0.4422
vn 0.8411 -0.4667 0.2733
vn 0.8796 -0.4667 0.0924
vn 0.8796 -0.4667 -0.0924
vn 0.8411 -0.4667 -0.2733
vn 0.7659 -0.4667 -0.4422
vn 0.6572 -0.4668 -0.5918
vn 0.5198 -0.4668 -0.7155
vn 0.3597 -0.4667 -0.8079
vn 0.1839 -0.4667 -0.8651
vn 0.0000 -0.6394 -0.7689
vn -0.1599 -0.6394 -0.7521
vn -0.3127 -0.6394 -0.7024
vn -0.4520 -0.6394 -0.6221
vn -0.5714 -0.6394 -0.5145
vn -0.6659 -0.6394 -0.3845
vn -0.7313 -0.6394 -0.2376
vn -0.7647 -0.6394 -0.0804
vn -0.7647 -0.6394 0.0804
vn -0.7313 -0.6394 0.2376
vn -0.6659 -0.6394 0.3845
vn -0.5714 -0.6394 0.5145
vn -0.4520 -0.6394 0.6221
vn -0.3127 -0.6394 0.7024
vn -0.1599 -0.6394 0.7521
vn -0.0000 -0.6394 0.7689
vn 0.1599 -0.6394 0.7521
vn 0.3127 -0.6394 0.7024
vn 0.4520 -0.6394 0.6221
vn 0.5714 -0.6394 0.5145
vn 0.6659 -0.6394 0.3845
vn 0.7313 -0.6394 0.2376
vn 0.7647 -0.6394 0.0804
vn 0.7647 -0.6394 -0.0804
vn 0.7313 -0.6394 -0.2376
vn 0.6659 -0.6394 -0.3845
vn 0.5714 -0.6394 -0.5145
vn 0.4520 -0.6394 -0.6221
vn 0.3127 -0.6394 -0.7024
vn 0.1599 -0.6394 -0.7521
vn 0.0000 -0.7837 -0.6212
vn -0.1291 -0.7837 -0.6076
vn -0.2526 -0.7837 -0.5675
vn -0.3651 -0.7837 -0.5025
vn -0.4616 -0.7837 -0.4156
vn -0.5379 -0.7837 -0.3106
vn -0.5908 -0.7837 -0.1919
vn -0.6178 -0.7837 -0.0649
vn -0.6178 -0.7837 0.0649
vn -0.5908 -0.7837 0.1919
vn -0.5379 -0.7837 0.3106
vn -0.4616 -0.7837 0.4156
vn -0.3651 -0.7837 0.5025
vn -0.2526 -0.7837 0.5675
vn -0.1291 -0.7837 0.6076
vn -0.0000 -0.7837 0.6212
vn 0.1291 -0.7837 0.6076
vn 0.2526 -0.7837 0.5675
vn 0.3651 -0.7837 0.5025
vn 0.4616 -0.7837 0.4156
vn 0.5379 -0.7837 0.3106
vn 0.5908 -0.7837 0.1919
vn 0.6178 -0.7837 0.0649
vn 0.6178 -0.7837 -0.0649
vn 0.5908 -0.7837 -0.1919
vn 0.5379 -0.7837 -0.3106
vn 0.4616 -0.7837 -0.4156
vn 0.3651 -0.7837 -0.5025
vn 0.2526 -0.7837 -0.5675
vn 0.1291 -0.7837 -0.6076
vn 0.0000 -0.8965 -0.4431
vn -0.0921 -0.8965 -0.4334
vn -0.1802 -0.8965 -0.4048
vn -0.2605 -0.8965 -0.3585
vn -0.3293 -0.8965 -0.2965
vn -0.3838 -0.8965 -0.2216
vn -0.4214 -0.8965 -0.1369
vn -0.4407 -0.8965 -0.0463
vn -0.4407 -0.8965 0.0463
vn -0.4214 -0.8965 0.1369
vn -0.3838 -0.8965 0.2216
vn -0.3293 -0.8965 0.2965
vn -0.2605 -0.8965 0.3585
vn -0.1802 -0.8965 0.4048
vn -0.0921 -0.8965 0.4334
vn -0.0000 -0.8965 0.4431
vn 0.0921 -0.8965 0.4334
vn 0.1802 -0.8965 0.4048
vn 0.2605 -0.8965 0.3585
vn 0.3293 -0.8965 0.2965
vn 0.3838 -0.8965 0.2216
vn 0.4214 -0.8965 0.1369
vn 0.4407 -0.8965 0.0463
vn 0.4407 -0.8965 -0.0463
vn 0.4214 -0.8965 -0.1369
vn 0.3838 -0.8965 -0.2216
vn 0.3293 -0.8965 -0.2965
vn 0.2605 -0.8965 -0.3585
vn 0.1802 -0.8965 -0.4048
vn 0.0921 -0.8965 -0.4334
vn 0.0000 -0.9718 -0.2357
vn -0.0490 -0.9718 -0.2305
vn -0.0959 -0.9718 -0.2153
vn -0.1385 -0.9718 -0.1907
vn -0.1752 -0.9718 -0.1577
vn -0.2041 -0.9718 -0.1178
vn -0.2242 -0.9718 -0.0728
vn -0.2344 -0.9718 -0.0246
vn -0.2344 -0.9718 0.0246
vn -0.2242 -0.9718 0.0728
vn -0.2041 -0.9718 0.1178
vn -0.1752 -0.9718 0.1577
vn -0.1385 -0.9718 0.1907
vn -0.0959 -0.9718 0.2153
vn -0.0490 -0.9718 0.2305
vn -0.0000 -0.9718 0.2357
vn 0.0490 -0.9718 0.2305
vn 0.0959 -0.9718 0.2153
vn 0.1385 -0.9718 0.1907
vn 0.1752 -0.9718 0.1577
vn 0.2041 -0.9718 0.1178
vn 0.2242 -0.9718 0.0728
vn 0.2344 -0.9718 0.0246
vn 0.2344 -0.9718 -0.0246
vn 0.2242 -0.9718 -0.0728
vn 0.2041 -0.9718 -0.1178
vn 0.1752 -0.9718 -0.1577
vn 0.1385 -0.9718 -0.1907
vn 0.0959 -0.9718 -0.2153
vn 0.0490 -0.9718 -0.2305
vn -0.0000 -1.0000 0.0000
# 422 vertex normals

vt 0.0466 0.5546 0.0036
vt 0.0466 0.6012 -0.0036
vt 0.0369 0.6002 -0.0036
vt 0.0275 0.5972 -0.0036
vt 0.0191 0.5923 -0.0036
vt 0.0118 0.5858 -0.0036
vt 0.0060 0.5779 -0.0036
vt 0.0020 0.5690 -0.0036
vt 0.0000 0.5594 -0.0036
vt 0.0000 0.5497 -0.0036
vt 0.0020 0.5402 -0.0036
vt 0.0060 0.5313 -0.0036
vt 0.0118 0.5234 -0.0036
vt 0.0191 0.5169 -0.0036
vt 0.0275 0.5120 -0.0036
vt 0.0369 0.5090 -0.0036
vt 0.0466 0.5080 -0.0036
vt 0.0564 0.5090 -0.0036
vt 0.0657 0.5120 -0.0036
vt 0.0742 0.5169 -0.0036
vt 0.0814 0.5234 -0.0036
vt 0.0872 0.5313 -0.0036
vt 0.0912 0.5402 -0.0036
vt 0.0932 0.5497 -0.0036
vt 0.0932 0.5594 -0.0036
vt 0.0912 0.5690 -0.0036
vt 0.0872 0.5779 -0.0036
vt 0.0814 0.5858 -0.0036
vt 0.0742 0.5923 -0.0036
vt 0.0657 0.5972 -0.0036
vt 0.0564 0.6002 -0.0036
vt 1.0000 0.5069 0.0000
vt 0.9289 0.5069 0.0000
vt 0.9289 0.4958 0.0000
vt 1.0000 0.4958 0.0000
vt 0.9289 0.4854 0.0000
vt 1.0000 0.4854 0.0000
vt 0.9289 0.4742 0.0000
vt 1.0000 0.4742 0.0000
vt 0.9289 0.4618 0.0000
vt 1.0000 0.4618 0.0000
vt 0.9289 0.4481 0.0000
vt 1.0000 0.4481 0.0000
vt 0.9289 0.4331 0.0000
vt 1.0000 0.4331 0.0000
vt 0.9289 0.4168 0.0000
vt 1.0000 0.4168 0.0000
vt 0.9289 0.3994 0.0000
vt 1.0000 0.3994 0.0000
vt 0.9289 0.3810 0.0000
vt 1.0000 0.3810 0.0000
vt 0.9289 0.3618 0.0000
vt 1.0000 0.3618 0.0000
vt 0.9289 0.3419 0.0000
vt 1.0000 0.3419 0.0000
vt 0.9289 0.3215 0.0000
vt 1.0000 0.3215 0.0000
vt 0.9289 0.3007 0.0000
vt 1.0000 0.3007 0.0000
vt 0.9289 0.2796 0.0000
vt 1.0000 0.2796 0.0000
vt 0.9289 0.2584 0.0000
vt 1.0000 0.2584 0.0000
vt 0.9289 0.2371 0.0000
vt 1.0000 0.2371 0.0000
vt 0.9289 0.2159 0.0000
vt 1.0000 0.2159 0.0000
vt 0.9289 0.1948 0.0000
vt 1.0000 0.1948 0.0000
vt 0.9289 0.1740 0.0000
vt 1.0000 0.1740 0.0000
vt 0.9289 0.1536 0.0000
vt 1.0000 0.1536 0.0000
vt 0.9289 0.1337 0.0000
vt 1.0000 0.1337 0.0000
vt 0.9289 0.1145 0.0000
vt 1.0000 0.1145 0.0000
vt 0.9289 0.0962 0.0000
vt 1.0000 0.0962 0.0000
vt 0.9289 0.0788 0.0000
vt 1.0000 0.0788 0.0000
vt 0.9289 0.0625 0.0000
vt 1.0000 0.0625 0.0000
vt 0.9289 0.0474 0.0000
vt 1.0000 0.0474 0.0000
vt 0.9289 0.0336 0.0000
vt 1.0000 0.0336 0.0000
vt 0.9289 0.0213 0.0000
vt 1.0000 0.0213 0.0000
vt 0.9289 0.0101 0.0000
vt 1.0000 0.0101 0.0000
vt 0.9289 0.0000 0.0000
vt 1.0000 0.0000 0.0000
vt 0.8484 0.5069 0.0000
vt 0.8484 0.4958 0.0000
vt 0.8484 0.4854 0.0000
vt 0.8484 0.4742 0.0000
vt 0.8484 0.4618 0.0000
vt 0.8484 0.4481 0.0000
vt 0.8484 0.4331 0.0000
vt 0.8484 0.4168 0.0000
vt 0.8484 0.3994 0.0000
vt 0.8484 0.3810 0.0000
vt 0.8484 0.3618 0.0000
vt 0.8484 0.3419 0.0000
vt 0.8484 0.3215 0.0000
vt 0.8484 0.3007 0.0000
vt 0.8484 0.2796 0.0000
vt 0.8484 0.2584 0.0000
vt 0.8484 0.2371 0.0000
vt 0.8484 0.2159 0.0000
vt 0.8484 0.1948 0.0000
vt 0.8484 0.1740 0.0000
vt 0.8484 0.1536 0.0000
vt 0.8484 0.1337 0.0000
vt 0.8484 0.1145 0.0000
vt 0.8484 0.0962 0.0000
vt 0.8484 0.0788 0.0000
vt 0.8484 0.0625 0.0000
vt 0.8484 0.0474 0.0000
vt 0.8484 0.0336 0.0000
vt 0.8484 0.0213 0.0000
vt 0.8484 0.0101 0.0000
vt 0.8484 0.0000 0.0000
vt 0.7617 0.5069 0.0000
vt 0.7617 0.4958 0.0000
vt 0.7617 0.4854 0.0000
vt 0.7617 0.4742 0.0000
vt 0.7617 0.4618 0.0000
vt 0.7617 0.4481 0.0000
vt 0.7617 0.4331 0.0000
vt 0.7617 0.4168 0.0000
vt 0.7617 0.3994 0.0000
vt 0.7617 0.3810 0.0000
vt 0.7617 0.3618 0.0000
vt 0.7617 0.3419 0.0000
vt 0.7617 0.3215 0.0000
vt 0.7617 0.3007 0.0000
vt 0.7617 0.2796 0.0000
vt 0.7617 0.2584 0.0000
vt 0.7617 0.2371 0.0000
vt 0.7617 0.2159 0.0000
vt 0.7617 0.1948 0.0000
vt 0.7617 0.1740 0.0000
vt 0.7617 0.1536 0.0000
vt 0.7617 0.1337 0.0000
vt 0.7617 0.1145 0.0000
vt 0.7617 0.0962 0.0000
vt 0.7617 0.0788 0.0000
vt 0.7617 0.0625 0.0000
vt 0.7617 0.0474 0.0000
vt 0.7617 0.0336 0.0000
vt 0.7617 0.0213 0.0000
vt 0.7617 0.0101 0.0000
vt 0.7617 0.0000 0.0000
vt 0.6816 0.5069 0.0000
vt 0.6816 0.4958 0.0000
vt 0.6816 0.4854 0.0000
vt 0.6816 0.4742 0.0000
vt 0.6816 0.4618 0.0000
vt 0.6816 0.4481 0.0000
vt 0.6816 0.4331 0.0000
vt 0.6816 0.4168 0.0000
vt 0.6816 0.3994 0.0000
vt 0.6816 0.3810 0.0000
vt 0.6816 0.3618 0.0000
vt 0.6816 0.3419 0.0000
vt 0.6816 0.3215 0.0000
vt 0.6816 0.3007 0.0000
vt 0.6816 0.2796 0.0000
vt 0.6816 0.2584 0.0000
vt 0.6816 0.2371 0.0000
vt 0.6816 0.2159 0.0000
vt 0.6816 0.1948 0.0000
vt 0.6816 0.1740 0.0000
vt 0.6816 0.1536 0.0000
vt 0.6816 0.1337 0.0000
vt 0.6816 0.1145 0.0000
vt 0.6816 0.0962 0.0000
vt 0.6816 0.0788 0.0000
vt 0.6816 0.0625 0.0000
vt 0.6816 0.0474 0.0000
vt 0.6816 0.0336 0.0000
vt 0.6816 0.0213 0.0000
vt 0.6816 0.0101 0.0000
vt 0.6816 0.0000 0.0000
vt 0.6100 0.5069 0.0000
vt 0.6100 0.4958 0.0000
vt 0.6100 0.4854 0.0000
vt 0.6100 0.4742 0.0000
vt 0.6100 0.4618 0.0000
vt 0.6100 0.4481 0.0000
vt 0.6100 0.4331 0.0000
vt 0.6100 0.4168 0.0000
vt 0.6100 0.3994 0.0000
vt 0.6100 0.3810 0.0000
vt 0.6100 0.3618 0.0000
vt 0.6100 0.3419 0.0000
vt 0.6100 0.3215 0.0000
vt 0.6100 0.3007 0.0000
vt 0.6100 0.2796 0.0000
vt 0.6100 0.2584 0.0000
vt 0.6100 0.2371 0.0000
vt 0.6100 0.2159 0.0000
vt 0.6100 0.1948 0.0000
vt 0.6100 0.1740 0.0000
vt 0.6100 0.1536 0.0000
vt 0.6100 0.1337 0.0000
vt 0.6100 0.1145 0.0000
vt 0.6100 0.0962 0.0000
vt 0.6100 0.0788 0.0000
vt 0.6100 0.0625 0.0000
vt 0.6100 0.0474 0.0000
vt 0.6100 0.0336 0.0000
vt 0.6100 0.0213 0.0000
vt 0.6100 0.0101 0.0000
vt 0.6100 0.0000 0.0000
vt 0.5361 0.5069 0.0000
vt 0.5361 0.4958 0.0000
vt 0.5361 0.4854 0.0000
vt 0.5361 0.4742 0.0000
vt 0.5361 0.4618 0.0000
vt 0.5361 0.4481 0.0000
vt 0.5361 0.4331 0.0000
vt 0.5361 0.4168 0.0000
vt 0.5361 0.3994 0.0000
vt 0.5361 0.3810 0.0000
vt 0.5361 0.3618 0.0000
vt 0.5361 0.3419 0.0000
vt 0.5361 0.3215 0.0000
vt 0.5361 0.3007 0.0000
vt 0.5361 0.2796 0.0000
vt 0.5361 0.2584 0.0000
vt 0.5361 0.2371 0.0000
vt 0.5361 0.2159 0.0000
vt 0.5361 0.1948 0.0000
vt 0.5361 0.1740 0.0000
vt 0.5361 0.1536 0.0000
vt 0.5361 0.1337 0.0000
vt 0.5361 0.1145 0.0000
vt 0.5361 0.0962 0.0000
vt 0.5361 0.0788 0.0000
vt 0.5361 0.0625 0.0000
vt 0.5361 0.0474 0.0000
vt 0.5361 0.0336 0.0000
vt 0.5361 0.0213 0.0000
vt 0.5361 0.0101 0.0000
vt 0.5361 0.0000 0.0000
vt 0.4533 0.5069 0.0000
vt 0.4533 0.4958 0.0000
vt 0.4533 0.4854 0.0000
vt 0.4533 0.4742 0.0000
vt 0.4533 0.4618 0.0000
vt 0.4533 0.4481 0.0000
vt 0.4533 0.4331 0.0000
vt 0.4533 0.4168 0.0000
vt 0.4533 0.3994 0.0000
vt 0.4533 0.3810 0.0000
vt 0.4533 0.3618 0.0000
vt 0.4533 0.3419 0.0000
vt 0.4533 0.3215 0.0000
vt 0.4533 0.3007 0.0000
vt 0.4533 0.2796 0.0000
vt 0.4533 0.2584 0.0000
vt 0.4533 0.2371 0.0000
vt 0.4533 0.2159 0.0000
vt 0.4533 0.1948 0.0000
vt 0.4533 0.1740 0.0000
vt 0.4533 0.1536 0.0000
vt 0.4533 0.1337 0.0000
vt 0.4533 0.1145 0.0000
vt 0.4533 0.0962 0.0000
vt 0.4533 0.0788 0.0000
vt 0.4533 0.0625 0.0000
vt 0.4533 0.0474 0.0000
vt 0.4533 0.0336 0.0000
vt 0.4533 0.0213 0.0000
vt 0.4533 0.0101 0.0000
vt 0.4533 0.0000 0.0000
vt 0.3672 0.5069 0.0000
vt 0.3672 0.4958 0.0000
vt 0.3672 0.4854 0.0000
vt 0.3672 0.4742 0.0000
vt 0.3672 0.4618 0.0000
vt 0.3672 0.4481 0.0000
vt 0.3672 0.4331 0.0000
vt 0.3672 0.4168 0.0000
vt 0.3672 0.3994 0.0000
vt 0.3672 0.3810 0.0000
vt 0.3672 0.3618 0.0000
vt 0.3672 0.3419 0.0000
vt 0.3672 0.3215 0.0000
vt 0.3672 0.3007 0.0000
vt 0.3672 0.2796 0.0000
vt 0.3672 0.2584 0.0000
vt 0.3672 0.2371 0.0000
vt 0.3672 0.2159 0.0000
vt 0.3672 0.1948 0.0000
vt 0.3672 0.1740 0.0000
vt 0.3672 0.1536 0.0000
vt 0.3672 0.1337 0.0000
vt 0.3672 0.1145 0.0000
vt 0.3672 0.0962 0.0000
vt 0.3672 0.0788 0.0000
vt 0.3672 0.0625 0.0000
vt 0.3672 0.0474 0.0000
vt 0.3672 0.0336 0.0000
vt 0.3672 0.0213 0.0000
vt 0.3672 0.0101 0.0000
vt 0.3672 0.0000 0.0000
vt 0.2853 0.5069 0.0000
vt 0.2853 0.4958 0.0000
vt 0.2853 0.4854 0.0000
vt 0.2853 0.4742 0.0000
vt 0.2853 0.4618 0.0000
vt 0.2853 0.4481 0.0000
vt 0.2853 0.4331 0.0000
vt 0.2853 0.4168 0.0000
vt 0.2853 0.3994 0.0000
vt 0.2853 0.3810 0.0000
vt 0.2853 0.3618 0.0000
vt 0.2853 0.3419 0.0000
vt 0.2853 0.3215 0.0000
vt 0.2853 0.3007 0.0000
vt 0.2853 0.2796 0.0000
vt 0.2853 0.2584 0.0000
vt 0.2853 0.2371 0.0000
vt 0.2853 0.2159 0.0000
vt 0.2853 0.1948 0.0000
vt 0.2853 0.1740 0.0000
vt 0.2853 0.1536 0.0000
vt 0.2853 0.1337 0.0000
vt 0.2853 0.1145 0.0000
vt 0.2853 0.0962 0.0000
vt 0.2853 0.0788 0.0000
vt 0.2853 0.0625 0.0000
vt 0.2853 0.0474 0.0000
vt 0.2853 0.0336 0.0000
vt 0.2853 0.0213 0.0000
vt 0.2853 0.0101 0.0000
vt 0.2853 0.0000 0.0000
vt 0.2081 0.5069 0.0000
vt 0.2081 0.4958 0.0000
vt 0.2081 0.4854 0.0000
vt 0.2081 0.4742 0.0000
vt 0.2081 0.4618 0.0000
vt 0.2081 0.4481 0.0000
vt 0.2081 0.4331 0.0000
vt 0.2081 0.4168 0.0000
vt 0.2081 0.3994 0.0000
vt 0.2081 0.3810 0.0000
vt 0.2081 0.3618 0.0000
vt 0.2081 0.3419 0.0000
vt 0.2081 0.3215 0.0000
vt 0.2081 0.3007 0.0000
vt 0.2081 0.2796 0.0000
vt 0.2081 0.2584 0.0000
vt 0.2081 0.2371 0.0000
vt 0.2081 0.2159 0.0000
vt 0.2081 0.1948 0.0000
vt 0.2081 0.1740 0.0000
vt 0.2081 0.1536 0.0000
vt 0.2081 0.1337 0.0000
vt 0.2081 0.1145 0.0000
vt 0.2081 0.0962 0.0000
vt 0.2081 0.0788 0.0000
vt 0.2081 0.0625 0.0000
vt 0.2081 0.0474 0.0000
vt 0.2081 0.0336 0.0000
vt 0.2081 0.0213 0.0000
vt 0.2081 0.0101 0.0000
vt 0.2081 0.0000 0.0000
vt 0.1339 0.5069 0.0000
vt 0.1339 0.4958 0.0000
vt 0.1339 0.4854 0.0000
vt 0.1339 0.4742 0.0000
vt 0.1339 0.4618 0.0000
vt 0.1339 0.4481 0.0000
vt 0.1339 0.4331 0.0000
vt 0.1339 0.4168 0.0000
vt 0.1339 0.3994 0.0000
vt 0.1339 0.3810 0.0000
vt 0.1339 0.3618 0.0000
vt 0.1339 0.3419 0.0000
vt 0.1339 0.3215 0.0000
vt 0.1339 0.3007 0.0000
vt 0.1339 0.2796 0.0000
vt 0.1339 0.2584 0.0000
vt 0.1339 0.2371 0.0000
vt 0.1339 0.2159 0.0000
vt 0.1339 0.1948 0.0000
vt 0.1339 0.1740 0.0000
vt 0.1339 0.1536 0.0000
vt 0.1339 0.1337 0.0000
vt 0.1339 0.1145 0.0000
vt 0.1339 0.0962 0.0000
vt 0.1339 0.0788 0.0000
vt 0.1339 0.0625 0.0000
vt 0.1339 0.0474 0.0000
vt 0.1339 0.0336 0.0000
vt 0.1339 0.0213 0.0000
vt 0.1339 0.0101 0.0000
vt 0.1339 0.0000 0.0000
vt 0.0627 0.5069 0.0000
vt 0.0627 0.4958 0.0000
vt 0.0627 0.4854 0.0000
vt 0.0627 0.4742 0.0000
vt 0.0627 0.4618 0.0000
vt 0.0627 0.4481 0.0000
vt 0.0627 0.4331 0.0000
vt 0.0627 0.4168 0.0000
vt 0.0627 0.3994 0.0000
vt 0.0627 0.3810 0.0000
vt 0.0627 0.3618 0.0000
vt 0.0627 0.3419 0.0000
vt 0.0627 0.3215 0.0000
vt 0.0627 0.3007 0.0000
vt 0.0627 0.2796 0.0000
vt 0.0627 0.2584 0.0000
vt 0.0627 0.2371 0.0000
vt 0.0627 0.2159 0.0000
vt 0.0627 0.1948 0.0000
vt 0.0627 0.1740 0.0000
vt 0.0627 0.1536 0.0000
vt 0.0627 0.1337 0.0000
vt 0.0627 0.1145 0.0000
vt 0.0627 0.0962 0.0000
vt 0.0627 0.0788 0.0000
vt 0.0627 0.0625 0.0000
vt 0.0627 0.0474 0.0000
vt 0.0627 0.0336 0.0000
vt 0.0627 0.0213 0.0000
vt 0.0627 0.0101 0.0000
vt 0.0627 0.0000 0.0000
vt 0.0000 0.5069 0.0000
vt 0.0000 0.4958 0.0000
vt 0.0000 0.4854 0.0000
vt 0.0000 0.4742 0.0000
vt 0.0000 0.4618 0.0000
vt 0.0000 0.4481 0.0000
vt 0.0000 0.4331 0.0000
vt 0.0000 0.4168 0.0000
vt 0.0000 0.3994 0.0000
vt 0.0000 0.3810 0.0000
vt 0.0000 0.3618 0.0000
vt 0.0000 0.3419 0.0000
vt 0.0000 0.3215 0.0000
vt 0.0000 0.3007 0.0000
vt 0.0000 0.2796 0.0000
vt 0.0000 0.2584 0.0000
vt 0.0000 0.2371 0.0000
vt 0.0000 0.2159 0.0000
vt 0.0000 0.1948 0.0000
vt 0.0000 0.1740 0.0000
vt 0.0000 0.1536 0.0000
vt 0.0000 0.1337 0.0000
vt 0.0000 0.1145 0.0000
vt 0.0000 0.0962 0.0000
vt 0.0000 0.0788 0.0000
vt 0.0000 0.0625 0.0000
vt 0.0000 0.0474 0.0000
vt 0.0000 0.0336 0.0000
vt 0.0000 0.0213 0.0000
vt 0.0000 0.0101 0.0000
vt 0.0000 0.0000 0.0000
vt 0.1345 0.5478 -0.0019
vt 0.1262 0.5868 0.0019
vt 0.1345 0.5877 0.0019
vt 0.1182 0.5843 0.0019
vt 0.1110 0.5801 0.0019
vt 0.1047 0.5745 0.0019
vt 0.0998 0.5678 0.0019
vt 0.0964 0.5602 0.0019
vt 0.0946 0.5520 0.0019
vt 0.0946 0.5437 0.0019
vt 0.0964 0.5355 0.0019
vt 0.0998 0.5279 0.0019
vt 0.1047 0.5211 0.0019
vt 0.1110 0.5156 0.0019
vt 0.1182 0.5114 0.0019
vt 0.1262 0.5088 0.0019
vt 0.1345 0.5080 0.0019
vt 0.1429 0.5088 0.0019
vt 0.1508 0.5114 0.0019
vt 0.1581 0.5156 0.0019
vt 0.1643 0.5211 0.0019
vt 0.1693 0.5279 0.0019
vt 0.1727 0.5355 0.0019
vt 0.1744 0.5437 0.0019
vt 0.1744 0.5520 0.0019
vt 0.1727 0.5602 0.0019
vt 0.1693 0.5678 0.0019
vt 0.1643 0.5745 0.0019
vt 0.1581 0.5801 0.0019
vt 0.1508 0.5843 0.0019
vt 0.1429 0.5868 0.0019
# 496 texture coords

o Egg_000
g Egg_000
usemtl Egg01
s 1
f 1/1/1 2/2/2 3/3/3 
f 1/1/1 3/3/3 4/4/4 
f 1/1/1 4/4/4 5/5/5 
f 1/1/1 5/5/5 6/6/6 
f 1/1/1 6/6/6 7/7/7 
f 1/1/1 7/7/7 8/8/8 
f 1/1/1 8/8/8 9/9/9 
f 1/1/1 9/9/9 10/10/10 
f 1/1/1 10/10/10 11/11/11 
f 1/1/1 11/11/11 12/12/12 
f 1/1/1 12/12/12 13/13/13 
f 1/1/1 13/13/13 14/14/14 
f 1/1/1 14/14/14 15/15/15 
f 1/1/1 15/15/15 16/16/16 
f 1/1/1 16/16/16 17/17/17 
f 1/1/1 17/17/17 18/18/18 
f 1/1/1 18/18/18 19/19/19 
f 1/1/1 19/19/19 20/20/20 
f 1/1/1 20/20/20 21/21/21 
f 1/1/1 21/21/21 22/22/22 
f 1/1/1 22/22/22 23/23/23 
f 1/1/1 23/23/23 24/24/24 
f 1/1/1 24/24/24 25/25/25 
f 1/1/1 25/25/25 26/26/26 
f 1/1/1 26/26/26 27/27/27 
f 1/1/1 27/27/27 28/28/28 
f 1/1/1 28/28/28 29/29/29 
f 1/1/1 29/29/29 30/30/30 
f 1/1/1 30/30/30 31/31/31 
f 1/1/1 31/31/31 2/2/2 
f 2/32/2 32/33/32 33/34/33 3/35/3 
f 3/35/3 33/34/33 34/36/34 4/37/4 
f 4/37/4 34/36/34 35/38/35 5/39/5 
f 5/39/5 35/38/35 36/40/36 6/41/6 
f 6/41/6 36/40/36 37/42/37 7/43/7 
f 7/43/7 37/42/37 38/44/38 8/45/8 
f 8/45/8 38/44/38 39/46/39 9/47/9 
f 9/47/9 39/46/39 40/48/40 10/49/10 
f 10/49/10 40/48/40 41/50/41 11/51/11 
f 11/51/11 41/50/41 42/52/42 12/53/12 
f 12/53/12 42/52/42 43/54/43 13/55/13 
f 13/55/13 43/54/43 44/56/44 14/57/14 
f 14/57/14 44/56/44 45/58/45 15/59/15 
f 15/59/15 45/58/45 46/60/46 16/61/16 
f 16/61/16 46/60/46 47/62/47 17/63/17 
f 17/63/17 47/62/47 48/64/48 18/65/18 
f 18/65/18 48/64/48 49/66/49 19/67/19 
f 19/67/19 49/66/49 50/68/50 20/69/20 
f 20/69/20 50/68/50 51/70/51 21/71/21 
f 21/71/21 51/70/51 52/72/52 22/73/22 
f 22/73/22 52/72/52 53/74/53 23/75/23 
f 23/75/23 53/74/53 54/76/54 24/77/24 
f 24/77/24 54/76/54 55/78/55 25/79/25 
f 25/79/25 55/78/55 56/80/56 26/81/26 
f 26/81/26 56/80/56 57/82/57 27/83/27 
f 27/83/27 57/82/57 58/84/58 28/85/28 
f 28/85/28 58/84/58 59/86/59 29/87/29 
f 29/87/29 59/86/59 60/88/60 30/89/30 
f 30/89/30 60/88/60 61/90/61 31/91/31 
f 31/91/31 61/90/61 32/92/32 2/93/2 
f 32/33/32 62/94/62 63/95/63 33/34/33 
f 33/34/33 63/95/63 64/96/64 34/36/34 
f 34/36/34 64/96/64 65/97/65 35/38/35 
f 35/38/35 65/97/65 66/98/66 36/40/36 
f 36/40/36 66/98/66 67/99/67 37/42/37 
f 37/42/37 67/99/67 68/100/68 38/44/38 
f 38/44/38 68/100/68 69/101/69 39/46/39 
f 39/46/39 69/101/69 70/102/70 40/48/40 
f 40/48/40 70/102/70 71/103/71 41/50/41 
f 41/50/41 71/103/71 72/104/72 42/52/42 
f 42/52/42 72/104/72 73/105/73 43/54/43 
f 43/54/43 73/105/73 74/106/74 44/56/44 
f 44/56/44 74/106/74 75/107/75 45/58/45 
f 45/58/45 75/107/75 76/108/76 46/60/46 
f 46/60/46 76/108/76 77/109/77 47/62/47 
f 47/62/47 77/109/77 78/110/78 48/64/48 
f 48/64/48 78/110/78 79/111/79 49/66/49 
f 49/66/49 79/111/79 80/112/80 50/68/50 
f 50/68/50 80/112/80 81/113/81 51/70/51 
f 51/70/51 81/113/81 82/114/82 52/72/52 
f 52/72/52 82/114/82 83/115/83 53/74/53 
f 53/74/53 83/115/83 84/116/84 54/76/54 
f 54/76/54 84/116/84 85/117/85 55/78/55 
f 55/78/55 85/117/85 86/118/86 56/80/56 
f 56/80/56 86/118/86 87/119/87 57/82/57 
f 57/82/57 87/119/87 88/120/88 58/84/58 
f 58/84/58 88/120/88 89/121/89 59/86/59 
f 59/86/59 89/121/89 90/122/90 60/88/60 
f 60/88/60 90/122/90 91/123/91 61/90/61 
f 61/90/61 91/123/91 62/124/62 32/92/32 
f 62/94/62 92/125/92 93/126/93 63/95/63 
f 63/95/63 93/126/93 94/127/94 64/96/64 
f 64/96/64 94/127/94 95/128/95 65/97/65 
f 65/97/65 95/128/95 96/129/96 66/98/66 
f 66/98/66 96/129/96 97/130/97 67/99/67 
f 67/99/67 97/130/97 98/131/98 68/100/68 
f 68/100/68 98/131/98 99/132/99 69/101/69 
f 69/101/69 99/132/99 100/133/100 70/102/70 
f 70/102/70 100/133/100 101/134/101 71/103/71 
f 71/103/71 101/134/101 102/135/102 72/104/72 
f 72/104/72 102/135/102 103/136/103 73/105/73 
f 73/105/73 103/136/103 104/137/104 74/106/74 
f 74/106/74 104/137/104 105/138/105 75/107/75 
f 75/107/75 105/138/105 106/139/106 76/108/76 
f 76/108/76 106/139/106 107/140/107 77/109/77 
f 77/109/77 107/140/107 108/141/108 78/110/78 
f 78/110/78 108/141/108 109/142/109 79/111/79 
f 79/111/79 109/142/109 110/143/110 80/112/80 
f 80/112/80 110/143/110 111/144/111 81/113/81 
f 81/113/81 111/144/111 112/145/112 82/114/82 
f 82/114/82 112/145/112 113/146/113 83/115/83 
f 83/115/83 113/146/113 114/147/114 84/116/84 
f 84/116/84 114/147/114 115/148/115 85/117/85 
f 85/117/85 115/148/115 116/149/116 86/118/86 
f 86/118/86 116/149/116 117/150/117 87/119/87 
f 87/119/87 117/150/117 118/151/118 88/120/88 
f 88/120/88 118/151/118 119/152/119 89/121/89 
f 89/121/89 119/152/119 120/153/120 90/122/90 
f 90/122/90 120/153/120 121/154/121 91/123/91 
f 91/123/91 121/154/121 92/155/92 62/124/62 
f 92/125/92 122/156/122 123/157/123 93/126/93 
f 93/126/93 123/157/123 124/158/124 94/127/94 
f 94/127/94 124/158/124 125/159/125 95/128/95 
f 95/128/95 125/159/125 126/160/126 96/129/96 
f 96/129/96 126/160/126 127/161/127 97/130/97 
f 97/130/97 127/161/127 128/162/128 98/131/98 
f 98/131/98 128/162/128 129/163/129 99/132/99 
f 99/132/99 129/163/129 130/164/130 100/133/100 
f 100/133/100 130/164/130 131/165/131 101/134/101 
f 101/134/101 131/165/131 132/166/132 102/135/102 
f 102/135/102 132/166/132 133/167/133 103/136/103 
f 103/136/103 133/167/133 134/168/134 104/137/104 
f 104/137/104 134/168/134 135/169/135 105/138/105 
f 105/138/105 135/169/135 136/170/136 106/139/106 
f 106/139/106 136/170/136 137/171/137 107/140/107 
f 107/140/107 137/171/137 138/172/138 108/141/108 
f 108/141/108 138/172/138 139/173/139 109/142/109 
f 109/142/109 139/173/139 140/174/140 110/143/110 
f 110/143/110 140/174/140 141/175/141 111/144/111 
f 111/144/111 141/175/141 142/176/142 112/145/112 
f 112/145/112 142/176/142 143/177/143 113/146/113 
f 113/146/113 143/177/143 144/178/144 114/147/114 
f 114/147/114 144/178/144 145/179/145 115/148/115 
f 115/148/115 145/179/145 146/180/146 116/149/116 
f 116/149/116 146/180/146 147/181/147 117/150/117 
f 117/150/117 147/181/147 148/182/148 118/151/118 
f 118/151/118 148/182/148 149/183/149 119/152/119 
f 119/152/119 149/183/149 150/184/150 120/153/120 
f 120/153/120 150/184/150 151/185/151 121/154/121 
f 121/154/121 151/185/151 122/186/122 92/155/92 
f 122/156/122 152/187/152 153/188/153 123/157/123 
f 123/157/123 153/188/153 154/189/154 124/158/124 
f 124/158/124 154/189/154 155/190/155 125/159/125 
f 125/159/125 155/190/155 156/191/156 126/160/126 
f 126/160/126 156/191/156 157/192/157 127/161/127 
f 127/161/127 157/192/157 158/193/158 128/162/128 
f 128/162/128 158/193/158 159/194/159 129/163/129 
f 129/163/129 159/194/159 160/195/160 130/164/130 
f 130/164/130 160/195/160 161/196/161 131/165/131 
f 131/165/131 161/196/161 162/197/162 132/166/132 
f 132/166/132 162/197/162 163/198/163 133/167/133 
f 133/167/133 163/198/163 164/199/164 134/168/134 
f 134/168/134 164/199/164 165/200/165 135/169/135 
f 135/169/135 165/200/165 166/201/166 136/170/136 
f 136/170/136 166/201/166 167/202/167 137/171/137 
f 137/171/137 167/202/167 168/203/168 138/172/138 
f 138/172/138 168/203/168 169/204/169 139/173/139 
f 139/173/139 169/204/169 170/205/170 140/174/140 
f 140/174/140 170/205/170 171/206/171 141/175/141 
f 141/175/141 171/206/171 172/207/172 142/176/142 
f 142/176/142 172/207/172 173/208/173 143/177/143 
f 143/177/143 173/208/173 174/209/174 144/178/144 
f 144/178/144 174/209/174 175/210/175 145/179/145 
f 145/179/145 175/210/175 176/211/176 146/180/146 
f 146/180/146 176/211/176 177/212/177 147/181/147 
f 147/181/147 177/212/177 178/213/178 148/182/148 
f 148/182/148 178/213/178 179/214/179 149/183/149 
f 149/183/149 179/214/179 180/215/180 150/184/150 
f 150/184/150 180/215/180 181/216/181 151/185/151 
f 151/185/151 181/216/181 152/217/152 122/186/122 
f 152/187/152 182/218/182 183/219/183 153/188/153 
f 153/188/153 183/219/183 184/220/184 154/189/154 
f 154/189/154 184/220/184 185/221/185 155/190/155 
f 155/190/155 185/221/185 186/222/186 156/191/156 
f 156/191/156 186/222/186 187/223/187 157/192/157 
f 157/192/157 187/223/187 188/224/188 158/193/158 
f 158/193/158 188/224/188 189/225/189 159/194/159 
f 159/194/159 189/225/189 190/226/190 160/195/160 
f 160/195/160 190/226/190 191/227/191 161/196/161 
f 161/196/161 191/227/191 192/228/192 162/197/162 
f 162/197/162 192/228/192 193/229/193 163/198/163 
f 163/198/163 193/229/193 194/230/194 164/199/164 
f 164/199/164 194/230/194 195/231/195 165/200/165 
f 165/200/165 195/231/195 196/232/196 166/201/166 
f 166/201/166 196/232/196 197/233/197 167/202/167 
f 167/202/167 197/233/197 198/234/198 168/203/168 
f 168/203/168 198/234/198 199/235/199 169/204/169 
f 169/204/169 199/235/199 200/236/200 170/205/170 
f 170/205/170 200/236/200 201/237/201 171/206/171 
f 171/206/171 201/237/201 202/238/202 172/207/172 
f 172/207/172 202/238/202 203/239/203 173/208/173 
f 173/208/173 203/239/203 204/240/204 174/209/174 
f 174/209/174 204/240/204 205/241/205 175/210/175 
f 175/210/175 205/241/205 206/242/206 176/211/176 
f 176/211/176 206/242/206 207/243/207 177/212/177 
f 177/212/177 207/243/207 208/244/208 178/213/178 
f 178/213/178 208/244/208 209/245/209 179/214/179 
f 179/214/179 209/245/209 210/246/210 180/215/180 
f 180/215/180 210/246/210 211/247/211 181/216/181 
f 181/216/181 211/247/211 182/248/182 152/217/152 
f 182/218/182 212/249/212 213/250/213 183/219/183 
f 183/219/183 213/250/213 214/251/214 184/220/184 
f 184/220/184 214/251/214 215/252/215 185/221/185 
f 185/221/185 215/252/215 216/253/216 186/222/186 
f 186/222/186 216/253/216 217/254/217 187/223/187 
f 187/223/187 217/254/217 218/255/218 188/224/188 
f 188/224/188 218/255/218 219/256/219 189/225/189 
f 189/225/189 219/256/219 220/257/220 190/226/190 
f 190/226/190 220/257/220 221/258/221 191/227/191 
f 191/227/191 221/258/221 222/259/222 192/228/192 
f 192/228/192 222/259/222 223/260/223 193/229/193 
f 193/229/193 223/260/223 224/261/224 194/230/194 
f 194/230/194 224/261/224 225/262/225 195/231/195 
f 195/231/195 225/262/225 226/263/226 196/232/196 
f 196/232/196 226/263/226 227/264/227 197/233/197 
f 197/233/197 227/264/227 228/265/228 198/234/198 
f 198/234/198 228/265/228 229/266/229 199/235/199 
f 199/235/199 229/266/229 230/267/230 200/236/200 
f 200/236/200 230/267/230 231/268/231 201/237/201 
f 201/237/201 231/268/231 232/269/232 202/238/202 
f 202/238/202 232/269/232 233/270/233 203/239/203 
f 203/239/203 233/270/233 234/271/234 204/240/204 
f 204/240/204 234/271/234 235/272/235 205/241/205 
f 205/241/205 235/272/235 236/273/236 206/242/206 
f 206/242/206 236/273/236 237/274/237 207/243/207 
f 207/243/207 237/274/237 238/275/238 208/244/208 
f 208/244/208 238/275/238 239/276/239 209/245/209 
f 209/245/209 239/276/239 240/277/240 210/246/210 
f 210/246/210 240/277/240 241/278/241 211/247/211 
f 211/247/211 241/278/241 212/279/212 182/248/182 
f 212/249/212 242/280/242 243/281/243 213/250/213 
f 213/250/213 243/281/243 244/282/244 214/251/214 
f 214/251/214 244/282/244 245/283/245 215/252/215 
f 215/252/215 245/283/245 246/284/246 216/253/216 
f 216/253/216 246/284/246 247/285/247 217/254/217 
f 217/254/217 247/285/247 248/286/248 218/255/218 
f 218/255/218 248/286/248 249/287/249 219/256/219 
f 219/256/219 249/287/249 250/288/250 220/257/220 
f 220/257/220 250/288/250 251/289/251 221/258/221 
f 221/258/221 251/289/251 252/290/252 222/259/222 
f 222/259/222 252/290/252 253/291/253 223/260/223 
f 223/260/223 253/291/253 254/292/254 224/261/224 
f 224/261/224 254/292/254 255/293/255 225/262/225 
f 225/262/225 255/293/255 256/294/256 226/263/226 
f 226/263/226 256/294/256 257/295/257 227/264/227 
f 227/264/227 257/295/257 258/296/258 228/265/228 
f 228/265/228 258/296/258 259/297/259 229/266/229 
f 229/266/229 259/297/259 260/298/260 230/267/230 
f 230/267/230 260/298/260 261/299/261 231/268/231 
f 231/268/231 261/299/261 262/300/262 232/269/232 
f 232/269/232 262/300/262 263/301/263 233/270/233 
f 233/270/233 263/301/263 264/302/264 234/271/234 
f 234/271/234 264/302/264 265/303/265 235/272/235 
f 235/272/235 265/303/265 266/304/266 236/273/236 
f 236/273/236 266/304/266 267/305/267 237/274/237 
f 237/274/237 267/305/267 268/306/268 238/275/238 
f 238/275/238 268/306/268 269/307/269 239/276/239 
f 239/276/239 269/307/269 270/308/270 240/277/240 
f 240/277/240 270/308/270 271/309/271 241/278/241 
f 241/278/241 271/309/271 242/310/242 212/279/212 
f 242/280/242 272/311/272 273/312/273 243/281/243 
f 243/281/243 273/312/273 274/313/274 244/282/244 
f 244/282/244 274/313/274 275/314/275 245/283/245 
f 245/283/245 275/314/275 276/315/276 246/284/246 
f 246/284/246 276/315/276 277/316/277 247/285/247 
f 247/285/247 277/316/277 278/317/278 248/286/248 
f 248/286/248 278/317/278 279/318/279 249/287/249 
f 249/287/249 279/318/279 280/319/280 250/288/250 
f 250/288/250 280/319/280 281/320/281 251/289/251 
f 251/289/251 281/320/281 282/321/282 252/290/252 
f 252/290/252 282/321/282 283/322/283 253/291/253 
f 253/291/253 283/322/283 284/323/284 254/292/254 
f 254/292/254 284/323/284 285/324/285 255/293/255 
f 255/293/255 285/324/285 286/325/286 256/294/256 
f 256/294/256 286/325/286 287/326/287 257/295/257 
f 257/295/257 287/326/287 288/327/288 258/296/258 
f 258/296/258 288/327/288 289/328/289 259/297/259 
f 259/297/259 289/328/289 290/329/290 260/298/260 
f 260/298/260 290/329/290 291/330/291 261/299/261 
f 261/299/261 291/330/291 292/331/292 262/300/262 
f 262/300/262 292/331/292 293/332/293 263/301/263 
f 263/301/263 293/332/293 294/333/294 264/302/264 
f 264/302/264 294/333/294 295/334/295 265/303/265 
f 265/303/265 295/334/295 296/335/296 266/304/266 
f 266/304/266 296/335/296 297/336/297 267/305/267 
f 267/305/267 297/336/297 298/337/298 268/306/268 
f 268/306/268 298/337/298 299/338/299 269/307/269 
f 269/307/269 299/338/299 300/339/300 270/308/270 
f 270/308/270 300/339/300 301/340/301 271/309/271 
f 271/309/271 301/340/301 272/341/272 242/310/242 
f 272/311/272 302/342/302 303/343/303 273/312/273 
f 273/312/273 303/343/303 304/344/304 274/313/274 
f 274/313/274 304/344/304 305/345/305 275/314/275 
f 275/314/275 305/345/305 306/346/306 276/315/276 
f 276/315/276 306/346/306 307/347/307 277/316/277 
f 277/316/277 307/347/307 308/348/308 278/317/278 
f 278/317/278 308/348/308 309/349/309 279/318/279 
f 279/318/279 309/349/309 310/350/310 280/319/280 
f 280/319/280 310/350/310 311/351/311 281/320/281 
f 281/320/281 311/351/311 312/352/312 282/321/282 
f 282/321/282 312/352/312 313/353/313 283/322/283 
f 283/322/283 313/353/313 314/354/314 284/323/284 
f 284/323/284 314/354/314 315/355/315 285/324/285 
f 285/324/285 315/355/315 316/356/316 286/325/286 
f 286/325/286 316/356/316 317/357/317 287/326/287 
f 287/326/287 317/357/317 318/358/318 288/327/288 
f 288/327/288 318/358/318 319/359/319 289/328/289 
f 289/328/289 319/359/319 320/360/320 290/329/290 
f 290/329/290 320/360/320 321/361/321 291/330/291 
f 291/330/291 321/361/321 322/362/322 292/331/292 
f 292/331/292 322/362/322 323/363/323 293/332/293 
f 293/332/293 323/363/323 324/364/324 294/333/294 
f 294/333/294 324/364/324 325/365/325 295/334/295 
f 295/334/295 325/365/325 326/366/326 296/335/296 
f 296/335/296 326/366/326 327/367/327 297/336/297 
f 297/336/297 327/367/327 328/368/328 298/337/298 
f 298/337/298 328/368/328 329/369/329 299/338/299 
f 299/338/299 329/369/329 330/370/330 300/339/300 
f 300/339/300 330/370/330 331/371/331 301/340/301 
f 301/340/301 331/371/331 302/372/302 272/341/272 
f 302/342/302 332/373/332 333/374/333 303/343/303 
f 303/343/303 333/374/333 334/375/334 304/344/304 
f 304/344/304 334/375/334 335/376/335 305/345/305 
f 305/345/305 335/376/335 336/377/336 306/346/306 
f 306/346/306 336/377/336 337/378/337 307/347/307 
f 307/347/307 337/378/337 338/379/338 308/348/308 
f 308/348/308 338/379/338 339/380/339 309/349/309 
f 309/349/309 339/380/339 340/381/340 310/350/310 
f 310/350/310 340/381/340 341/382/341 311/351/311 
f 311/351/311 341/382/341 342/383/342 312/352/312 
f 312/352/312 342/383/342 343/384/343 313/353/313 
f 313/353/313 343/384/343 344/385/344 314/354/314 
f 314/354/314 344/385/344 345/386/345 315/355/315 
f 315/355/315 345/386/345 346/387/346 316/356/316 
f 316/356/316 346/387/346 347/388/347 317/357/317 
f 317/357/317 347/388/347 348/389/348 318/358/318 
f 318/358/318 348/389/348 349/390/349 319/359/319 
f 319/359/319 349/390/349 350/391/350 320/360/320 
f 320/360/320 350/391/350 351/392/351 321/361/321 
f 321/361/321 351/392/351 352/393/352 322/362/322 
f 322/362/322 352/393/352 353/394/353 323/363/323 
f 323/363/323 353/394/353 354/395/354 324/364/324 
f 324/364/324 354/395/354 355/396/355 325/365/325 
f 325/365/325 355/396/355 356/397/356 326/366/326 
f 326/366/326 356/397/356 357/398/357 327/367/327 
f 327/367/327 357/398/357 358/399/358 328/368/328 
f 328/368/328 358/399/358 359/400/359 329/369/329 
f 329/369/329 359/400/359 360/401/360 330/370/330 
f 330/370/330 360/401/360 361/402/361 331/371/331 
f 331/371/331 361/402/361 332/403/332 302/372/302 
f 332/373/332 362/404/362 363/405/363 333/374/333 
f 333/374/333 363/405/363 364/406/364 334/375/334 
f 334/375/334 364/406/364 365/407/365 335/376/335 
f 335/376/335 365/407/365 366/408/366 336/377/336 
f 336/377/336 366/408/366 367/409/367 337/378/337 
f 337/378/337 367/409/367 368/410/368 338/379/338 
f 338/379/338 368/410/368 369/411/369 339/380/339 
f 339/380/339 369/411/369 370/412/370 340/381/340 
f 340/381/340 370/412/370 371/413/371 341/382/341 
f 341/382/341 371/413/371 372/414/372 342/383/342 
f 342/383/342 372/414/372 373/415/373 343/384/343 
f 343/384/343 373/415/373 374/416/374 344/385/344 
f 344/385/344 374/416/374 375/417/375 345/386/345 
f 345/386/345 375/417/375 376/418/376 346/387/346 
f 346/387/346 376/418/376 377/419/377 347/388/347 
f 347/388/347 377/419/377 378/420/378 348/389/348 
f 348/389/348 378/420/378 379/421/379 349/390/349 
f 349/390/349 379/421/379 380/422/380 350/391/350 
f 350/391/350 380/422/380 381/423/381 351/392/351 
f 351/392/351 381/423/381 382/424/382 352/393/352 
f 352/393/352 382/424/382 383/425/383 353/394/353 
f 353/394/353 383/425/383 384/426/384 354/395/354 
f 354/395/354 384/426/384 385/427/385 355/396/355 
f 355/396/355 385/427/385 386/428/386 356/397/356 
f 356/397/356 386/428/386 387/429/387 357/398/357 
f 357/398/357 387/429/387 388/430/388 358/399/358 
f 358/399/358 388/430/388 389/431/389 359/400/359 
f 359/400/359 389/431/389 390/432/390 360/401/360 
f 360/401/360 390/432/390 391/433/391 361/402/361 
f 361/402/361 391/433/391 362/434/362 332/403/332 
f 362/404/362 392/435/392 393/436/393 363/405/363 
f 363/405/363 393/436/393 394/437/394 364/406/364 
f 364/406/364 394/437/394 395/438/395 365/407/365 
f 365/407/365 395/438/395 396/439/396 366/408/366 
f 366/408/366 396/439/396 397/440/397 367/409/367 
f 367/409/367 397/440/397 398/441/398 368/410/368 
f 368/410/368 398/441/398 399/442/399 369/411/369 
f 369/411/369 399/442/399 400/443/400 370/412/370 
f 370/412/370 400/443/400 401/444/401 371/413/371 
f 371/413/371 401/444/401 402/445/402 372/414/372 
f 372/414/372 402/445/402 403/446/403 373/415/373 
f 373/415/373 403/446/403 404/447/404 374/416/374 
f 374/416/374 404/447/404 405/448/405 375/417/375 
f 375/417/375 405/448/405 406/449/406 376/418/376 
f 376/418/376 406/449/406 407/450/407 377/419/377 
f 377/419/377 407/450/407 408/451/408 378/420/378 
f 378/420/378 408/451/408 409/452/409 379/421/379 
f 379/421/379 409/452/409 410/453/410 380/422/380 
f 380/422/380 410/453/410 411/454/411 381/423/381 
f 381/423/381 411/454/411 412/455/412 382/424/382 
f 382/424/382 412/455/412 413/456/413 383/425/383 
f 383/425/383 413/456/413 414/457/414 384/426/384 
f 384/426/384 414/457/414 415/458/415 385/427/385 
f 385/427/385 415/458/415 416/459/416 386/428/386 
f 386/428/386 416/459/416 417/460/417 387/429/387 
f 387/429/387 417/460/417 418/461/418 388/430/388 
f 388/430/388 418/461/418 419/462/419 389/431/389 
f 389/431/389 419/462/419 420/463/420 390/432/390 
f 390/432/390 420/463/420 421/464/421 391/433/391 
f 391/433/391 421/464/421 392/465/392 362/434/362 
f 422/466/422 393/467/393 392/468/392 
f 422/466/422 394/469/394 393/467/393 
f 422/466/422 395/470/395 394/469/394 
f 422/466/422 396/471/396 395/470/395 
f 422/466/422 397/472/397 396/471/396 
f 422/466/422 398/473/398 397/472/397 
f 422/466/422 399/474/399 398/473/398 
f 422/466/422 400/475/400 399/474/399 
f 422/466/422 401/476/401 400/475/400 
f 422/466/422 402/477/402 401/476/401 
f 422/466/422 403/478/403 402/477/402 
f 422/466/422 404/479/404 403/478/403 
f 422/466/422 405/480/405 404/479/404 
f 422/466/422 406/481/406 405/480/405 
f 422/466/422 407/482/407 406/481/406 
f 422/466/422 408/483/408 407/482/407 
f 422/466/422 409/484/409 408/483/408 
f 422/466/422 410/485/410 409/484/409 
f 422/466/422 411/486/411 410/485/410 
f 422/466/422 412/487/412 411/486/411 
f 422/466/422 413/488/413 412/487/412 
f 422/466/422 414/489/414 413/488/413 
f 422/466/422 415/490/415 414/489/414 
f 422/466/422 416/491/416 415/490/415 
f 422/466/422 417/492/417 416/491/416 
f 422/466/422 418/493/418 417/492/417 
f 422/466/422 419/494/419 418/493/418 
f 422/466/422 420/495/420 419/494/419 
f 422/466/422 421/496/421 420/495/420 
f 422/466/422 392/468/392 421/496/421 
# 390 polygons - 60 triangles

