# Blender 5.2.2 LTS
# www.blender.org
mtllib Stool_3Legged_OBJ.mtl
o Stool
v 5.348119 1.006975 -4.901232
v 5.348119 1.293840 -4.901232
v 4.512017 1.328726 -4.316014
v 4.416685 1.328727 -3.702780
v 4.392488 1.293841 -3.337703
v 5.572657 1.328726 -4.881396
v 5.572657 1.006975 -4.916283
v 5.471830 1.328726 -3.337718
v 4.736090 1.293841 -3.302832
v 4.736090 1.006975 -3.302832
v 4.678643 1.328726 -3.337661
v 5.519080 1.293841 -3.302832
v 4.401033 1.293840 -4.122005
v 5.422680 1.328726 -3.337718
v 4.631938 1.328726 -4.497000
v 4.392488 1.006975 -3.337703
v 4.381800 1.006975 -3.703012
v 4.676639 1.006975 -3.302832
v 4.401033 1.006975 -4.122005
v 4.477131 1.006975 -4.315865
v 5.422680 0.972089 -3.337718
v 5.472857 1.006975 -3.302832
v 5.519143 1.006975 -3.302832
v 4.624739 1.006975 -4.531136
v 5.572657 0.972089 -3.337718
v 5.572657 1.293841 -3.302832
v 4.628917 1.293842 -3.302832
v 5.041914 0.972083 -4.794604
v 4.617807 0.972089 -3.336890
v 4.412903 1.328726 -3.873783
v 4.381420 1.006975 -3.888812
v 5.177746 1.293840 -4.868400
v 5.208813 0.972089 -4.852531
v 4.821198 1.328726 -4.673411
v 5.009023 1.293840 -4.806231
v 4.821950 1.006975 -4.708291
v 6.716919 1.293841 -3.302832
v 6.491820 1.328726 -3.337715
v 6.763514 1.293840 -3.703012
v 5.776003 1.328726 -4.873521
v 5.939765 1.328726 -4.847328
v 6.451790 1.328726 -3.337718
v 6.763892 1.293841 -3.888812
v 6.400505 1.328726 -3.337718
v 5.722633 1.328726 -3.337718
v 5.673483 1.328726 -3.337718
v 5.626234 1.293841 -3.302832
v 6.520574 1.293841 -4.531136
v 6.633296 1.328726 -4.316014
v 6.104890 1.328726 -4.791031
v 6.744280 1.293841 -4.122005
v 6.323363 1.293841 -4.708291
v 5.797194 1.006975 -4.901232
v 5.967567 1.006975 -4.868400
v 6.136291 1.006975 -4.806231
v 6.323363 1.006975 -4.708291
v 6.668182 1.006975 -4.315865
v 6.744280 1.006975 -4.122005
v 6.763514 1.006975 -3.703012
v 6.716919 1.006975 -3.302832
v 6.763893 1.006975 -3.888812
v 5.626174 0.972089 -3.337718
v 5.672457 1.006975 -3.302832
v 5.722633 1.006975 -3.302832
v 6.451831 1.006975 -3.302832
v 6.400512 1.006975 -3.302832
v 6.495945 1.006973 -3.302832
v 6.520574 1.006975 -4.531136
v 4.553836 0.972089 -3.625206
v 4.536779 0.972089 -3.700055
v 5.436885 0.972089 -4.736030
v 5.497340 0.972089 -4.784192
v 4.601658 0.972089 -3.565178
v 4.553876 0.972089 -3.774902
v 5.572657 0.972089 -3.586831
v 5.572657 0.972089 -3.643427
v 5.519072 0.972089 -3.643427
v 5.519072 0.972089 -3.586831
v 5.572680 0.972089 -4.454080
v 5.497207 0.972089 -4.471321
v 5.517691 0.972089 -4.320658
v 5.572657 0.972089 -4.320920
v 5.572657 0.972089 -3.538401
v 5.519072 0.972089 -3.538401
v 5.436797 0.972089 -4.519530
v 5.472774 0.972089 -4.320444
v 4.670792 0.972089 -3.531811
v 5.403292 0.972089 -4.589073
v 5.440919 0.972089 -4.320292
v 5.471830 0.972089 -3.643427
v 5.471830 0.972089 -3.586831
v 5.471830 0.972089 -3.538401
v 5.572680 0.972089 -4.801360
v 5.519072 0.972089 -3.701146
v 5.471830 0.972089 -3.701146
v 5.572657 0.972089 -3.701146
v 5.519072 0.972089 -3.756395
v 5.471830 0.972089 -3.756395
v 5.572657 0.972089 -3.756395
v 5.519072 0.972089 -3.822442
v 5.471830 0.972089 -3.822442
v 5.572657 0.972089 -3.822442
v 5.422680 0.972089 -3.822442
v 5.422680 0.972089 -3.756395
v 5.422680 0.972089 -3.701146
v 5.422680 0.972089 -3.643427
v 5.422680 0.972089 -3.586831
v 5.422680 0.972089 -3.538401
v 4.747580 0.972089 -3.531819
v 4.816784 0.972089 -3.834813
v 4.864595 0.972089 -3.774758
v 4.881623 0.972089 -3.699902
v 4.864503 0.972089 -3.625075
v 4.816633 0.972089 -3.565090
v 4.669963 0.972089 -4.316685
v 4.601746 0.972089 -3.834915
v 4.670837 0.972089 -3.868203
v 4.747657 0.972089 -3.868165
v 4.813507 0.972089 -4.317337
v 6.608998 0.972089 -3.700766
v 6.591861 0.972089 -3.625562
v 5.648019 0.972089 -4.784192
v 5.708474 0.972089 -4.736030
v 6.543810 0.972089 -3.565248
v 6.591820 0.972089 -3.775968
v 5.626241 0.972089 -3.586831
v 5.626241 0.972089 -3.643427
v 5.627622 0.972089 -4.320658
v 5.648152 0.972089 -4.471321
v 5.626241 0.972089 -3.538401
v 5.672539 0.972089 -4.320444
v 5.708563 0.972089 -4.519530
v 6.474349 0.972089 -3.531725
v 5.704394 0.972089 -4.320292
v 5.742068 0.972089 -4.589073
v 5.673483 0.972089 -3.586831
v 5.673483 0.972089 -3.643427
v 5.673483 0.972089 -3.538401
v 5.673483 0.972089 -3.701146
v 5.626241 0.972089 -3.701146
v 5.673483 0.972089 -3.756395
v 5.626241 0.972089 -3.756395
v 5.673483 0.972089 -3.822442
v 5.626241 0.972089 -3.822442
v 5.722633 0.972089 -3.756395
v 5.722633 0.972089 -3.822442
v 5.722633 0.972089 -3.701146
v 5.722633 0.972089 -3.643427
v 5.722633 0.972089 -3.586831
v 5.722633 0.972089 -3.538401
v 6.397197 0.972089 -3.531733
v 6.327663 0.972089 -3.836164
v 6.279626 0.972089 -3.775823
v 6.262517 0.972089 -3.700612
v 6.279718 0.972089 -3.625429
v 6.327816 0.972089 -3.565160
v 6.475350 0.972089 -4.316685
v 5.742037 0.972089 -4.666425
v 6.474304 0.972089 -3.869712
v 6.543723 0.972089 -3.836267
v 6.331806 0.972089 -4.317337
v 6.397119 0.972089 -3.869674
v 4.459596 -1.577172 -3.700760
v 4.442278 -1.577172 -3.776636
v 4.393754 -1.577172 -3.837484
v 4.323634 -1.577172 -3.871252
v 4.245807 -1.577172 -3.871252
v 4.175687 -1.577172 -3.837484
v 4.127162 -1.577172 -3.776636
v 4.109844 -1.577172 -3.700760
v 4.127162 -1.577172 -3.624885
v 4.175687 -1.577172 -3.564037
v 4.245807 -1.577172 -3.530269
v 4.323634 -1.577172 -3.530269
v 4.393754 -1.577172 -3.564037
v 4.442278 -1.577172 -3.624885
v 5.572344 -1.577172 -4.877986
v 5.648220 -1.577172 -4.895304
v 5.709068 -1.577172 -4.943829
v 5.742836 -1.577172 -5.013949
v 5.742836 -1.577172 -5.091776
v 5.709068 -1.577172 -5.161896
v 5.648220 -1.577172 -5.210421
v 5.572344 -1.577172 -5.227738
v 5.496468 -1.577172 -5.210420
v 5.435620 -1.577172 -5.161896
v 5.401853 -1.577172 -5.091776
v 5.401852 -1.577172 -5.013948
v 5.435620 -1.577172 -4.943829
v 5.496468 -1.577172 -4.895304
v 5.401852 0.972018 -4.667374
v 6.703035 -1.577172 -3.776636
v 6.751560 -1.577172 -3.837484
v 6.821680 -1.577172 -3.871252
v 6.899507 -1.577172 -3.871252
v 6.969626 -1.577172 -3.837484
v 7.018151 -1.577172 -3.776636
v 7.035470 -1.577172 -3.700760
v 7.018151 -1.577172 -3.624885
v 6.969626 -1.577172 -3.564037
v 6.899507 -1.577172 -3.530269
v 6.821680 -1.577172 -3.530269
v 6.751559 -1.577172 -3.564037
v 6.703035 -1.577172 -3.624885
v 6.685717 -1.577172 -3.700760
v 4.284720 -1.577172 -3.700760
v 5.572344 -1.577172 -5.052862
v 6.860593 -1.577172 -3.700760
v 5.375569 0.972089 -4.879704
v 5.369310 1.328726 -4.873521
v 4.477131 1.293840 -4.315865
v 4.381800 1.293840 -3.703012
v 4.428394 1.293841 -3.302832
v 4.427388 1.328726 -3.337718
v 5.572657 1.293840 -4.916283
v 5.572664 0.972089 -4.881395
v 5.471941 1.293841 -3.302832
v 4.737205 1.328726 -3.337702
v 4.726522 0.972089 -3.336382
v 4.676639 1.293841 -3.302832
v 5.519072 1.328726 -3.337718
v 4.424538 1.328726 -4.096226
v 5.422680 1.293841 -3.302832
v 4.624739 1.293841 -4.531136
v 4.427388 0.972089 -3.337718
v 4.428394 1.006975 -3.302832
v 4.416679 0.972089 -3.702345
v 4.667052 0.972089 -3.336375
v 4.421021 0.972089 -4.093413
v 4.512017 0.972089 -4.316014
v 5.422680 1.006975 -3.302832
v 5.472799 0.972089 -3.337718
v 5.519139 0.972089 -3.337718
v 4.631938 0.972089 -4.497000
v 5.572657 1.006975 -3.302832
v 5.572657 1.328726 -3.337718
v 4.632264 1.328726 -3.337592
v 5.009023 1.006975 -4.806231
v 4.625750 1.006973 -3.302832
v 4.381421 1.293841 -3.888812
v 4.410529 0.972089 -3.869585
v 5.205548 1.328726 -4.847328
v 5.177746 1.006975 -4.868400
v 4.821950 1.293841 -4.708291
v 5.040423 1.328726 -4.791031
v 4.821197 0.972089 -4.673413
v 6.752826 1.293841 -3.337703
v 6.717926 1.328726 -3.337718
v 6.492777 1.293842 -3.302832
v 6.728629 1.328727 -3.702780
v 5.797194 1.293840 -4.901232
v 5.967567 1.293840 -4.868400
v 6.451831 1.293841 -3.302832
v 6.732410 1.328726 -3.873783
v 6.400512 1.293841 -3.302832
v 5.722633 1.293841 -3.302832
v 5.673372 1.293841 -3.302832
v 5.626241 1.328726 -3.337718
v 6.513376 1.328726 -4.497000
v 6.668182 1.293840 -4.315865
v 6.136291 1.293840 -4.806231
v 6.720775 1.328726 -4.096225
v 6.324116 1.328726 -4.673411
v 5.769748 0.972089 -4.879698
v 5.936501 0.972089 -4.852529
v 6.103411 0.972089 -4.794571
v 6.324116 0.972089 -4.673413
v 6.633296 0.972089 -4.316014
v 6.724239 0.972089 -4.093451
v 6.728631 0.972089 -3.702504
v 6.717926 0.972089 -3.337720
v 6.752826 1.006975 -3.337703
v 6.734721 0.972089 -3.869681
v 5.626170 1.006975 -3.302832
v 5.672514 0.972089 -3.337718
v 5.722633 0.972089 -3.337718
v 6.463371 0.972089 -3.335755
v 6.411222 0.972089 -3.336034
v 6.506232 0.972089 -3.336284
v 6.513376 0.972089 -4.497000
v 5.351169 0.987594 -4.898841
v 5.360319 0.975965 -4.891664
v 5.350474 1.313222 -4.898153
v 5.357538 1.324850 -4.888916
v 4.492636 1.324850 -4.315930
v 4.481008 1.313222 -4.315881
v 4.397305 1.324850 -3.702909
v 4.385676 1.313222 -3.702986
v 4.408899 1.293841 -3.306707
v 4.396931 1.293841 -3.318331
v 4.427955 1.324850 -3.318339
v 4.428289 1.313222 -3.306710
v 4.396365 1.313222 -3.337721
v 4.407999 1.324850 -3.337726
v 5.572657 1.324850 -4.900778
v 5.572657 1.313222 -4.912407
v 5.572658 0.987594 -4.912407
v 5.572660 0.975965 -4.900778
v 5.471842 1.324850 -3.318337
v 5.471879 1.313222 -3.306709
v 4.736214 1.313222 -3.306707
v 4.736585 1.324850 -3.318331
v 4.735027 0.987594 -3.306560
v 4.731838 0.975965 -3.317744
v 4.677530 1.324850 -3.318313
v 4.676862 1.313222 -3.306702
v 5.519075 1.313222 -3.306709
v 5.519073 1.324850 -3.318337
v 4.403646 1.313222 -4.119140
v 4.411480 1.324850 -4.110547
v 5.422680 1.324850 -3.318337
v 5.422680 1.313222 -3.306709
v 4.627938 1.324850 -4.515965
v 4.625539 1.313222 -4.527343
v 4.407997 0.975965 -3.337785
v 4.396364 0.987594 -3.337780
v 4.428282 0.987594 -3.306709
v 4.427947 0.975965 -3.318337
v 4.396931 1.006975 -3.318331
v 4.408899 1.006975 -3.306707
v 4.385675 0.987594 -3.702937
v 4.397302 0.975965 -3.702716
v 4.675574 0.987594 -3.306560
v 4.672378 0.975965 -3.317741
v 4.403254 0.987594 -4.118828
v 4.409916 0.975965 -4.109297
v 4.481008 0.987594 -4.315881
v 4.492636 0.975965 -4.315930
v 5.422680 0.975965 -3.318337
v 5.422680 0.987594 -3.306709
v 5.472900 0.987594 -3.306709
v 5.472881 0.975965 -3.318337
v 5.519146 0.987594 -3.306709
v 5.519145 0.975965 -3.318337
v 4.625539 0.987594 -4.527343
v 4.627938 0.975965 -4.515965
v 5.572657 0.975965 -3.318337
v 5.572657 0.987594 -3.306709
v 5.572657 1.313222 -3.306709
v 5.572657 1.324850 -3.318337
v 4.629460 1.313222 -3.306695
v 4.630575 1.324850 -3.318282
v 5.023641 0.975963 -4.801063
v 5.012677 0.987593 -4.804939
v 4.622048 0.975965 -3.317970
v 4.624696 0.987593 -3.306617
v 4.395413 1.324850 -3.882131
v 4.384919 1.313222 -3.887143
v 4.384654 0.987594 -3.886676
v 4.394358 0.975965 -3.880267
v 5.180835 1.313222 -4.866059
v 5.190103 1.324850 -4.859035
v 5.191554 0.975965 -4.861348
v 5.181198 0.987594 -4.866637
v 4.821616 1.324850 -4.692789
v 4.821867 1.313222 -4.704414
v 5.012512 1.313222 -4.804542
v 5.022979 1.324850 -4.799475
v 4.821867 0.987594 -4.704414
v 4.821616 0.975965 -4.692789
v 6.748383 1.293841 -3.318331
v 6.736414 1.293841 -3.306707
v 6.737315 1.324850 -3.337718
v 6.748948 1.313222 -3.337713
v 6.717024 1.313222 -3.306709
v 6.717359 1.324850 -3.318337
v 6.492181 1.324850 -3.318336
v 6.492499 1.313222 -3.306709
v 6.759637 1.313222 -3.702986
v 6.748009 1.324850 -3.702909
v 5.787776 1.324850 -4.888916
v 5.794839 1.313222 -4.898153
v 5.955211 1.324850 -4.859035
v 5.964478 1.313222 -4.866059
v 6.451813 1.324850 -3.318337
v 6.451827 1.313222 -3.306709
v 6.760395 1.313222 -3.887143
v 6.749900 1.324850 -3.882131
v 6.400509 1.324850 -3.318337
v 6.400511 1.313222 -3.306709
v 5.722633 1.324850 -3.318337
v 5.722633 1.313222 -3.306709
v 5.673471 1.324850 -3.318337
v 5.673434 1.313222 -3.306709
v 5.626238 1.313222 -3.306709
v 5.626240 1.324850 -3.318337
v 6.519774 1.313222 -4.527343
v 6.517375 1.324850 -4.515965
v 6.652677 1.324850 -4.315930
v 6.664306 1.313222 -4.315881
v 6.122334 1.324850 -4.799475
v 6.132802 1.313222 -4.804542
v 6.741668 1.313222 -4.119140
v 6.733833 1.324850 -4.110547
v 6.323446 1.313222 -4.704414
v 6.323698 1.324850 -4.692789
v 5.794145 0.987594 -4.898839
v 5.784996 0.975965 -4.891662
v 5.964116 0.987594 -4.866637
v 5.953760 0.975965 -4.861347
v 6.132638 0.987594 -4.804934
v 6.121677 0.975965 -4.801048
v 6.323446 0.987594 -4.704414
v 6.323698 0.975965 -4.692789
v 6.664306 0.987594 -4.315881
v 6.652677 0.975965 -4.315930
v 6.742054 0.987594 -4.118833
v 6.735373 0.975965 -4.109315
v 6.759638 0.987594 -3.702955
v 6.748011 0.975965 -3.702786
v 6.717359 0.975965 -3.318337
v 6.717023 0.987594 -3.306709
v 6.748948 0.987594 -3.337705
v 6.737315 0.975965 -3.337710
v 6.736414 1.006975 -3.306707
v 6.748383 1.006975 -3.318331
v 6.760652 0.987594 -3.886687
v 6.750928 0.975965 -3.880310
v 5.626169 0.975965 -3.318337
v 5.626167 0.987594 -3.306709
v 5.672413 0.987594 -3.306709
v 5.672432 0.975965 -3.318337
v 5.722633 0.987594 -3.306709
v 5.722633 0.975965 -3.318337
v 6.453114 0.987594 -3.306491
v 6.456960 0.975965 -3.317465
v 6.401702 0.987594 -3.306522
v 6.405272 0.975965 -3.317589
v 6.497259 0.987593 -3.306550
v 6.500688 0.975965 -3.317700
v 6.519774 0.987594 -4.527343
v 6.517375 0.975965 -4.515965
v 4.408803 1.311068 -3.310155
v 4.396868 1.304608 -3.320485
v 4.408503 1.321405 -3.320495
v 4.396680 1.311068 -3.326949
v 4.408499 0.979411 -3.320519
v 4.396679 0.989747 -3.326975
v 4.408799 0.989747 -3.310160
v 4.396868 0.996208 -3.320492
v 6.744936 1.311068 -3.318336
v 6.734259 1.304608 -3.306709
v 6.734594 1.321405 -3.318337
v 6.727796 1.311068 -3.306709
v 6.734594 0.979411 -3.318334
v 6.727796 0.989747 -3.306709
v 6.744936 0.989747 -3.318332
v 6.734259 0.996208 -3.306707
vn -0.2698 0.0790 -0.9597
vn -0.1290 0.0853 -0.9880
vn -0.1296 -0.0744 -0.9888
vn -0.2707 -0.0680 -0.9602
vn -0.5652 0.0813 -0.8209
vn -0.4065 0.0804 -0.9101
vn -0.4072 -0.0744 -0.9103
vn -0.5654 -0.0794 -0.8210
vn -0.9691 0.0869 -0.2307
vn -0.8819 0.0838 -0.4639
vn -0.8820 -0.0822 -0.4641
vn -0.9693 -0.0819 -0.2318
vn -0.9908 0.0802 0.1086
vn -0.9952 0.0961 0.0158
vn -0.9954 -0.0944 0.0160
vn -0.9908 -0.0802 0.1087
vn -0.0000 0.0902 -0.9959
vn -0.0000 -0.0822 -0.9966
vn -0.9953 0.0877 -0.0412
vn -0.9958 -0.0822 -0.0413
vn -0.0000 0.0985 0.9951
vn -0.0000 -0.0985 0.9951
vn -0.0000 -0.0976 0.9952
vn -0.0000 0.0984 0.9952
vn -0.0001 -0.0952 0.9955
vn -0.0000 -0.0958 0.9954
vn -0.0002 -0.0965 0.9953
vn -0.7469 0.0779 -0.6604
vn -0.7469 -0.0779 -0.6604
vn -0.0968 -0.0967 0.9906
vn -0.0968 0.0972 0.9905
vn 0.2707 -0.0680 -0.9602
vn 0.1296 -0.0744 -0.9888
vn 0.1290 0.0853 -0.9880
vn 0.2698 0.0790 -0.9597
vn 0.5654 -0.0795 -0.8210
vn 0.4072 -0.0744 -0.9103
vn 0.4065 0.0804 -0.9101
vn 0.5652 0.0813 -0.8209
vn 0.9693 -0.0820 -0.2317
vn 0.8820 -0.0822 -0.4641
vn 0.8819 0.0838 -0.4639
vn 0.9691 0.0869 -0.2307
vn 0.9873 -0.0972 0.1257
vn 0.9954 -0.0944 0.0160
vn 0.9952 0.0961 0.0158
vn 0.9873 0.0972 0.1257
vn 0.9958 -0.0823 -0.0413
vn 0.9953 0.0877 -0.0412
vn -0.0000 -0.0974 0.9952
vn -0.0001 -0.0949 0.9955
vn 0.0001 -0.0937 0.9956
vn 0.0003 -0.0952 0.9955
vn 0.7469 -0.0779 -0.6604
vn 0.7469 0.0779 -0.6604
vn 0.0796 0.0802 0.9936
vn 0.0797 -0.0792 0.9937
vn -0.0000 -1.0000 -0.0000
vn -0.0000 -1.0000 -0.0002
vn -0.0000 -1.0000 0.0001
vn 0.0001 -1.0000 -0.0004
vn 0.9866 -0.1633 0.0003
vn 0.8869 -0.1466 -0.4381
vn 0.8954 -0.1480 -0.4200
vn 0.6061 -0.0997 -0.7891
vn 0.6342 -0.1044 -0.7661
vn 0.2003 -0.0321 -0.9792
vn 0.2446 -0.0395 -0.9688
vn -0.2442 0.0419 -0.9688
vn -0.1999 0.0345 -0.9792
vn -0.6337 0.1067 -0.7662
vn -0.6057 0.1020 -0.7891
vn -0.8949 0.1501 -0.4203
vn -0.8864 0.1487 -0.4384
vn -0.9863 0.1652 -0.0002
vn -0.9863 0.1652 -0.0001
vn -0.8951 0.1499 0.4200
vn -0.8865 0.1484 0.4382
vn -0.6340 0.1063 0.7660
vn -0.6059 0.1016 0.7890
vn -0.2445 0.0414 0.9688
vn -0.2001 0.0340 0.9792
vn 0.2001 -0.0327 0.9792
vn 0.2444 -0.0400 0.9689
vn 0.6058 -0.1002 0.7893
vn 0.6338 -0.1048 0.7664
vn 0.8866 -0.1468 0.4386
vn 0.8951 -0.1482 0.4206
vn -0.0000 -0.1640 0.9865
vn 0.4385 -0.1474 0.8865
vn 0.4204 -0.1488 0.8950
vn 0.7893 -0.1007 0.6057
vn 0.7663 -0.1053 0.6338
vn 0.9793 -0.0330 0.1999
vn 0.9689 -0.0404 0.2443
vn 0.9688 0.0411 -0.2445
vn 0.9792 0.0337 -0.2002
vn 0.7661 0.1061 -0.6340
vn 0.7891 0.1014 -0.6058
vn 0.4200 0.1497 -0.8951
vn 0.4382 0.1483 -0.8866
vn -0.0000 0.1650 -0.9863
vn -0.4201 0.1498 -0.8951
vn -0.4381 0.1484 -0.8866
vn -0.7627 0.1068 -0.6378
vn -0.7852 0.1022 -0.6107
vn -0.9683 0.0413 -0.2464
vn -0.9792 0.0336 -0.2001
vn -0.9782 -0.0338 0.2050
vn -0.9678 -0.0410 0.2484
vn -0.7893 -0.1005 0.6057
vn -0.7663 -0.1051 0.6338
vn -0.4386 -0.1473 0.8865
vn -0.4204 -0.1487 0.8951
vn -0.9865 -0.1638 0.0003
vn -0.8866 -0.1471 0.4386
vn -0.8950 -0.1485 0.4205
vn -0.6057 -0.1003 0.7893
vn -0.6338 -0.1050 0.7663
vn -0.2000 -0.0327 0.9792
vn -0.2444 -0.0401 0.9688
vn 0.2445 0.0413 0.9688
vn 0.2001 0.0339 0.9792
vn 0.6340 0.1063 0.7660
vn 0.6059 0.1016 0.7890
vn 0.8951 0.1498 0.4201
vn 0.8866 0.1484 0.4382
vn 0.9863 0.1650 -0.0001
vn 0.8949 0.1498 -0.4203
vn 0.8864 0.1484 -0.4384
vn 0.6338 0.1062 -0.7662
vn 0.6057 0.1016 -0.7892
vn 0.2442 0.0413 -0.9688
vn 0.1999 0.0339 -0.9792
vn -0.2003 -0.0327 -0.9792
vn -0.2446 -0.0401 -0.9688
vn -0.6060 -0.1004 -0.7891
vn -0.6341 -0.1050 -0.7661
vn -0.8868 -0.1472 -0.4381
vn -0.8953 -0.1486 -0.4200
vn -0.0000 1.0000 -0.0000
vn -0.8619 0.4390 0.2539
vn -0.8719 0.4841 0.0742
vn -0.8577 -0.2301 0.4599
vn -0.8628 -0.0488 0.5032
vn 0.2287 0.4389 0.8690
vn 0.0487 0.4841 0.8736
vn 0.4348 -0.2296 0.8708
vn 0.4777 -0.0486 0.8772
vn -0.1167 0.4214 -0.8994
vn -0.0000 0.4405 -0.8978
vn -0.8051 0.4179 -0.4210
vn -0.6864 0.3947 -0.6108
vn -0.8862 0.4630 0.0150
vn -0.9016 0.4310 -0.0359
vn -0.1202 -0.3773 -0.9183
vn -0.2557 -0.3560 -0.8988
vn -0.0000 -0.4115 -0.9114
vn -0.0000 0.4719 0.8817
vn -0.8790 0.4269 -0.2125
vn -0.0000 0.4712 0.8820
vn -0.1001 0.4692 0.8774
vn -0.0000 0.4717 0.8818
vn 0.0001 0.4713 0.8820
vn -0.0006 -0.4609 0.8875
vn 0.0001 -0.4632 0.8863
vn -0.4560 0.0858 0.8859
vn -0.4560 -0.0858 0.8858
vn -0.0000 0.4718 0.8817
vn -0.5155 0.4075 -0.7538
vn -0.8892 -0.4572 0.0159
vn -0.8719 -0.4841 0.0740
vn -0.1005 -0.4677 0.8782
vn -0.0010 -0.4650 0.8853
vn -0.8857 -0.4107 -0.2165
vn -0.9119 -0.4089 -0.0360
vn -0.8074 -0.4118 -0.4226
vn 0.0001 -0.4689 0.8832
vn -0.0000 -0.4719 0.8817
vn -0.6864 -0.3947 -0.6108
vn -0.3746 0.4071 -0.8330
vn -0.2489 0.3983 -0.8828
vn -0.3800 -0.3861 -0.8406
vn -0.5177 -0.4000 -0.7563
vn 0.8862 0.4630 0.0150
vn 0.8740 0.4694 0.1256
vn 0.1167 0.4214 -0.8994
vn 0.2489 0.3983 -0.8828
vn 0.9016 0.4310 -0.0359
vn 0.6864 0.3947 -0.6108
vn 0.8051 0.4179 -0.4210
vn 0.3746 0.4071 -0.8330
vn 0.8790 0.4269 -0.2125
vn 0.5155 0.4075 -0.7538
vn 0.2557 -0.3562 -0.8988
vn 0.1202 -0.3773 -0.9182
vn 0.5177 -0.4001 -0.7563
vn 0.3800 -0.3862 -0.8405
vn 0.8856 -0.4110 -0.2164
vn 0.8073 -0.4119 -0.4226
vn 0.4777 0.0487 0.8772
vn 0.8740 -0.4694 0.1256
vn 0.8891 -0.4574 0.0159
vn 0.9117 -0.4094 -0.0360
vn -0.0002 -0.4682 0.8836
vn -0.0005 -0.4605 0.8877
vn 0.0003 -0.4559 0.8900
vn 0.0013 -0.4606 0.8876
vn 0.6864 -0.3947 -0.6108
vn 0.0491 -0.4809 0.8754
vn -0.8628 0.0487 0.5032
vn -0.8576 0.2297 0.4601
vn -0.4569 0.4160 0.7863
vn -0.4599 0.7777 0.4286
vn -0.1006 0.8754 0.4727
vn -0.4622 0.8812 0.0994
vn -0.1308 0.9822 0.1347
vn -0.8619 -0.4392 0.2534
vn -0.4624 -0.8811 0.0991
vn -0.4602 -0.7778 0.4280
vn -0.1312 -0.9821 0.1354
vn -0.1012 -0.8746 0.4741
vn -0.4571 -0.4162 0.7860
vn 0.4348 0.2297 0.8707
vn 0.8721 0.0857 0.4817
vn 0.7726 0.4159 0.4797
vn 0.4150 0.7776 0.4723
vn 0.4694 0.8756 0.1143
vn 0.0859 0.8812 0.4649
vn 0.1307 0.9822 0.1346
vn 0.2286 -0.4389 0.8690
vn 0.0865 -0.8795 0.4679
vn 0.4150 -0.7776 0.4723
vn 0.1313 -0.9820 0.1359
vn 0.4694 -0.8756 0.1143
vn 0.7726 -0.4159 0.4797
vn 0.8721 -0.0857 0.4817
vn -0.0594 0.8512 -0.5215
vn -0.0000 0.8618 -0.5073
vn -0.0201 0.9748 -0.2220
vn -0.0000 0.9768 -0.2143
vn -0.4739 0.8414 -0.2597
vn -0.4297 0.8274 -0.3616
vn -0.2050 0.9716 -0.1179
vn -0.1955 0.9688 -0.1522
vn -0.4811 0.8766 0.0092
vn -0.5133 0.8581 -0.0151
vn -0.2012 0.9795 0.0046
vn -0.2174 0.9761 -0.0032
vn -0.0614 -0.8229 -0.5648
vn -0.1498 -0.8000 -0.5811
vn -0.0171 -0.9684 -0.2488
vn -0.0598 -0.9586 -0.2784
vn -0.0000 -0.8438 -0.5367
vn -0.0000 -0.9715 -0.2372
vn -0.0000 0.8817 0.4719
vn -0.0000 0.9806 0.1961
vn -0.5221 0.8460 -0.1079
vn -0.2239 0.9740 -0.0355
vn 0.0001 0.8813 0.4726
vn 0.0001 0.9805 0.1966
vn 0.0001 0.8816 0.4720
vn 0.0002 0.8814 0.4724
vn -0.0000 0.9806 0.1962
vn 0.0002 0.9805 0.1965
vn -0.0009 -0.8756 0.4831
vn 0.0002 -0.8768 0.4809
vn -0.0009 -0.9792 0.2030
vn 0.0001 -0.9794 0.2020
vn -0.3233 0.8354 -0.4446
vn -0.1484 0.9709 -0.1881
vn -0.4867 -0.8735 0.0106
vn -0.2052 -0.9787 0.0057
vn -0.0013 -0.8781 0.4784
vn -0.0010 -0.9798 0.2002
vn -0.5433 -0.8323 -0.1102
vn -0.5343 -0.8452 -0.0136
vn -0.2441 -0.9691 -0.0348
vn -0.2295 -0.9733 -0.0010
vn -0.4780 -0.8383 -0.2623
vn -0.2072 -0.9710 -0.1194
vn 0.0002 -0.8801 0.4747
vn 0.0001 -0.9802 0.1979
vn -0.0000 -0.8817 0.4719
vn -0.0000 -0.9806 0.1961
vn -0.4297 -0.8274 -0.3616
vn -0.1955 -0.9688 -0.1522
vn -0.2161 0.8368 -0.5030
vn -0.1383 0.8333 -0.5353
vn -0.0904 0.9695 -0.2278
vn -0.0529 0.9700 -0.2373
vn -0.2271 -0.8189 -0.5271
vn -0.3270 -0.8315 -0.4492
vn -0.0998 -0.9623 -0.2530
vn -0.1504 -0.9701 -0.1904
vn 0.4811 0.8766 0.0092
vn 0.2012 0.9795 0.0046
vn 0.0594 0.8512 -0.5215
vn 0.1383 0.8333 -0.5353
vn 0.0201 0.9748 -0.2220
vn 0.0529 0.9700 -0.2373
vn 0.5133 0.8581 -0.0151
vn 0.2174 0.9761 -0.0032
vn 0.4297 0.8274 -0.3616
vn 0.4739 0.8414 -0.2597
vn 0.1955 0.9688 -0.1522
vn 0.2050 0.9716 -0.1179
vn 0.2161 0.8368 -0.5030
vn 0.0904 0.9695 -0.2278
vn 0.5221 0.8460 -0.1079
vn 0.2239 0.9740 -0.0355
vn 0.3233 0.8354 -0.4446
vn 0.1484 0.9709 -0.1881
vn 0.1497 -0.8001 -0.5809
vn 0.0614 -0.8229 -0.5648
vn 0.0598 -0.9586 -0.2783
vn 0.0171 -0.9684 -0.2488
vn 0.3269 -0.8315 -0.4491
vn 0.2271 -0.8190 -0.5270
vn 0.1504 -0.9701 -0.1903
vn 0.0997 -0.9624 -0.2527
vn 0.5429 -0.8326 -0.1102
vn 0.4779 -0.8383 -0.2623
vn 0.2437 -0.9692 -0.0348
vn 0.2072 -0.9710 -0.1194
vn 0.4865 -0.8736 0.0106
vn 0.2050 -0.9787 0.0057
vn 0.5338 -0.8455 -0.0136
vn 0.2291 -0.9734 -0.0011
vn -0.0002 -0.8797 0.4755
vn -0.0002 -0.9801 0.1984
vn -0.0007 -0.8752 0.4838
vn 0.0006 -0.8726 0.4884
vn -0.0006 -0.9790 0.2040
vn 0.0008 -0.9785 0.2063
vn 0.0017 -0.8758 0.4826
vn 0.0013 -0.9792 0.2027
vn 0.4297 -0.8274 -0.3616
vn 0.1955 -0.9688 -0.1522
vt 0.521300 0.072035
vt 0.489833 0.072039
vt 0.489827 0.020014
vt 0.521294 0.020010
vt 0.592203 0.072028
vt 0.553909 0.072031
vt 0.553904 0.020006
vt 0.592200 0.020003
vt 0.725385 0.072025
vt 0.687615 0.072026
vt 0.687615 0.020000
vt 0.725385 0.020000
vt 0.867800 0.072025
vt 0.801521 0.072025
vt 0.801521 0.020000
vt 0.867800 0.020000
vt 0.449021 0.072044
vt 0.449014 0.020019
vt 0.767825 0.072025
vt 0.767825 0.020000
vt 0.699794 0.653932
vt 0.690078 0.653932
vt 0.690087 0.601907
vt 0.699793 0.601907
vt 0.681529 0.653933
vt 0.681693 0.601908
vt 0.672596 0.653933
vt 0.672593 0.601908
vt 0.548078 0.653940
vt 0.537296 0.653941
vt 0.537293 0.601916
vt 0.548075 0.601915
vt 0.528642 0.653942
vt 0.528064 0.601916
vt 0.640279 0.072026
vt 0.640278 0.020001
vt 0.492272 0.601919
vt 0.492275 0.653944
vt 0.376735 0.020029
vt 0.408202 0.020025
vt 0.408208 0.072050
vt 0.376741 0.072054
vt 0.305832 0.020036
vt 0.344126 0.020033
vt 0.344131 0.072058
vt 0.305835 0.072061
vt 0.172650 0.020038
vt 0.210420 0.020038
vt 0.210420 0.072063
vt 0.172650 0.072063
vt 0.030235 0.020038
vt 0.096514 0.020038
vt 0.096514 0.072063
vt 0.030235 0.072064
vt 0.130210 0.020038
vt 0.130210 0.072063
vt 0.709498 0.601907
vt 0.709510 0.653932
vt 0.717892 0.601907
vt 0.718059 0.653932
vt 0.726992 0.601907
vt 0.726992 0.653932
vt 0.849931 0.601907
vt 0.859238 0.601907
vt 0.859237 0.653932
vt 0.849930 0.653932
vt 0.867238 0.601907
vt 0.866663 0.653933
vt 0.257756 0.020038
vt 0.257757 0.072063
vt 0.907313 0.653933
vt 0.907313 0.601908
vt 0.470655 0.968484
vt 0.468784 0.902339
vt 0.490568 0.902759
vt 0.493502 0.916314
vt 0.505086 0.968689
vt 0.664580 0.705591
vt 0.653639 0.714407
vt 0.612163 0.693206
vt 0.642436 0.688207
vt 0.502038 0.927247
vt 0.513901 0.968833
vt 0.493773 0.889262
vt 0.467764 0.872054
vt 0.678243 0.923403
vt 0.668534 0.923403
vt 0.668535 0.913125
vt 0.678243 0.913126
vt 0.678248 0.765812
vt 0.678243 0.790013
vt 0.668307 0.790063
vt 0.664586 0.762679
vt 0.678244 0.932199
vt 0.668535 0.932197
vt 0.660201 0.790106
vt 0.653666 0.753921
vt 0.514498 0.933347
vt 0.524619 0.968870
vt 0.654482 0.790143
vt 0.647638 0.741283
vt 0.659975 0.923400
vt 0.659975 0.913125
vt 0.659980 0.932193
vt 0.678248 0.702453
vt 0.678245 0.687893
vt 0.659983 0.902645
vt 0.668538 0.902644
vt 0.678243 0.902644
vt 0.659998 0.892615
vt 0.668545 0.892612
vt 0.678243 0.892611
vt 0.660016 0.880619
vt 0.668552 0.880614
vt 0.678243 0.880613
vt 0.651097 0.892619
vt 0.651143 0.880631
vt 0.651072 0.902647
vt 0.651061 0.913124
vt 0.651064 0.923397
vt 0.651080 0.932184
vt 0.528391 0.933375
vt 0.651091 0.968649
vt 0.668548 0.968668
vt 0.660159 0.968662
vt 0.678244 0.968670
vt 0.541048 0.878390
vt 0.549673 0.889283
vt 0.552737 0.902873
vt 0.549614 0.916460
vt 0.540917 0.927347
vt 0.514677 0.790913
vt 0.486142 0.791106
vt 0.507772 0.758206
vt 0.581912 0.703856
vt 0.647355 0.726990
vt 0.514857 0.872412
vt 0.502453 0.878445
vt 0.469705 0.831492
vt 0.540579 0.790728
vt 0.528620 0.872370
vt 0.541944 0.726020
vt 0.885834 0.968479
vt 0.847535 0.968797
vt 0.863055 0.916247
vt 0.866004 0.902628
vt 0.887702 0.902308
vt 0.714052 0.688207
vt 0.744324 0.693207
vt 0.702856 0.714407
vt 0.691915 0.705591
vt 0.839879 0.968945
vt 0.854477 0.927233
vt 0.888712 0.872036
vt 0.862784 0.889067
vt 0.687952 0.913125
vt 0.687953 0.923403
vt 0.691910 0.762679
vt 0.688180 0.790062
vt 0.687952 0.932197
vt 0.702830 0.753921
vt 0.696286 0.790106
vt 0.841958 0.933363
vt 0.830493 0.968934
vt 0.708857 0.741282
vt 0.702005 0.790143
vt 0.696512 0.913125
vt 0.696512 0.923400
vt 0.696507 0.932193
vt 0.687949 0.902644
vt 0.696505 0.902645
vt 0.687942 0.892612
vt 0.696489 0.892615
vt 0.687935 0.880614
vt 0.696471 0.880619
vt 0.705344 0.880630
vt 0.705390 0.892619
vt 0.705415 0.902646
vt 0.705426 0.913124
vt 0.705424 0.923397
vt 0.705407 0.932184
vt 0.827999 0.933391
vt 0.705396 0.968650
vt 0.696328 0.968662
vt 0.687939 0.968668
vt 0.815282 0.878144
vt 0.806616 0.889089
vt 0.803537 0.902744
vt 0.806675 0.916395
vt 0.815413 0.927335
vt 0.848715 0.758206
vt 0.870345 0.791106
vt 0.841810 0.790912
vt 0.708873 0.727162
vt 0.774577 0.703861
vt 0.886773 0.831484
vt 0.854062 0.878199
vt 0.841599 0.872137
vt 0.827770 0.872095
vt 0.815908 0.790727
vt 0.814543 0.726019
vt 0.633776 0.106015
vt 0.647879 0.105475
vt 0.648452 0.574099
vt 0.634539 0.574630
vt 0.661918 0.104012
vt 0.662298 0.572657
vt 0.675875 0.101912
vt 0.676063 0.570587
vt 0.479622 0.102561
vt 0.493531 0.100159
vt 0.496238 0.568857
vt 0.482509 0.571227
vt 0.507478 0.097995
vt 0.509982 0.566724
vt 0.521511 0.096480
vt 0.523824 0.565229
vt 0.535614 0.095901
vt 0.537735 0.564658
vt 0.549722 0.096360
vt 0.551650 0.565110
vt 0.563767 0.097753
vt 0.565502 0.566483
vt 0.577733 0.099795
vt 0.579277 0.568496
vt 0.591662 0.102070
vt 0.593022 0.570741
vt 0.605627 0.104119
vt 0.606776 0.572759
vt 0.619670 0.105530
vt 0.620625 0.574150
vt 0.020000 0.106287
vt 0.034105 0.105771
vt 0.034130 0.574446
vt 0.020099 0.574960
vt 0.048145 0.104326
vt 0.048073 0.573010
vt 0.062105 0.102239
vt 0.061919 0.570940
vt 0.076028 0.099924
vt 0.075757 0.568639
vt 0.089988 0.097840
vt 0.089618 0.566572
vt 0.104030 0.096404
vt 0.103564 0.565146
vt 0.118135 0.095901
vt 0.117569 0.564647
vt 0.132240 0.096434
vt 0.131573 0.565176
vt 0.146278 0.097902
vt 0.145515 0.566632
vt 0.160232 0.100016
vt 0.159341 0.568691
vt 0.174150 0.102361
vt 0.173344 0.571062
vt 0.188105 0.104479
vt 0.187185 0.573162
vt 0.202142 0.105956
vt 0.201125 0.574630
vt 0.216245 0.106506
vt 0.215154 0.575178
vt 0.276748 0.105988
vt 0.290855 0.105509
vt 0.289570 0.574160
vt 0.275591 0.574636
vt 0.304900 0.104104
vt 0.303484 0.572767
vt 0.318866 0.102058
vt 0.317304 0.570743
vt 0.332797 0.099786
vt 0.331113 0.568491
vt 0.346764 0.097748
vt 0.344954 0.566471
vt 0.360810 0.096357
vt 0.358871 0.565094
vt 0.374918 0.095901
vt 0.372852 0.564643
vt 0.389021 0.096481
vt 0.386829 0.565218
vt 0.403054 0.097995
vt 0.400738 0.566719
vt 0.417002 0.100157
vt 0.414547 0.568859
vt 0.430912 0.102552
vt 0.428342 0.571234
vt 0.444859 0.104721
vt 0.442162 0.573383
vt 0.248607 0.103962
vt 0.262644 0.105438
vt 0.261613 0.574092
vt 0.247703 0.572631
vt 0.173057 0.935320
vt 0.176198 0.949080
vt 0.144483 0.949080
vt 0.173057 0.962841
vt 0.164257 0.973876
vt 0.151540 0.980000
vt 0.137425 0.980000
vt 0.124709 0.973876
vt 0.115909 0.962841
vt 0.112768 0.949080
vt 0.115909 0.935320
vt 0.124709 0.924284
vt 0.137425 0.918160
vt 0.151540 0.918160
vt 0.164257 0.924284
vt 0.313467 0.961583
vt 0.299706 0.964724
vt 0.299706 0.933008
vt 0.285945 0.961583
vt 0.274910 0.952782
vt 0.268786 0.940066
vt 0.268786 0.925951
vt 0.274910 0.913234
vt 0.285946 0.904434
vt 0.299706 0.901294
vt 0.313467 0.904434
vt 0.324502 0.913234
vt 0.330626 0.925951
vt 0.330626 0.940066
vt 0.324502 0.952782
vt 0.364695 0.897369
vt 0.373495 0.886334
vt 0.393269 0.911130
vt 0.386212 0.880210
vt 0.400326 0.880210
vt 0.413043 0.886334
vt 0.421843 0.897369
vt 0.424984 0.911130
vt 0.421843 0.924890
vt 0.413043 0.935926
vt 0.400326 0.942050
vt 0.386212 0.942050
vt 0.373495 0.935926
vt 0.364695 0.924890
vt 0.361554 0.911130
vt 0.249861 0.607895
vt 0.258458 0.607886
vt 0.267411 0.607871
vt 0.390630 0.607883
vt 0.399973 0.607950
vt 0.407226 0.608210
vt 0.448218 0.608354
vt 0.450101 0.674610
vt 0.450723 0.705669
vt 0.448567 0.746054
vt 0.432754 0.785954
vt 0.410746 0.818622
vt 0.376603 0.850849
vt 0.336910 0.872383
vt 0.306941 0.882740
vt 0.277140 0.887566
vt 0.240114 0.889019
vt 0.203087 0.887566
vt 0.173286 0.882740
vt 0.143317 0.872383
vt 0.103625 0.850850
vt 0.069482 0.818622
vt 0.047474 0.785956
vt 0.031661 0.746055
vt 0.029505 0.705671
vt 0.030128 0.674611
vt 0.032014 0.608356
vt 0.069144 0.608191
vt 0.077549 0.607935
vt 0.088217 0.607877
vt 0.212818 0.607870
vt 0.221771 0.607885
vt 0.230368 0.607894
vt 0.240114 0.607897
vt 0.022205 0.607343
vt 0.025767 0.606178
vt 0.025573 0.608138
vt 0.460972 0.969520
vt 0.463991 0.972206
vt 0.462632 0.973541
vt 0.449317 0.598770
vt 0.450528 0.602295
vt 0.448555 0.602172
vt 0.886958 0.978117
vt 0.889639 0.975089
vt 0.890978 0.976439
vt 0.198736 0.896448
vt 0.199540 0.892977
vt 0.240114 0.895497
vt 0.240114 0.899060
vt 0.037781 0.787711
vt 0.041031 0.786357
vt 0.067738 0.824611
vt 0.065379 0.827235
vt 0.020318 0.674479
vt 0.023917 0.674591
vt 0.023550 0.708209
vt 0.020000 0.708665
vt 0.636880 0.680191
vt 0.637822 0.683628
vt 0.606797 0.689584
vt 0.605343 0.686344
vt 0.678243 0.677808
vt 0.678243 0.681377
vt 0.230340 0.597711
vt 0.230343 0.601303
vt 0.221725 0.601301
vt 0.221726 0.597709
vt 0.023808 0.751667
vt 0.027099 0.750459
vt 0.068009 0.598071
vt 0.068295 0.601671
vt 0.031648 0.602221
vt 0.030962 0.598836
vt 0.087857 0.597690
vt 0.087918 0.601286
vt 0.077032 0.601369
vt 0.076893 0.597785
vt 0.515405 0.978862
vt 0.515282 0.975268
vt 0.526092 0.975297
vt 0.526262 0.978890
vt 0.240115 0.597714
vt 0.240115 0.601306
vt 0.878035 0.072025
vt 0.874431 0.072025
vt 0.874431 0.020000
vt 0.878035 0.020000
vt 0.212713 0.597721
vt 0.212729 0.601311
vt 0.103181 0.857213
vt 0.101490 0.860291
vt 0.458633 0.902447
vt 0.462229 0.902347
vt 0.464400 0.968750
vt 0.469563 0.978047
vt 0.470257 0.974657
vt 0.505989 0.975133
vt 0.506012 0.978729
vt 0.462355 0.825323
vt 0.465621 0.826607
vt 0.462081 0.868843
vt 0.458538 0.868290
vt 0.476531 0.789405
vt 0.479797 0.790758
vt 0.651065 0.975227
vt 0.651055 0.978819
vt 0.660154 0.978835
vt 0.660168 0.975243
vt 0.668546 0.975249
vt 0.668543 0.978842
vt 0.678244 0.975251
vt 0.678244 0.978844
vt 0.503520 0.749490
vt 0.505884 0.752103
vt 0.135926 0.878802
vt 0.137802 0.875773
vt 0.168537 0.887079
vt 0.167177 0.890356
vt 0.574140 0.697993
vt 0.576073 0.700989
vt 0.541444 0.719641
vt 0.539749 0.716558
vt 0.407695 0.601662
vt 0.407936 0.598058
vt 0.459903 0.674478
vt 0.456305 0.674588
vt 0.454632 0.608100
vt 0.458000 0.607390
vt 0.281492 0.896447
vt 0.280688 0.892977
vt 0.311691 0.887078
vt 0.313051 0.890355
vt 0.400180 0.601379
vt 0.400287 0.597794
vt 0.460227 0.708663
vt 0.456678 0.708206
vt 0.390754 0.601286
vt 0.390797 0.597690
vt 0.267502 0.601312
vt 0.267520 0.597722
vt 0.258505 0.597710
vt 0.258505 0.601301
vt 0.249887 0.601303
vt 0.249890 0.597711
vt 0.414849 0.827234
vt 0.412490 0.824610
vt 0.439197 0.786356
vt 0.442446 0.787710
vt 0.342426 0.875773
vt 0.344301 0.878801
vt 0.453129 0.750457
vt 0.456420 0.751665
vt 0.378738 0.860290
vt 0.377047 0.857212
vt 0.751144 0.686344
vt 0.749690 0.689584
vt 0.718665 0.683628
vt 0.719606 0.680191
vt 0.816738 0.716557
vt 0.815043 0.719640
vt 0.780413 0.700990
vt 0.782346 0.697994
vt 0.894130 0.825323
vt 0.890863 0.826606
vt 0.876689 0.790757
vt 0.879956 0.789404
vt 0.020000 0.020038
vt 0.023605 0.020038
vt 0.023605 0.072064
vt 0.020000 0.072064
vt 0.895451 0.969485
vt 0.892044 0.968790
vt 0.894254 0.902345
vt 0.897849 0.902448
vt 0.894403 0.868841
vt 0.897946 0.868291
vt 0.687941 0.975249
vt 0.687944 0.978842
vt 0.696319 0.975243
vt 0.696333 0.978835
vt 0.705423 0.975227
vt 0.705432 0.978820
vt 0.828644 0.978910
vt 0.828836 0.975317
vt 0.838184 0.975293
vt 0.838027 0.978885
vt 0.846253 0.975152
vt 0.846185 0.978747
vt 0.850603 0.752102
vt 0.852967 0.749489
vt 0.886205 0.974702
vt 0.023947 0.603319
vt 0.025286 0.604671
vt 0.026682 0.600542
vt 0.028114 0.603189
vt 0.028629 0.605498
vt 0.032007 0.604957
vt 0.028478 0.608425
vt 0.464504 0.970704
vt 0.467236 0.968453
vt 0.467320 0.971386
vt 0.470632 0.971898
vt 0.466773 0.973695
vt 0.465317 0.976332
vt 0.453368 0.600432
vt 0.452037 0.601792
vt 0.456196 0.603117
vt 0.453562 0.604590
vt 0.451217 0.605113
vt 0.451756 0.608427
vt 0.448230 0.604949
vt 0.888143 0.974588
vt 0.885862 0.971902
vt 0.888788 0.971771
vt 0.889246 0.968458
vt 0.891105 0.972290
vt 0.893750 0.973732
vt 0.200942 0.890399
vt 0.240114 0.892569
vt 0.043886 0.785965
vt 0.068866 0.821943
vt 0.026767 0.674658
vt 0.026354 0.707207
vt 0.639628 0.685954
vt 0.608969 0.691550
vt 0.678244 0.684314
vt 0.230353 0.604295
vt 0.221741 0.604291
vt 0.029352 0.748648
vt 0.068719 0.604679
vt 0.088049 0.604290
vt 0.077265 0.604341
vt 0.514806 0.972308
vt 0.525557 0.972345
vt 0.240115 0.604298
vt 0.871405 0.072025
vt 0.871405 0.020000
vt 0.212767 0.604293
vt 0.103664 0.854376
vt 0.465230 0.902289
vt 0.505734 0.972169
vt 0.467738 0.828610
vt 0.464795 0.870100
vt 0.482671 0.791173
vt 0.651082 0.972239
vt 0.660172 0.972252
vt 0.668549 0.972259
vt 0.678244 0.972261
vt 0.507006 0.754784
vt 0.140119 0.873958
vt 0.170469 0.884899
vt 0.578521 0.702647
vt 0.541938 0.722481
vt 0.407411 0.604680
vt 0.453459 0.674654
vt 0.279286 0.890399
vt 0.309759 0.884899
vt 0.400062 0.604352
vt 0.453874 0.707205
vt 0.390686 0.604293
vt 0.267463 0.604295
vt 0.258488 0.604291
vt 0.249876 0.604295
vt 0.411362 0.821942
vt 0.436342 0.785964
vt 0.340109 0.873958
vt 0.450876 0.748647
vt 0.376564 0.854376
vt 0.747518 0.691550
vt 0.716858 0.685955
vt 0.814550 0.722480
vt 0.777967 0.702649
vt 0.888745 0.828606
vt 0.873816 0.791173
vt 0.026630 0.020038
vt 0.026630 0.072064
vt 0.891255 0.902276
vt 0.891687 0.870092
vt 0.687939 0.972260
vt 0.696315 0.972253
vt 0.705405 0.972239
vt 0.829439 0.972376
vt 0.838776 0.972358
vt 0.846648 0.972215
vt 0.849481 0.754783
s 1
usemtl initialShadingGroup
f 32/1/1 2/2/2 1/3/3 243/4/4
f 244/5/5 35/6/6 238/7/7 36/8/8
f 13/9/9 211/10/10 20/11/11 19/12/12
f 5/13/13 212/14/14 17/15/15 16/16/16
f 2/2/2 215/17/17 7/18/18 1/3/3
f 212/14/14 240/19/19 31/20/20 17/15/15
f 26/21/21 12/22/21 23/23/22 235/24/22
f 12/22/21 217/25/21 22/26/22 23/23/22
f 217/25/21 223/27/21 231/28/23 22/26/22
f 9/29/21 220/30/24 18/31/25 10/32/26
f 220/30/24 27/33/24 239/34/27 18/31/25
f 10/32/26 231/28/23 223/27/21 9/29/21
f 211/10/10 224/35/28 24/36/29 20/11/11
f 243/4/4 238/7/7 35/6/6 32/1/1
f 226/37/30 239/34/27 27/33/24 213/38/31
f 19/12/12 31/20/20 240/19/19 13/9/9
f 224/35/28 244/5/5 36/8/8 24/36/29
f 54/39/32 53/40/33 251/41/34 252/42/35
f 56/43/36 55/44/37 261/45/38 52/46/39
f 58/47/40 57/48/41 260/49/42 51/50/43
f 272/51/44 59/52/45 39/53/46 247/54/47
f 53/40/33 7/18/18 215/17/17 251/41/34
f 59/52/45 61/55/48 43/56/49 39/53/46
f 235/24/22 274/57/22 47/58/21 26/21/21
f 274/57/22 63/59/22 257/60/21 47/58/21
f 63/59/22 64/61/50 256/62/21 257/60/21
f 66/63/51 65/64/52 253/65/21 255/66/21
f 65/64/52 67/67/53 249/68/21 253/65/21
f 255/66/21 256/62/21 64/61/50 66/63/51
f 57/48/41 68/69/54 48/70/55 260/49/42
f 252/42/35 261/45/38 55/44/37 54/39/32
f 37/71/56 249/68/21 67/67/53 60/72/57
f 51/50/43 43/56/49 61/55/48 58/47/40
f 68/69/54 56/43/36 52/46/39 48/70/55
f 225/73/58 227/74/58 70/75/58 69/76/58 29/77/58
f 72/78/58 71/79/59 33/80/58 209/81/58
f 69/76/58 73/82/58 228/83/58 29/77/58
f 74/84/58 70/75/58 227/74/58 241/85/58
f 75/86/58 78/87/58 77/88/58 76/89/58
f 79/90/58 82/91/58 81/92/58 80/93/58
f 83/94/58 84/95/58 78/87/58 75/86/58
f 80/93/58 81/92/58 86/96/58 85/97/58
f 87/98/58 219/99/58 228/83/58 73/82/58
f 85/97/58 86/96/58 89/100/58 88/101/60
f 77/88/58 78/87/58 91/102/58 90/103/58
f 78/87/58 84/95/58 92/104/58 91/102/58
f 93/105/58 72/78/58 209/81/58 216/106/58
f 90/103/58 95/107/58 94/108/58 77/88/58
f 94/108/58 96/109/58 76/89/58 77/88/58
f 95/107/58 98/110/58 97/111/58 94/108/58
f 97/111/58 99/112/58 96/109/58 94/108/58
f 98/110/58 101/113/58 100/114/58 97/111/58
f 100/114/58 102/115/58 99/112/58 97/111/58
f 101/113/58 98/110/58 104/116/58 103/117/58
f 98/110/58 95/107/58 105/118/58 104/116/58
f 95/107/58 90/103/58 106/119/58 105/118/58
f 90/103/58 91/102/58 107/120/58 106/119/58
f 91/102/58 92/104/58 108/121/58 107/120/58
f 109/122/58 108/121/58 21/123/58 219/99/58 87/98/58
f 92/104/58 84/95/58 233/124/58 232/125/58
f 84/95/58 83/94/58 25/126/58 233/124/58
f 110/127/58 103/117/58 104/116/58 111/128/58
f 111/128/58 104/116/58 105/118/58 112/129/58
f 112/129/58 105/118/58 106/119/58 113/130/58
f 113/130/58 106/119/58 107/120/58 114/131/58
f 114/131/58 107/120/58 108/121/58 109/122/58
f 108/121/58 92/104/58 232/125/58 21/123/58
f 115/132/58 230/133/58 234/134/58
f 28/135/61 33/80/58 71/79/59 191/136/59
f 115/132/58 117/137/58 116/138/58 229/139/58 230/133/58
f 115/132/58 119/140/58 118/141/58 117/137/58
f 119/140/58 89/100/58 103/117/58 110/127/58 118/141/58
f 89/100/58 86/96/58 101/113/58 103/117/58
f 86/96/58 81/92/58 100/114/58 101/113/58
f 81/92/58 82/91/58 102/115/58 100/114/58
f 116/138/58 74/84/58 241/85/58 229/139/58
f 119/140/58 115/132/58 234/134/58 246/142/58
f 119/140/58 246/142/58 28/135/61 191/136/59 88/101/60 89/100/58
f 271/143/58 279/144/58 121/145/58 120/146/58 270/147/58
f 264/148/58 265/149/58 123/150/58 122/151/58
f 279/144/58 277/152/58 124/153/58 121/145/58
f 273/154/58 270/147/58 120/146/58 125/155/58
f 75/86/58 76/89/58 127/156/58 126/157/58
f 79/90/58 129/158/58 128/159/58 82/91/58
f 83/94/58 75/86/58 126/157/58 130/160/58
f 129/158/58 132/161/58 131/162/58 128/159/58
f 133/163/58 124/153/58 277/152/58 278/164/58
f 132/161/58 135/165/58 134/166/58 131/162/58
f 127/156/58 137/167/58 136/168/58 126/157/58
f 126/157/58 136/168/58 138/169/58 130/160/58
f 216/106/58 264/148/58 122/151/58 93/105/58
f 137/167/58 127/156/58 140/170/58 139/171/58
f 140/170/58 127/156/58 76/89/58 96/109/58
f 139/171/58 140/170/58 142/172/58 141/173/58
f 142/172/58 140/170/58 96/109/58 99/112/58
f 141/173/58 142/172/58 144/174/58 143/175/58
f 144/174/58 142/172/58 99/112/58 102/115/58
f 143/175/58 146/176/58 145/177/58 141/173/58
f 141/173/58 145/177/58 147/178/58 139/171/58
f 139/171/58 147/178/58 148/179/58 137/167/58
f 137/167/58 148/179/58 149/180/58 136/168/58
f 136/168/58 149/180/58 150/181/58 138/169/58
f 151/182/58 133/163/58 278/164/58 276/183/58 150/181/58
f 138/169/58 275/184/58 62/185/58 130/160/58
f 130/160/58 62/185/58 25/126/58 83/94/58
f 152/186/58 153/187/58 145/177/58 146/176/58
f 153/187/58 154/188/58 147/178/58 145/177/58
f 154/188/58 155/189/58 148/179/58 147/178/58
f 155/189/58 156/190/58 149/180/58 148/179/58
f 156/190/58 151/182/58 150/181/58 149/180/58
f 276/183/58 275/184/58 138/169/58 150/181/58
f 280/191/58 268/192/58 157/193/58
f 158/194/58 123/150/58 265/149/58 266/195/58
f 268/192/58 269/196/58 160/197/58 159/198/58 157/193/58
f 157/193/58 159/198/58 162/199/58 161/200/58
f 161/200/58 162/199/58 152/186/58 146/176/58 134/166/58
f 134/166/58 146/176/58 143/175/58 131/162/58
f 131/162/58 143/175/58 144/174/58 128/159/58
f 128/159/58 144/174/58 102/115/58 82/91/58
f 269/196/58 273/154/58 125/155/58 160/197/58
f 267/201/58 280/191/58 157/193/58 161/200/58
f 161/200/58 134/166/58 135/165/58 158/194/58 266/195/58 267/201/58
f 163/202/62 164/203/63 111/204/64 112/205/62
f 164/203/63 165/206/65 110/207/66 111/204/64
f 165/206/65 166/208/67 118/209/68 110/207/66
f 166/210/67 167/211/69 117/212/70 118/213/68
f 167/211/69 168/214/71 116/215/72 117/212/70
f 168/214/71 169/216/73 74/217/74 116/215/72
f 169/216/73 170/218/75 70/219/76 74/217/74
f 170/218/75 171/220/77 69/221/78 70/219/76
f 171/220/77 172/222/79 73/223/80 69/221/78
f 172/222/79 173/224/81 87/225/82 73/223/80
f 173/224/81 174/226/83 109/227/84 87/225/82
f 174/226/83 175/228/85 114/229/86 109/227/84
f 175/228/85 176/230/87 113/231/88 114/229/86
f 176/230/87 163/202/62 112/205/62 113/231/88
f 177/232/89 178/233/90 129/234/91 79/235/89
f 178/233/90 179/236/92 132/237/93 129/234/91
f 179/236/92 180/238/94 135/239/95 132/237/93
f 180/238/94 181/240/96 158/241/97 135/239/95
f 181/240/96 182/242/98 123/243/99 158/241/97
f 182/242/98 183/244/100 122/245/101 123/243/99
f 183/244/100 184/246/102 93/247/102 122/245/101
f 184/246/102 185/248/103 72/249/104 93/247/102
f 185/248/103 186/250/105 71/251/106 72/249/104
f 186/250/105 187/252/107 191/253/108 71/251/106
f 187/252/107 188/254/109 88/255/110 191/253/108
f 188/254/109 189/256/111 85/257/112 88/255/110
f 189/256/111 190/258/113 80/259/114 85/257/112
f 190/258/113 177/260/89 79/261/89 80/259/114
f 205/262/115 204/263/116 155/264/117 154/265/115
f 204/263/116 203/266/118 156/267/119 155/264/117
f 203/266/118 202/268/120 151/269/121 156/267/119
f 202/268/120 201/270/122 133/271/123 151/269/121
f 201/270/122 200/272/124 124/273/125 133/271/123
f 200/272/124 199/274/126 121/275/127 124/273/125
f 199/274/126 198/276/128 120/277/128 121/275/127
f 198/276/128 197/278/129 125/279/130 120/277/128
f 197/278/129 196/280/131 160/281/132 125/279/130
f 196/280/131 195/282/133 159/283/134 160/281/132
f 195/282/133 194/284/135 162/285/136 159/283/134
f 194/284/135 193/286/137 152/287/138 162/285/136
f 193/288/137 192/289/139 153/290/140 152/291/138
f 192/289/139 205/262/115 154/265/115 153/290/140
f 164/292/58 163/293/58 206/294/58
f 163/293/58 176/295/58 206/294/58
f 176/295/58 175/296/58 206/294/58
f 175/296/58 174/297/58 206/294/58
f 174/297/58 173/298/58 206/294/58
f 173/298/58 172/299/58 206/294/58
f 172/299/58 171/300/58 206/294/58
f 171/300/58 170/301/58 206/294/58
f 170/301/58 169/302/58 206/294/58
f 169/302/58 168/303/58 206/294/58
f 168/303/58 167/304/58 206/294/58
f 167/304/58 166/305/58 206/294/58
f 166/305/58 165/306/58 206/294/58
f 165/306/58 164/292/58 206/294/58
f 178/307/58 177/308/58 207/309/58
f 177/308/58 190/310/58 207/309/58
f 190/310/58 189/311/58 207/309/58
f 189/311/58 188/312/58 207/309/58
f 188/312/58 187/313/58 207/309/58
f 187/313/58 186/314/58 207/309/58
f 186/314/58 185/315/58 207/309/58
f 185/315/58 184/316/58 207/309/58
f 184/316/58 183/317/58 207/309/58
f 183/317/58 182/318/58 207/309/58
f 182/318/58 181/319/58 207/309/58
f 181/319/58 180/320/58 207/309/58
f 180/320/58 179/321/58 207/309/58
f 179/321/58 178/307/58 207/309/58
f 192/322/58 193/323/58 208/324/58
f 193/323/58 194/325/58 208/324/58
f 194/325/58 195/326/58 208/324/58
f 195/326/58 196/327/58 208/324/58
f 196/327/58 197/328/58 208/324/58
f 197/328/58 198/329/58 208/324/58
f 198/329/58 199/330/58 208/324/58
f 199/330/58 200/331/58 208/324/58
f 200/331/58 201/332/58 208/324/58
f 201/332/58 202/333/58 208/324/58
f 202/333/58 203/334/58 208/324/58
f 203/334/58 204/335/58 208/324/58
f 204/335/58 205/336/58 208/324/58
f 205/336/58 192/322/58 208/324/58
f 258/337/141 46/338/141 45/339/141 44/340/141 42/341/141 38/342/141 248/343/141 250/344/141 254/345/141 262/346/141 49/347/141 259/348/141 263/349/141 50/350/141 41/351/141 40/352/141 6/353/141
f 6/353/141 210/354/141 242/355/141 245/356/141 34/357/141 15/358/141 3/359/141 222/360/141 30/361/141 4/362/141 214/363/141 237/364/141 11/365/141 218/366/141 14/367/141 8/368/141 221/369/141 236/370/141 258/337/141
f 5/371/13 436/372/142 293/373/143
f 16/374/16 440/375/144 319/376/145
f 37/377/56 444/378/146 365/379/147
f 60/380/57 448/381/148 415/382/149
f 2/383/2 283/384/150 296/385/151 215/386/17
f 211/387/10 286/388/152 314/389/153 224/390/28
f 212/391/14 288/392/154 348/393/155 240/394/19
f 5/371/13 293/373/143 288/392/154 212/391/14
f 1/395/3 281/396/156 354/397/157 243/398/4
f 7/399/18 297/400/158 281/396/156 1/395/3
f 12/401/21 307/402/159 300/403/159 217/404/21
f 13/405/9 309/406/160 286/388/152 211/387/10
f 27/407/24 341/408/161 292/409/162 213/410/31
f 9/411/21 301/412/163 306/413/164 220/414/24
f 18/415/25 323/416/165 303/417/166 10/418/26
f 26/419/21 339/420/159 307/402/159 12/401/21
f 213/421/31 289/422/167 320/423/168 226/424/30
f 223/425/21 312/426/169 301/412/163 9/411/21
f 217/404/21 300/403/159 312/426/169 223/425/21
f 224/390/28 314/389/153 356/427/170 244/428/5
f 17/429/15 321/430/171 316/431/172 16/374/16
f 226/432/30 317/433/173 346/434/174 239/435/27
f 19/436/12 325/437/175 349/438/176 31/439/20
f 20/440/11 327/441/177 325/437/175 19/436/12
f 10/418/26 303/417/166 330/442/178 231/443/23
f 22/444/22 331/445/179 333/446/179 23/447/22
f 23/447/22 333/446/179 338/448/179 235/449/22
f 231/443/23 330/442/178 331/445/179 22/444/22
f 24/450/29 335/451/180 327/441/177 20/440/11
f 220/414/24 306/413/164 341/408/161 27/407/24
f 35/452/6 357/453/181 351/454/182 32/455/1
f 238/456/7 344/457/183 359/458/184 36/459/8
f 239/435/27 346/434/174 323/416/165 18/415/25
f 240/394/19 348/393/155 309/406/160 13/405/9
f 31/439/20 349/438/176 321/430/171 17/429/15
f 32/455/1 351/454/182 283/384/150 2/383/2
f 243/398/4 354/397/157 344/457/183 238/456/7
f 244/428/5 356/427/170 357/453/181 35/452/6
f 36/459/8 359/458/184 335/451/180 24/450/29
f 37/377/56 365/379/147 368/460/159 249/461/21
f 39/462/46 369/463/185 364/464/186 247/465/47
f 251/466/34 372/467/187 374/468/188 252/469/35
f 249/461/21 368/460/159 376/470/159 253/471/21
f 43/472/49 377/473/189 369/463/185 39/462/46
f 253/471/21 376/470/159 380/474/159 255/475/21
f 215/386/17 296/385/151 372/467/187 251/466/34
f 255/475/21 380/474/159 382/476/159 256/477/21
f 257/478/21 384/479/159 385/480/159 47/481/21
f 47/481/21 385/480/159 339/420/159 26/419/21
f 256/477/21 382/476/159 384/479/159 257/478/21
f 48/482/55 387/483/190 390/484/191 260/485/42
f 252/469/35 374/468/188 392/486/192 261/487/38
f 260/485/42 390/484/191 393/488/193 51/489/43
f 51/489/43 393/488/193 377/473/189 43/472/49
f 52/490/39 395/491/194 387/483/190 48/482/55
f 261/487/38 392/486/192 395/491/194 52/490/39
f 54/492/32 399/493/195 397/494/196 53/495/33
f 56/496/36 403/497/197 401/498/198 55/499/37
f 58/500/40 407/501/199 405/502/200 57/503/41
f 60/504/57 415/505/149 362/506/201 37/507/56
f 272/508/44 413/509/202 409/510/203 59/511/45
f 53/495/33 397/494/196 297/400/158 7/399/18
f 59/511/45 409/510/203 417/512/204 61/513/48
f 235/449/22 338/448/179 420/514/179 274/515/22
f 274/515/22 420/514/179 421/516/179 63/517/22
f 63/517/22 421/516/179 423/518/205 64/519/50
f 66/520/51 427/521/206 425/522/207 65/523/52
f 65/523/52 425/522/207 429/524/208 67/525/53
f 64/519/50 423/518/205 427/521/206 66/520/51
f 57/503/41 405/502/200 431/526/209 68/527/54
f 55/499/37 401/498/198 399/493/195 54/492/32
f 67/525/53 429/524/208 412/528/210 60/380/57
f 61/513/48 417/512/204 407/501/199 58/500/40
f 68/527/54 431/526/209 403/497/197 56/496/36
f 5/371/13 290/529/211 434/530/212
f 290/529/211 289/531/167 433/532/213 434/530/212
f 289/531/167 213/410/31 292/409/162 433/532/213
f 5/371/13 434/530/212 436/372/142
f 434/530/212 433/532/213 435/533/214 436/372/142
f 433/532/213 292/409/162 291/534/215 435/533/214
f 436/372/142 435/533/214 294/535/216 293/373/143
f 435/533/214 291/534/215 214/363/217 294/535/216
f 16/374/16 316/431/172 438/536/218
f 316/431/172 315/537/219 437/538/220 438/536/218
f 315/537/219 225/73/221 318/539/222 437/538/220
f 16/374/16 438/536/218 440/375/144
f 438/536/218 437/538/220 439/540/223 440/375/144
f 437/538/220 318/539/222 317/433/173 439/540/223
f 440/375/144 439/540/223 320/541/168 319/376/145
f 439/540/223 317/433/173 226/432/30 320/541/168
f 37/377/56 362/542/201 442/543/224
f 362/542/201 361/544/225 441/545/226 442/543/224
f 361/544/225 247/465/47 364/464/186 441/545/226
f 37/377/56 442/543/224 444/378/146
f 442/543/224 441/545/226 443/546/227 444/378/146
f 441/545/226 364/464/186 363/547/228 443/546/227
f 444/378/146 443/546/227 366/548/229 365/379/147
f 443/546/227 363/547/228 248/343/230 366/548/229
f 60/380/57 412/528/210 446/549/231
f 412/528/210 411/550/232 445/551/233 446/549/231
f 411/550/232 271/143/234 414/552/235 445/551/233
f 60/380/57 446/549/231 448/381/148
f 446/549/231 445/551/233 447/553/236 448/381/148
f 445/551/233 414/552/235 413/509/202 447/553/236
f 448/381/148 447/553/236 416/554/237 415/382/149
f 447/553/236 413/509/202 272/508/44 416/554/237
f 283/384/150 284/555/238 295/556/239 296/385/151
f 284/555/238 210/354/240 6/353/241 295/556/239
f 286/388/152 285/557/242 313/558/243 314/389/153
f 285/557/242 3/359/244 15/358/245 313/558/243
f 288/392/154 287/559/246 347/560/247 348/393/155
f 287/559/246 4/362/248 30/361/249 347/560/247
f 293/373/143 294/535/216 287/559/246 288/392/154
f 294/535/216 214/363/217 4/362/248 287/559/246
f 281/396/156 282/561/250 353/562/251 354/397/157
f 282/561/250 209/81/252 33/80/253 353/562/251
f 297/400/158 298/563/254 282/561/250 281/396/156
f 298/563/254 216/106/255 209/81/252 282/561/250
f 307/402/159 308/564/256 299/565/256 300/403/159
f 308/564/256 221/369/257 8/368/257 299/565/256
f 309/406/160 310/566/258 285/557/242 286/388/152
f 310/566/258 222/360/259 3/359/244 285/557/242
f 341/408/161 342/567/260 291/534/215 292/409/162
f 342/567/260 237/364/261 214/363/217 291/534/215
f 301/412/163 302/568/262 305/569/263 306/413/164
f 302/568/262 218/366/264 11/365/265 305/569/263
f 323/416/165 324/570/266 304/571/267 303/417/166
f 324/570/266 228/83/268 219/99/269 304/571/267
f 339/420/159 340/572/256 308/564/256 307/402/159
f 340/572/256 236/370/257 221/369/257 308/564/256
f 289/422/167 290/573/211 319/574/145 320/423/168
f 290/573/211 5/13/13 16/16/16 319/574/145
f 312/426/169 311/575/256 302/568/262 301/412/163
f 311/575/256 14/367/257 218/366/264 302/568/262
f 300/403/159 299/565/256 311/575/256 312/426/169
f 299/565/256 8/368/257 14/367/257 311/575/256
f 314/389/153 313/558/243 355/576/270 356/427/170
f 313/558/243 15/358/245 34/357/271 355/576/270
f 321/430/171 322/577/272 315/537/219 316/431/172
f 322/577/272 227/74/273 225/73/221 315/537/219
f 317/433/173 318/539/222 345/578/274 346/434/174
f 318/539/222 225/73/221 29/77/275 345/578/274
f 325/437/175 326/579/276 350/580/277 349/438/176
f 326/579/276 229/139/278 241/85/279 350/580/277
f 327/441/177 328/581/280 326/579/276 325/437/175
f 328/581/280 230/133/281 229/139/278 326/579/276
f 303/417/166 304/571/267 329/582/282 330/442/178
f 304/571/267 219/99/269 21/123/283 329/582/282
f 331/445/179 332/583/284 334/584/284 333/446/179
f 332/583/284 232/125/285 233/124/285 334/584/284
f 333/446/179 334/584/284 337/585/284 338/448/179
f 334/584/284 233/124/285 25/126/285 337/585/284
f 330/442/178 329/582/282 332/583/284 331/445/179
f 329/582/282 21/123/283 232/125/285 332/583/284
f 335/451/180 336/586/286 328/581/280 327/441/177
f 336/586/286 234/134/287 230/133/281 328/581/280
f 306/413/164 305/569/263 342/567/260 341/408/161
f 305/569/263 11/365/265 237/364/261 342/567/260
f 357/453/181 358/587/288 352/588/289 351/454/182
f 358/587/288 245/356/290 242/355/291 352/588/289
f 344/457/183 343/589/292 360/590/293 359/458/184
f 343/589/292 28/135/294 246/142/295 360/590/293
f 346/434/174 345/578/274 324/570/266 323/416/165
f 345/578/274 29/77/275 228/83/268 324/570/266
f 348/393/155 347/560/247 310/566/258 309/406/160
f 347/560/247 30/361/249 222/360/259 310/566/258
f 349/438/176 350/580/277 322/577/272 321/430/171
f 350/580/277 241/85/279 227/74/273 322/577/272
f 351/454/182 352/588/289 284/555/238 283/384/150
f 352/588/289 242/355/291 210/354/240 284/555/238
f 354/397/157 353/562/251 343/589/292 344/457/183
f 353/562/251 33/80/253 28/135/294 343/589/292
f 356/427/170 355/576/270 358/587/288 357/453/181
f 355/576/270 34/357/271 245/356/290 358/587/288
f 359/458/184 360/590/293 336/586/286 335/451/180
f 360/590/293 246/142/295 234/134/287 336/586/286
f 365/379/147 366/548/229 367/591/256 368/460/159
f 366/548/229 248/343/230 38/342/257 367/591/256
f 369/463/185 370/592/296 363/547/228 364/464/186
f 370/592/296 250/344/297 248/343/230 363/547/228
f 372/467/187 371/593/298 373/594/299 374/468/188
f 371/593/298 40/352/300 41/351/301 373/594/299
f 368/460/159 367/591/256 375/595/256 376/470/159
f 367/591/256 38/342/257 42/341/257 375/595/256
f 377/473/189 378/596/302 370/592/296 369/463/185
f 378/596/302 254/345/303 250/344/297 370/592/296
f 376/470/159 375/595/256 379/597/256 380/474/159
f 375/595/256 42/341/257 44/340/257 379/597/256
f 296/385/151 295/556/239 371/593/298 372/467/187
f 295/556/239 6/353/241 40/352/300 371/593/298
f 380/474/159 379/597/256 381/598/256 382/476/159
f 379/597/256 44/340/257 45/339/257 381/598/256
f 384/479/159 383/599/256 386/600/256 385/480/159
f 383/599/256 46/338/257 258/337/257 386/600/256
f 385/480/159 386/600/256 340/572/256 339/420/159
f 386/600/256 258/337/257 236/370/257 340/572/256
f 382/476/159 381/598/256 383/599/256 384/479/159
f 381/598/256 45/339/257 46/338/257 383/599/256
f 387/483/190 388/601/304 389/602/305 390/484/191
f 388/601/304 259/348/306 49/347/307 389/602/305
f 374/468/188 373/594/299 391/603/308 392/486/192
f 373/594/299 41/351/301 50/350/309 391/603/308
f 390/484/191 389/602/305 394/604/310 393/488/193
f 389/602/305 49/347/307 262/346/311 394/604/310
f 393/488/193 394/604/310 378/596/302 377/473/189
f 394/604/310 262/346/311 254/345/303 378/596/302
f 395/491/194 396/605/312 388/601/304 387/483/190
f 396/605/312 263/349/313 259/348/306 388/601/304
f 392/486/192 391/603/308 396/605/312 395/491/194
f 391/603/308 50/350/309 263/349/313 396/605/312
f 399/493/195 400/606/314 398/607/315 397/494/196
f 400/606/314 265/149/316 264/148/317 398/607/315
f 403/497/197 404/608/318 402/609/319 401/498/198
f 404/608/318 267/201/320 266/195/321 402/609/319
f 407/501/199 408/610/322 406/611/323 405/502/200
f 408/610/322 269/196/324 268/192/325 406/611/323
f 415/505/149 416/612/237 361/613/225 362/506/201
f 416/612/237 272/51/44 247/54/47 361/613/225
f 413/509/202 414/552/235 410/614/326 409/510/203
f 414/552/235 271/143/234 270/147/327 410/614/326
f 397/494/196 398/607/315 298/563/254 297/400/158
f 398/607/315 264/148/317 216/106/255 298/563/254
f 409/510/203 410/614/326 418/615/328 417/512/204
f 410/614/326 270/147/327 273/154/329 418/615/328
f 338/448/179 337/585/284 419/616/284 420/514/179
f 337/585/284 25/126/285 62/185/285 419/616/284
f 420/514/179 419/616/284 422/617/284 421/516/179
f 419/616/284 62/185/285 275/184/285 422/617/284
f 421/516/179 422/617/284 424/618/330 423/518/205
f 422/617/284 275/184/285 276/183/331 424/618/330
f 427/521/206 428/619/332 426/620/333 425/522/207
f 428/619/332 278/164/334 277/152/335 426/620/333
f 425/522/207 426/620/333 430/621/336 429/524/208
f 426/620/333 277/152/335 279/144/337 430/621/336
f 423/518/205 424/618/330 428/619/332 427/521/206
f 424/618/330 276/183/331 278/164/334 428/619/332
f 405/502/200 406/611/323 432/622/338 431/526/209
f 406/611/323 268/192/325 280/191/339 432/622/338
f 401/498/198 402/609/319 400/606/314 399/493/195
f 402/609/319 266/195/321 265/149/316 400/606/314
f 429/524/208 430/621/336 411/550/232 412/528/210
f 430/621/336 279/144/337 271/143/234 411/550/232
f 417/512/204 418/615/328 408/610/322 407/501/199
f 418/615/328 273/154/329 269/196/324 408/610/322
f 431/526/209 432/622/338 404/608/318 403/497/197
f 432/622/338 280/191/339 267/201/320 404/608/318
